<svg xmlns="http://www.w3.org/2000/svg" xmlns:xlink="http://www.w3.org/1999/xlink" width="200" zoomAndPan="magnify" viewBox="0 0 150 149.999998" height="200" preserveAspectRatio="xMidYMid meet" version="1.0"><defs><clipPath id="ddf238f3f6"><path d="M 61 84 L 138 84 L 138 143.292969 L 61 143.292969 Z M 61 84 " clip-rule="nonzero"/></clipPath><clipPath id="99643df49c"><path d="M 11.738281 83 L 18 83 L 18 89 L 11.738281 89 Z M 11.738281 83 " clip-rule="nonzero"/></clipPath></defs><path fill="#ffffff" d="M 79.308594 42.996094 C 75.816406 46.265625 75.109375 46.621094 75.109375 46.621094 C 75.109375 46.621094 73.011719 45.667969 71.675781 48.335938 C 70.339844 51.003906 72.628906 53.484375 73.773438 53.484375 C 74.917969 53.484375 73.582031 53.484375 73.964844 55.390625 C 74.347656 57.296875 76.464844 55.121094 76.464844 55.121094 C 76.464844 55.121094 83.890625 51.386719 87.328125 50.625 C 90.761719 49.859375 94.390625 51.195312 94.199219 48.90625 C 94.007812 46.621094 91.335938 47.191406 91.335938 47.191406 C 91.335938 47.191406 93.625 45.09375 90.382812 43.1875 C 87.136719 41.28125 85.035156 42.804688 85.035156 42.804688 C 85.035156 42.804688 82.363281 40.136719 79.308594 42.996094 " fill-opacity="1" fill-rule="nonzero"/><path fill="#edeefe" d="M 41.535156 62.558594 C 41.535156 62.558594 25.785156 68.277344 22.636719 75.140625 C 19.488281 82.003906 28.363281 98.589844 28.363281 98.589844 L 40.386719 94.585938 L 66.441406 98.875 C 66.441406 98.875 78.753906 86.867188 77.609375 79.429688 C 76.464844 71.996094 61.003906 64.84375 56.421875 63.699219 C 51.839844 62.558594 41.535156 62.558594 41.535156 62.558594 " fill-opacity="1" fill-rule="nonzero"/><path fill="#591a3f" d="M 68.160156 42.25 C 71.597656 37.390625 79.042969 34.53125 77.609375 27.378906 C 76.179688 20.230469 68.160156 24.234375 61.289062 19.945312 C 54.417969 15.65625 46.113281 16.511719 43.25 24.234375 C 40.386719 31.957031 43.25 51.976562 43.25 51.976562 L 68.160156 42.25 " fill-opacity="1" fill-rule="nonzero"/><path fill="#591a3f" d="M 48.121094 20.804688 C 49.550781 18.800781 45.828125 18.230469 44.398438 12.507812 C 42.964844 6.789062 31.800781 7.933594 31.511719 12.507812 C 31.226562 17.085938 33.230469 17.65625 29.792969 19.085938 C 26.359375 20.515625 25.785156 29.667969 30.082031 29.667969 C 34.375 29.667969 32.945312 31.382812 35.519531 34.53125 C 38.097656 37.675781 44.96875 29.097656 44.96875 29.097656 L 48.121094 20.804688 " fill-opacity="1" fill-rule="nonzero"/><path fill="#dd8776" d="M 63.847656 24.503906 C 69.191406 26.789062 72.246094 30.792969 69.957031 39.566406 C 67.664062 48.335938 60.984375 55.007812 57.359375 55.773438 C 53.730469 56.535156 53.730469 56.535156 53.730469 56.535156 C 53.730469 56.535156 53.347656 59.964844 54.304688 61.683594 C 55.257812 63.398438 57.359375 64.734375 57.359375 64.734375 C 57.359375 64.734375 54.683594 69.5 48.195312 68.738281 C 41.703125 67.972656 38.652344 64.351562 38.652344 64.351562 C 38.652344 64.351562 42.085938 62.253906 42.660156 58.441406 C 43.230469 54.628906 42.085938 48.335938 46.476562 37.46875 C 50.867188 26.601562 63.847656 24.503906 63.847656 24.503906 " fill-opacity="1" fill-rule="nonzero"/><path fill="#591a3f" d="M 71.3125 27.953125 C 66.730469 27.378906 71.023438 31.382812 62.433594 35.101562 C 53.84375 38.820312 52.128906 36.816406 48.121094 39.390625 C 44.109375 41.964844 42.964844 49.972656 42.964844 49.972656 C 42.964844 49.972656 36.09375 38.25 40.960938 30.527344 C 45.269531 23.695312 63.007812 21.945312 63.007812 21.945312 L 71.3125 27.953125 " fill-opacity="1" fill-rule="nonzero"/><path fill="#dd8776" d="M 49.265625 40.535156 C 50.980469 37.675781 49.835938 32.527344 46.402344 33.671875 C 42.964844 34.816406 43.25 42.824219 44.96875 44.824219 C 46.6875 46.828125 49.265625 40.535156 49.265625 40.535156 " fill-opacity="1" fill-rule="nonzero"/><path fill="#591a3f" d="M 60.601562 39.945312 C 60.601562 40.578125 60.003906 41.089844 59.265625 41.089844 C 58.527344 41.089844 57.929688 40.578125 57.929688 39.945312 C 57.929688 39.3125 58.527344 38.800781 59.265625 38.800781 C 60.003906 38.800781 60.601562 39.3125 60.601562 39.945312 " fill-opacity="1" fill-rule="nonzero"/><path fill="#591a3f" d="M 68.90625 42.757812 C 68.90625 43.257812 68.523438 43.664062 68.046875 43.664062 C 67.574219 43.664062 67.1875 43.257812 67.1875 42.757812 C 67.1875 42.257812 67.574219 41.851562 68.046875 41.851562 C 68.523438 41.851562 68.90625 42.257812 68.90625 42.757812 " fill-opacity="1" fill-rule="nonzero"/><path fill="#591a3f" d="M 56.976562 36.417969 C 56.976562 36.417969 63.371094 36.039062 63.5625 37.371094 C 63.753906 38.707031 63.085938 38.707031 62.609375 38.324219 C 62.128906 37.945312 58.027344 37.371094 56.785156 37.371094 C 55.542969 37.371094 56.976562 36.417969 56.976562 36.417969 " fill-opacity="1" fill-rule="nonzero"/><path fill="#591a3f" d="M 68.714844 38.421875 C 67.09375 37.5625 66.519531 39.753906 67.378906 39.945312 C 68.238281 40.136719 69.097656 41.089844 69.574219 41.375 C 70.050781 41.664062 70.148438 40.996094 69.859375 40.230469 C 69.574219 39.46875 68.714844 38.421875 68.714844 38.421875 " fill-opacity="1" fill-rule="nonzero"/><path fill="#cc7a6d" d="M 65.949219 38.800781 C 65.566406 39.753906 64.132812 47.285156 63.179688 48.238281 C 62.226562 49.195312 60.410156 47.382812 59.839844 47.191406 C 59.265625 47 61.175781 50.050781 63.085938 49.382812 C 64.992188 48.714844 65.949219 38.800781 65.949219 38.800781 " fill-opacity="1" fill-rule="nonzero"/><path fill="#cf4e5c" d="M 55.355469 46.714844 C 55.355469 47.191406 58.121094 49.957031 60.125 50.527344 C 62.128906 51.101562 62.988281 50.625 62.796875 51.003906 C 62.609375 51.386719 60.507812 52.816406 59.171875 52.816406 C 57.835938 52.816406 55.832031 50.148438 55.449219 48.527344 C 55.066406 46.90625 55.355469 46.714844 55.355469 46.714844 " fill-opacity="1" fill-rule="nonzero"/><path fill="#ffffff" d="M 56.148438 48.589844 C 55.9375 48.242188 57.421875 50.371094 60.285156 51.132812 C 61.71875 51.515625 59.542969 52.097656 59.265625 52.023438 C 57.421875 51.511719 56.339844 48.90625 56.148438 48.589844 " fill-opacity="1" fill-rule="nonzero"/><path fill="#cf4e5c" d="M 27.503906 68.277344 C 27.503906 68.277344 36.378906 85.148438 38.382812 88.582031 C 40.386719 92.011719 40.386719 92.011719 40.386719 92.011719 L 44.683594 90.296875 L 32.945312 65.703125 L 27.503906 68.277344 " fill-opacity="1" fill-rule="nonzero"/><path fill="#cf4e5c" d="M 66.15625 65.988281 L 61.003906 88.867188 L 64.4375 89.726562 L 71.023438 67.992188 L 66.15625 65.988281 " fill-opacity="1" fill-rule="nonzero"/><path fill="#cf4e5c" d="M 36.09375 86.007812 C 36.09375 86.007812 41.246094 82.574219 52.414062 81.71875 C 63.582031 80.859375 69.304688 83.71875 69.304688 83.71875 C 69.304688 83.71875 65.585938 98.019531 66.15625 101.738281 C 66.730469 105.453125 78.46875 142.058594 78.46875 142.058594 C 78.46875 142.058594 22.636719 141.203125 23.496094 141.203125 C 24.355469 141.203125 31.226562 126.902344 34.660156 112.316406 C 38.097656 97.734375 36.09375 86.007812 36.09375 86.007812 " fill-opacity="1" fill-rule="nonzero"/><path fill="#dd8776" d="M 98.796875 88.296875 C 101.085938 89.726562 98.945312 93.347656 100.800781 90.011719 C 105.097656 82.289062 101.902344 56.953125 97.652344 51.117188 C 95.359375 47.972656 90.207031 49.402344 85.914062 49.972656 C 81.617188 50.546875 74.171875 54.550781 76.464844 55.121094 C 78.753906 55.691406 98.796875 88.296875 98.796875 88.296875 " fill-opacity="1" fill-rule="nonzero"/><path fill="#f2a756" d="M 87.136719 55.390625 C 87.136719 55.390625 77.972656 54.628906 74.917969 55.773438 C 71.863281 56.914062 69.574219 65.304688 69.574219 65.304688 C 69.574219 65.304688 61.175781 66.066406 60.410156 67.210938 C 59.648438 68.355469 60.792969 75.980469 63.847656 77.886719 C 66.902344 79.796875 74.539062 78.269531 75.300781 81.320312 C 76.066406 84.371094 68.429688 90.089844 65.375 100.007812 C 62.320312 109.921875 71.484375 120.214844 71.863281 124.03125 C 72.246094 127.84375 73.011719 141.570312 73.011719 141.570312 L 118.441406 142.332031 C 118.441406 142.332031 117.296875 127.460938 111.953125 119.453125 C 106.605469 111.445312 102.40625 104.199219 102.40625 101.914062 C 102.40625 99.625 100.117188 77.886719 98.207031 68.738281 C 96.300781 59.585938 92.480469 55.773438 87.136719 55.390625 " fill-opacity="1" fill-rule="nonzero"/><path fill="#f2a756" d="M 77.609375 57.410156 C 77.609375 57.410156 74.171875 52.261719 71.597656 51.6875 C 69.019531 51.117188 63.007812 60.839844 66.441406 58.554688 C 69.878906 56.265625 70.453125 59.410156 71.597656 61.125 C 72.742188 62.84375 77.609375 57.410156 77.609375 57.410156 " fill-opacity="1" fill-rule="nonzero"/><path fill="#fec081" d="M 86.773438 52.546875 C 89.0625 49.117188 97.652344 54.550781 98.226562 57.410156 C 98.796875 60.269531 96.21875 67.703125 93.070312 67.703125 C 89.921875 67.703125 85.054688 55.121094 86.773438 52.546875 " fill-opacity="1" fill-rule="nonzero"/><path fill="#fec081" d="M 71.597656 51.6875 C 74.621094 52.292969 67.300781 63.128906 65.296875 62.84375 C 63.292969 62.558594 63.292969 58.839844 64.726562 56.835938 C 66.15625 54.835938 70.164062 51.402344 71.597656 51.6875 " fill-opacity="1" fill-rule="nonzero"/><path fill="#293444" d="M 75.683594 65.941406 C 74.675781 65.335938 77.335938 64.035156 79.5 65.175781 C 81.664062 66.320312 80.644531 66.574219 79.246094 66.066406 C 77.847656 65.558594 76.320312 66.320312 75.683594 65.941406 " fill-opacity="1" fill-rule="nonzero"/><path fill="#293444" d="M 60.410156 67.210938 C 59.519531 67.59375 60.03125 70.515625 60.667969 71.277344 C 61.304688 72.042969 63.722656 72.421875 64.738281 71.40625 C 65.757812 70.390625 63.210938 67.464844 61.8125 67.210938 C 60.410156 66.957031 60.410156 67.210938 60.410156 67.210938 " fill-opacity="1" fill-rule="nonzero"/><path fill="#fec081" d="M 77.335938 59.710938 C 75.914062 59.710938 74.792969 61.363281 75.683594 62 C 76.574219 62.636719 78.863281 63.398438 79.375 62.507812 C 79.882812 61.617188 78.226562 59.710938 77.335938 59.710938 " fill-opacity="1" fill-rule="nonzero"/><path fill="#fec081" d="M 72.375 60.21875 C 72.085938 58.875 69.320312 61.746094 69.449219 62.507812 C 69.574219 63.269531 72.757812 62 72.375 60.21875 " fill-opacity="1" fill-rule="nonzero"/><path fill="#fec081" d="M 80.265625 82.972656 C 79.320312 82.21875 77.847656 87.292969 78.863281 87.421875 C 79.882812 87.546875 80.902344 83.480469 80.265625 82.972656 " fill-opacity="1" fill-rule="nonzero"/><path fill="#fec081" d="M 86.628906 81.574219 C 85.808594 81.144531 86.753906 84.117188 86.882812 85.898438 C 87.007812 87.675781 89.046875 82.847656 86.628906 81.574219 " fill-opacity="1" fill-rule="nonzero"/><path fill="#fec081" d="M 94.007812 85.007812 C 93.179688 84.683594 94.644531 87.929688 94.898438 90.089844 C 95.152344 92.253906 96.933594 86.152344 94.007812 85.007812 " fill-opacity="1" fill-rule="nonzero"/><path fill="#fec081" d="M 90.570312 85.515625 C 89.878906 85.167969 89.554688 89.074219 90.570312 89.457031 C 91.589844 89.835938 91.335938 85.898438 90.570312 85.515625 " fill-opacity="1" fill-rule="nonzero"/><path fill="#fec081" d="M 76.703125 87.675781 C 75.996094 86.617188 73.519531 89.074219 73.136719 90.726562 C 72.757812 92.378906 73.265625 92.886719 74.027344 91.617188 C 74.792969 90.34375 76.957031 88.058594 76.703125 87.675781 " fill-opacity="1" fill-rule="nonzero"/><path fill="#fec081" d="M 82.9375 87.804688 C 81.894531 87.0625 81.027344 91.617188 82.300781 91.742188 C 83.574219 91.871094 83.828125 88.4375 82.9375 87.804688 " fill-opacity="1" fill-rule="nonzero"/><path fill="#fec081" d="M 78.484375 92.253906 C 77.855469 92.148438 76.828125 96.574219 77.847656 96.828125 C 78.863281 97.082031 79.246094 92.378906 78.484375 92.253906 " fill-opacity="1" fill-rule="nonzero"/><path fill="#fec081" d="M 87.519531 92.378906 C 86.394531 92.128906 86.628906 97.464844 87.898438 97.082031 C 89.171875 96.699219 88.664062 92.632812 87.519531 92.378906 " fill-opacity="1" fill-rule="nonzero"/><path fill="#dd8776" d="M 28.9375 98.304688 C 28.9375 98.304688 32.945312 110.03125 39.242188 113.746094 C 45.542969 117.464844 71.597656 108.027344 75.320312 105.453125 C 79.042969 102.878906 93.070312 104.308594 93.929688 102.59375 C 94.789062 100.878906 82.191406 95.160156 79.042969 96.875 C 75.890625 98.589844 68.734375 100.878906 63.867188 101.164062 C 59 101.449219 50.410156 102.878906 45.828125 102.59375 C 41.246094 102.308594 38.957031 95.160156 38.957031 95.160156 L 28.9375 98.304688 " fill-opacity="1" fill-rule="nonzero"/><path fill="#dd8776" d="M 84.082031 51.578125 C 84.082031 51.578125 78.929688 52.339844 77.019531 53.863281 C 75.109375 55.390625 73.964844 57.867188 75.109375 57.296875 C 76.257812 56.722656 77.210938 55.390625 77.59375 56.535156 C 77.972656 57.679688 78.164062 59.394531 79.5 59.011719 C 80.835938 58.632812 82.554688 56.152344 82.554688 56.152344 C 82.554688 56.152344 81.601562 58.058594 82.9375 58.441406 C 84.273438 58.820312 85.035156 56.914062 85.035156 56.914062 L 85.609375 53.863281 L 84.082031 51.578125 " fill-opacity="1" fill-rule="nonzero"/><g clip-path="url(#ddf238f3f6)"><path fill="#ffffff" d="M 76.828125 105.152344 C 76.828125 105.152344 78.355469 101.339844 81.984375 101.722656 C 85.609375 102.101562 86.183594 104.773438 86.183594 104.773438 C 86.183594 104.773438 86.753906 102.867188 90 103.246094 C 93.246094 103.628906 93.246094 104.582031 93.246094 104.582031 C 93.246094 104.582031 92.863281 98.289062 96.871094 98.289062 C 100.878906 98.289062 101.644531 99.433594 101.644531 99.433594 C 101.644531 99.433594 98.207031 95.046875 99.925781 91.617188 C 101.644531 88.183594 103.742188 89.519531 103.742188 89.519531 C 103.742188 89.519531 103.363281 86.085938 106.988281 84.753906 C 110.617188 83.417969 116.914062 83.417969 118.632812 91.042969 C 120.351562 98.671875 113.480469 100.769531 113.480469 100.769531 C 113.480469 100.769531 116.914062 101.53125 115.769531 105.152344 C 114.625 108.777344 110.617188 108.96875 110.617188 108.96875 C 110.617188 108.96875 113.097656 111.445312 113.859375 114.113281 C 114.625 116.785156 113.667969 120.597656 109.660156 121.933594 C 105.652344 123.265625 104.507812 120.40625 104.507812 120.40625 C 104.507812 120.40625 102.214844 130.132812 94.960938 130.320312 C 87.710938 130.511719 87.328125 127.84375 87.328125 127.84375 C 87.328125 127.84375 87.136719 130.894531 85.800781 132.039062 C 84.464844 133.179688 82.554688 132.800781 82.554688 132.800781 C 82.554688 132.800781 83.316406 134.136719 82.171875 135.660156 C 81.027344 137.1875 79.691406 137.757812 79.691406 137.757812 C 79.691406 137.757812 83.316406 135.46875 85.609375 136.234375 C 87.898438 136.996094 89.234375 137.949219 89.234375 137.949219 C 89.234375 137.949219 89.046875 132.417969 93.625 132.039062 C 98.207031 131.65625 99.164062 133.179688 99.164062 133.179688 C 99.164062 133.179688 103.363281 129.558594 105.460938 131.65625 C 107.5625 133.753906 108.324219 135.28125 108.324219 135.28125 C 108.324219 135.28125 109.089844 132.230469 112.332031 131.847656 C 115.578125 131.464844 117.105469 132.800781 117.105469 132.800781 C 117.105469 132.800781 115.769531 127.652344 114.816406 125.175781 C 113.859375 122.695312 113.859375 122.695312 113.859375 122.695312 C 113.859375 122.695312 116.34375 115.640625 119.585938 116.402344 C 122.832031 117.167969 124.167969 119.644531 124.167969 119.644531 C 124.167969 119.644531 129.324219 116.402344 133.902344 119.835938 C 138.484375 123.265625 136.578125 130.320312 135.050781 133.179688 C 133.523438 136.042969 132.375 136.421875 132.375 136.421875 C 132.375 136.421875 136.386719 135.46875 136.957031 139.28125 C 137.53125 143.097656 134.667969 143.285156 134.667969 143.285156 L 67.09375 141.761719 C 67.09375 141.761719 62.320312 139.28125 64.230469 136.613281 C 66.136719 133.945312 67.855469 133.5625 67.855469 133.5625 C 67.855469 133.5625 61.75 132.417969 61.367188 125.363281 C 60.984375 118.308594 66.519531 117.355469 66.519531 117.355469 C 66.519531 117.355469 62.511719 115.832031 65.183594 112.78125 C 67.855469 109.730469 74.730469 111.066406 74.730469 111.066406 C 74.730469 111.066406 71.863281 107.632812 76.828125 105.152344 " fill-opacity="1" fill-rule="nonzero"/></g><path fill="#ffffff" d="M 87.863281 23.320312 C 85.96875 23.320312 84.429688 24.859375 84.429688 26.753906 C 84.429688 28.644531 85.96875 30.1875 87.863281 30.1875 C 89.761719 30.1875 91.300781 28.644531 91.300781 26.753906 C 91.300781 24.859375 89.761719 23.320312 87.863281 23.320312 Z M 87.863281 31.332031 C 85.339844 31.332031 83.285156 29.277344 83.285156 26.753906 C 83.285156 24.230469 85.339844 22.175781 87.863281 22.175781 C 90.390625 22.175781 92.449219 24.230469 92.449219 26.753906 C 92.449219 29.277344 90.390625 31.332031 87.863281 31.332031 " fill-opacity="1" fill-rule="nonzero"/><path fill="#ffffff" d="M 106.796875 50.625 C 106.378906 50.625 106.035156 50.964844 106.035156 51.386719 C 106.035156 51.804688 106.378906 52.148438 106.796875 52.148438 C 107.21875 52.148438 107.5625 51.804688 107.5625 51.386719 C 107.5625 50.964844 107.21875 50.625 106.796875 50.625 Z M 106.796875 53.292969 C 105.746094 53.292969 104.890625 52.4375 104.890625 51.386719 C 104.890625 50.335938 105.746094 49.480469 106.796875 49.480469 C 107.851562 49.480469 108.707031 50.335938 108.707031 51.386719 C 108.707031 52.4375 107.851562 53.292969 106.796875 53.292969 " fill-opacity="1" fill-rule="nonzero"/><path fill="#ffffff" d="M 109.46875 26.601562 C 106.734375 26.601562 104.507812 28.824219 104.507812 31.554688 C 104.507812 34.289062 106.734375 36.515625 109.46875 36.515625 C 112.207031 36.515625 114.433594 34.289062 114.433594 31.554688 C 114.433594 28.824219 112.207031 26.601562 109.46875 26.601562 Z M 109.46875 37.660156 C 106.101562 37.660156 103.363281 34.921875 103.363281 31.554688 C 103.363281 28.191406 106.101562 25.457031 109.46875 25.457031 C 112.839844 25.457031 115.578125 28.191406 115.578125 31.554688 C 115.578125 34.921875 112.839844 37.660156 109.46875 37.660156 " fill-opacity="1" fill-rule="nonzero"/><path fill="#ffffff" d="M 114.433594 68.925781 C 112.960938 68.925781 111.761719 70.125 111.761719 71.597656 C 111.761719 73.070312 112.960938 74.265625 114.433594 74.265625 C 115.90625 74.265625 117.105469 73.070312 117.105469 71.597656 C 117.105469 70.125 115.90625 68.925781 114.433594 68.925781 Z M 114.433594 75.410156 C 112.328125 75.410156 110.617188 73.699219 110.617188 71.597656 C 110.617188 69.492188 112.328125 67.78125 114.433594 67.78125 C 116.539062 67.78125 118.25 69.492188 118.25 71.597656 C 118.25 73.699219 116.539062 75.410156 114.433594 75.410156 " fill-opacity="1" fill-rule="nonzero"/><path fill="#ffffff" d="M 32.734375 46.808594 C 31.679688 46.808594 30.824219 47.664062 30.824219 48.714844 C 30.824219 49.769531 31.679688 50.621094 32.734375 50.621094 C 33.785156 50.621094 34.640625 49.769531 34.640625 48.714844 C 34.640625 47.664062 33.785156 46.808594 32.734375 46.808594 Z M 32.734375 51.769531 C 31.050781 51.769531 29.679688 50.398438 29.679688 48.714844 C 29.679688 47.035156 31.050781 45.667969 32.734375 45.667969 C 34.417969 45.667969 35.789062 47.035156 35.789062 48.714844 C 35.789062 50.398438 34.417969 51.769531 32.734375 51.769531 " fill-opacity="1" fill-rule="nonzero"/><path fill="#ffffff" d="M 21.28125 53.675781 C 19.386719 53.675781 17.84375 55.214844 17.84375 57.105469 C 17.84375 59 19.386719 60.539062 21.28125 60.539062 C 23.175781 60.539062 24.714844 59 24.714844 57.105469 C 24.714844 55.214844 23.175781 53.675781 21.28125 53.675781 Z M 21.28125 61.683594 C 18.753906 61.683594 16.699219 59.628906 16.699219 57.105469 C 16.699219 54.582031 18.753906 52.53125 21.28125 52.53125 C 23.804688 52.53125 25.863281 54.582031 25.863281 57.105469 C 25.863281 59.628906 23.804688 61.683594 21.28125 61.683594 " fill-opacity="1" fill-rule="nonzero"/><path fill="#ffffff" d="M 18.796875 111.636719 C 18.273438 111.636719 17.84375 112.0625 17.84375 112.589844 C 17.84375 113.117188 18.273438 113.542969 18.796875 113.542969 C 19.324219 113.542969 19.753906 113.117188 19.753906 112.589844 C 19.753906 112.0625 19.324219 111.636719 18.796875 111.636719 Z M 18.796875 114.6875 C 17.640625 114.6875 16.699219 113.746094 16.699219 112.589844 C 16.699219 111.433594 17.640625 110.492188 18.796875 110.492188 C 19.957031 110.492188 20.898438 111.433594 20.898438 112.589844 C 20.898438 113.746094 19.957031 114.6875 18.796875 114.6875 " fill-opacity="1" fill-rule="nonzero"/><path fill="#ffffff" d="M 126.078125 107.441406 C 124.5 107.441406 123.214844 108.726562 123.214844 110.300781 C 123.214844 111.878906 124.5 113.160156 126.078125 113.160156 C 127.65625 113.160156 128.941406 111.878906 128.941406 110.300781 C 128.941406 108.726562 127.65625 107.441406 126.078125 107.441406 Z M 126.078125 114.304688 C 123.867188 114.304688 122.070312 112.507812 122.070312 110.300781 C 122.070312 108.09375 123.867188 106.296875 126.078125 106.296875 C 128.289062 106.296875 130.085938 108.09375 130.085938 110.300781 C 130.085938 112.507812 128.289062 114.304688 126.078125 114.304688 " fill-opacity="1" fill-rule="nonzero"/><path fill="#ffffff" d="M 23 123.457031 C 21.628906 123.457031 20.515625 124.570312 20.515625 125.9375 C 20.515625 127.304688 21.628906 128.414062 23 128.414062 C 24.367188 128.414062 25.480469 127.304688 25.480469 125.9375 C 25.480469 124.570312 24.367188 123.457031 23 123.457031 Z M 23 129.558594 C 21 129.558594 19.371094 127.933594 19.371094 125.9375 C 19.371094 123.9375 21 122.3125 23 122.3125 C 24.996094 122.3125 26.625 123.9375 26.625 125.9375 C 26.625 127.933594 24.996094 129.558594 23 129.558594 " fill-opacity="1" fill-rule="nonzero"/><g clip-path="url(#99643df49c)"><path fill="#ffffff" d="M 14.40625 84.5625 C 13.566406 84.5625 12.882812 85.246094 12.882812 86.085938 C 12.882812 86.929688 13.566406 87.613281 14.40625 87.613281 C 15.25 87.613281 15.933594 86.929688 15.933594 86.085938 C 15.933594 85.246094 15.25 84.5625 14.40625 84.5625 Z M 14.40625 88.757812 C 12.933594 88.757812 11.734375 87.558594 11.734375 86.085938 C 11.734375 84.613281 12.933594 83.417969 14.40625 83.417969 C 15.882812 83.417969 17.082031 84.613281 17.082031 86.085938 C 17.082031 87.558594 15.882812 88.757812 14.40625 88.757812 " fill-opacity="1" fill-rule="nonzero"/></g><path fill="#ffffff" d="M 95.152344 9.820312 C 94.417969 9.820312 93.816406 10.417969 93.816406 11.15625 C 93.816406 11.890625 94.417969 12.488281 95.152344 12.488281 C 95.890625 12.488281 96.488281 11.890625 96.488281 11.15625 C 96.488281 10.417969 95.890625 9.820312 95.152344 9.820312 Z M 95.152344 13.632812 C 93.785156 13.632812 92.671875 12.523438 92.671875 11.15625 C 92.671875 9.789062 93.785156 8.675781 95.152344 8.675781 C 96.523438 8.675781 97.636719 9.789062 97.636719 11.15625 C 97.636719 12.523438 96.523438 13.632812 95.152344 13.632812 " fill-opacity="1" fill-rule="nonzero"/><path fill="#ffffff" d="M 80.074219 36.132812 C 79.652344 36.132812 79.308594 36.472656 79.308594 36.894531 C 79.308594 37.316406 79.652344 37.660156 80.074219 37.660156 C 80.496094 37.660156 80.835938 37.316406 80.835938 36.894531 C 80.835938 36.472656 80.496094 36.132812 80.074219 36.132812 Z M 80.074219 38.800781 C 79.019531 38.800781 78.164062 37.945312 78.164062 36.894531 C 78.164062 35.84375 79.019531 34.988281 80.074219 34.988281 C 81.125 34.988281 81.984375 35.84375 81.984375 36.894531 C 81.984375 37.945312 81.125 38.800781 80.074219 38.800781 " fill-opacity="1" fill-rule="nonzero"/></svg>