<svg xmlns="http://www.w3.org/2000/svg" xmlns:xlink="http://www.w3.org/1999/xlink" width="100" zoomAndPan="magnify" viewBox="0 0 75 74.999997" height="100" preserveAspectRatio="xMidYMid meet" version="1.0"><defs><clipPath id="bd819afc53"><path d="M 1.128906 0 L 72.378906 0 L 72.378906 75 L 1.128906 75 Z M 1.128906 0 " clip-rule="nonzero"/></clipPath></defs><g clip-path="url(#bd819afc53)"><path fill="#000000" d="M 54.035156 44.457031 C 54.695312 44.378906 55.308594 44.304688 55.921875 44.234375 C 56.179688 44.207031 56.4375 44.183594 56.699219 44.164062 C 57.472656 44.113281 58.246094 44.058594 59.019531 44.011719 C 59.648438 43.972656 60.277344 43.933594 60.90625 43.902344 C 61.402344 43.875 61.894531 43.851562 62.390625 43.832031 C 63.144531 43.800781 63.898438 43.773438 64.652344 43.742188 C 65.382812 43.707031 66.113281 43.667969 66.84375 43.628906 C 67.328125 43.601562 67.808594 43.574219 68.292969 43.539062 C 68.671875 43.511719 69.054688 43.464844 69.433594 43.429688 C 69.828125 43.394531 70.214844 43.339844 70.601562 43.273438 C 70.890625 43.222656 71.175781 43.152344 71.453125 43.058594 C 71.582031 43.019531 71.703125 42.960938 71.816406 42.886719 C 71.964844 42.773438 71.988281 42.65625 71.878906 42.511719 C 71.796875 42.402344 71.695312 42.3125 71.582031 42.238281 L 71.003906 41.828125 C 70.566406 41.53125 70.148438 41.207031 69.746094 40.863281 C 69.574219 40.714844 69.417969 40.554688 69.273438 40.378906 C 69.195312 40.285156 69.128906 40.179688 69.082031 40.0625 C 68.976562 39.792969 69.085938 39.570312 69.363281 39.488281 C 69.4375 39.46875 69.515625 39.453125 69.59375 39.441406 C 69.8125 39.414062 70.019531 39.457031 70.226562 39.496094 C 70.308594 39.523438 70.335938 39.578125 70.316406 39.660156 C 70.308594 39.726562 70.273438 39.761719 70.207031 39.769531 C 70.152344 39.773438 70.097656 39.773438 70.039062 39.765625 C 69.882812 39.757812 69.726562 39.753906 69.570312 39.761719 C 69.359375 39.777344 69.316406 39.875 69.421875 40.050781 C 69.574219 40.277344 69.757812 40.476562 69.96875 40.644531 C 70.335938 40.960938 70.71875 41.257812 71.117188 41.53125 C 71.339844 41.6875 71.5625 41.839844 71.78125 42 C 71.921875 42.09375 72.042969 42.210938 72.144531 42.351562 C 72.34375 42.640625 72.304688 42.90625 72.027344 43.117188 C 71.902344 43.210938 71.761719 43.285156 71.613281 43.335938 C 71.261719 43.460938 70.902344 43.546875 70.535156 43.601562 C 69.632812 43.742188 68.726562 43.824219 67.816406 43.882812 C 66.480469 43.972656 65.140625 44.035156 63.804688 44.082031 C 62.769531 44.121094 61.734375 44.171875 60.703125 44.222656 C 59.902344 44.261719 59.105469 44.304688 58.308594 44.359375 C 57.605469 44.40625 56.898438 44.480469 56.191406 44.535156 C 55.539062 44.585938 54.894531 44.671875 54.246094 44.753906 C 54.203125 44.757812 54.15625 44.761719 54.113281 44.769531 C 54.019531 44.78125 53.96875 44.835938 53.96875 44.929688 C 53.949219 45.140625 53.921875 45.351562 53.90625 45.570312 C 53.832031 46.476562 53.679688 47.378906 53.527344 48.277344 C 53.378906 49.152344 53.214844 50.027344 53.105469 50.910156 C 53.0625 51.277344 53.054688 51.648438 53.082031 52.023438 C 53.097656 52.191406 53.136719 52.355469 53.203125 52.515625 C 53.308594 52.800781 53.414062 53.085938 53.515625 53.371094 C 53.601562 53.59375 53.640625 53.824219 53.632812 54.066406 C 53.632812 54.359375 53.5 54.5625 53.230469 54.679688 C 53.046875 54.773438 52.851562 54.820312 52.644531 54.820312 C 52.339844 54.832031 52.035156 54.824219 51.734375 54.800781 C 51.40625 54.769531 51.082031 54.761719 50.753906 54.757812 C 50.238281 54.753906 49.753906 54.886719 49.3125 55.152344 C 48.980469 55.351562 48.675781 55.582031 48.394531 55.847656 C 47.816406 56.378906 47.308594 56.972656 46.875 57.632812 C 46.25 58.566406 45.679688 59.539062 45.144531 60.527344 C 44.015625 62.605469 42.972656 64.722656 42.046875 66.902344 C 41.9375 67.160156 41.84375 67.425781 41.742188 67.6875 C 41.722656 67.742188 41.707031 67.796875 41.683594 67.847656 C 41.523438 68.226562 41.226562 68.351562 40.835938 68.21875 C 40.675781 68.164062 40.53125 68.082031 40.394531 67.980469 C 40.058594 67.726562 39.777344 67.425781 39.542969 67.074219 C 39.230469 66.628906 38.996094 66.144531 38.839844 65.625 C 38.808594 65.515625 38.773438 65.410156 38.726562 65.304688 C 38.652344 65.136719 38.535156 65.105469 38.371094 65.203125 C 38.25 65.285156 38.140625 65.378906 38.042969 65.492188 C 37.851562 65.699219 37.679688 65.917969 37.515625 66.148438 C 37.144531 66.675781 36.816406 67.226562 36.476562 67.769531 C 36.40625 67.882812 36.332031 67.996094 36.265625 68.117188 C 35.707031 69.105469 34.984375 69.964844 34.1875 70.765625 C 33.023438 71.945312 31.800781 73.0625 30.519531 74.113281 C 30.238281 74.339844 29.941406 74.542969 29.660156 74.765625 C 29.355469 75.003906 29.0625 74.96875 28.757812 74.769531 C 28.570312 74.644531 28.398438 74.5 28.238281 74.339844 C 27.753906 73.867188 27.34375 73.332031 26.945312 72.785156 C 26 71.476562 25.175781 70.097656 24.386719 68.691406 C 23.460938 67.042969 22.628906 65.34375 21.808594 63.644531 C 21.535156 63.074219 21.246094 62.515625 20.929688 61.96875 C 20.832031 61.78125 20.714844 61.605469 20.578125 61.445312 C 20.484375 61.5 20.515625 61.574219 20.523438 61.632812 C 20.570312 61.988281 20.617188 62.347656 20.679688 62.699219 C 20.835938 63.527344 21 64.355469 21.164062 65.183594 C 21.195312 65.351562 21.207031 65.519531 21.195312 65.6875 C 21.167969 66.011719 20.953125 66.167969 20.632812 66.09375 C 20.492188 66.054688 20.359375 65.996094 20.234375 65.910156 C 19.988281 65.753906 19.761719 65.570312 19.546875 65.371094 C 18.902344 64.769531 18.308594 64.125 17.761719 63.4375 C 16.464844 61.832031 15.304688 60.132812 14.28125 58.339844 C 13.261719 56.546875 12.53125 54.644531 12.089844 52.632812 C 11.835938 51.511719 11.632812 50.382812 11.464844 49.25 C 11.308594 48.167969 11.183594 47.082031 11.089844 45.996094 C 11.015625 45.15625 10.972656 44.3125 10.921875 43.46875 C 10.847656 42.289062 10.8125 41.105469 10.816406 39.921875 C 10.816406 39.53125 10.839844 39.136719 10.851562 38.742188 C 10.859375 38.449219 10.867188 38.15625 10.871094 37.863281 C 10.875 37.703125 10.851562 37.550781 10.800781 37.398438 C 10.722656 37.109375 10.539062 36.929688 10.246094 36.863281 C 10.070312 36.8125 9.894531 36.785156 9.710938 36.785156 C 9.410156 36.785156 9.105469 36.792969 8.800781 36.820312 C 7.578125 36.921875 6.351562 36.988281 5.125 36.90625 C 4.597656 36.871094 4.074219 36.796875 3.550781 36.738281 C 3.101562 36.691406 2.660156 36.617188 2.222656 36.507812 C 2.046875 36.46875 1.878906 36.40625 1.71875 36.320312 C 1.371094 36.125 1.304688 35.867188 1.523438 35.53125 C 1.589844 35.429688 1.667969 35.332031 1.75 35.242188 C 1.882812 35.101562 2.019531 34.972656 2.152344 34.835938 C 2.222656 34.765625 2.296875 34.695312 2.367188 34.613281 C 2.644531 34.277344 2.613281 34.023438 2.261719 33.757812 C 2.039062 33.597656 1.796875 33.480469 1.535156 33.398438 C 1.441406 33.367188 1.34375 33.335938 1.25 33.296875 C 1.175781 33.261719 1.152344 33.203125 1.179688 33.125 C 1.207031 33.054688 1.257812 33.019531 1.335938 33.015625 C 1.347656 33.015625 1.359375 33.019531 1.371094 33.019531 C 1.792969 33.144531 2.203125 33.292969 2.546875 33.585938 C 2.578125 33.613281 2.613281 33.644531 2.640625 33.679688 C 2.898438 33.960938 2.933594 34.28125 2.75 34.613281 C 2.671875 34.738281 2.582031 34.851562 2.476562 34.953125 C 2.300781 35.128906 2.125 35.304688 1.953125 35.480469 C 1.863281 35.570312 1.792969 35.667969 1.742188 35.785156 C 1.699219 35.871094 1.71875 35.941406 1.796875 35.996094 C 1.90625 36.074219 2.027344 36.132812 2.164062 36.160156 C 2.496094 36.261719 2.839844 36.332031 3.183594 36.371094 C 3.71875 36.441406 4.253906 36.519531 4.792969 36.5625 C 5.578125 36.625 6.363281 36.671875 7.152344 36.609375 C 7.882812 36.550781 8.613281 36.515625 9.34375 36.46875 C 9.625 36.453125 9.90625 36.46875 10.1875 36.519531 C 10.71875 36.609375 11.035156 36.933594 11.152344 37.472656 C 11.207031 37.773438 11.21875 38.074219 11.1875 38.378906 C 11.113281 39.5625 11.132812 40.742188 11.171875 41.925781 C 11.195312 42.703125 11.234375 43.476562 11.28125 44.253906 C 11.339844 45.195312 11.410156 46.140625 11.523438 47.078125 C 11.601562 47.703125 11.664062 48.332031 11.75 48.957031 C 12.046875 51.0625 12.445312 53.152344 13.15625 55.164062 C 13.488281 56.078125 13.890625 56.957031 14.363281 57.800781 C 15.539062 59.953125 16.921875 61.960938 18.515625 63.824219 C 18.957031 64.355469 19.4375 64.84375 19.953125 65.296875 C 20.105469 65.433594 20.269531 65.550781 20.441406 65.65625 C 20.519531 65.703125 20.601562 65.742188 20.683594 65.773438 C 20.8125 65.8125 20.890625 65.761719 20.886719 65.636719 C 20.890625 65.476562 20.875 65.320312 20.851562 65.164062 C 20.691406 64.324219 20.523438 63.488281 20.363281 62.648438 C 20.304688 62.328125 20.257812 62.003906 20.21875 61.679688 C 20.1875 61.511719 20.191406 61.34375 20.230469 61.175781 C 20.292969 60.964844 20.472656 60.90625 20.652344 61.042969 C 20.777344 61.144531 20.878906 61.261719 20.960938 61.398438 C 21.207031 61.773438 21.429688 62.164062 21.628906 62.570312 C 21.996094 63.292969 22.355469 64.019531 22.707031 64.746094 C 23.640625 66.660156 24.628906 68.542969 25.738281 70.359375 C 26.414062 71.464844 27.117188 72.550781 27.949219 73.546875 C 28.183594 73.835938 28.441406 74.105469 28.722656 74.347656 C 28.835938 74.441406 28.960938 74.519531 29.089844 74.585938 C 29.1875 74.640625 29.285156 74.636719 29.378906 74.574219 C 29.546875 74.460938 29.71875 74.351562 29.878906 74.230469 C 30.597656 73.683594 31.273438 73.089844 31.941406 72.488281 C 32.914062 71.621094 33.84375 70.707031 34.71875 69.742188 C 35.074219 69.347656 35.394531 68.925781 35.671875 68.472656 C 36.027344 67.898438 36.382812 67.324219 36.742188 66.753906 C 36.988281 66.347656 37.257812 65.960938 37.550781 65.585938 C 37.675781 65.429688 37.816406 65.28125 37.953125 65.136719 C 38.058594 65.027344 38.175781 64.945312 38.3125 64.882812 C 38.574219 64.765625 38.796875 64.828125 38.957031 65.066406 C 39.058594 65.21875 39.097656 65.394531 39.152344 65.566406 C 39.328125 66.144531 39.605469 66.667969 39.984375 67.136719 C 40.1875 67.410156 40.433594 67.636719 40.722656 67.820312 C 40.828125 67.890625 40.941406 67.933594 41.066406 67.945312 C 41.210938 67.96875 41.3125 67.914062 41.371094 67.78125 C 41.390625 67.742188 41.40625 67.699219 41.421875 67.65625 C 41.738281 66.753906 42.136719 65.882812 42.539062 65.015625 C 43.488281 62.964844 44.507812 60.945312 45.652344 58.992188 C 46.054688 58.300781 46.480469 57.625 46.953125 56.976562 C 47.449219 56.300781 48.023438 55.703125 48.683594 55.1875 C 49.476562 54.5625 50.378906 54.328125 51.375 54.449219 C 51.789062 54.488281 52.207031 54.503906 52.621094 54.492188 C 52.757812 54.492188 52.890625 54.46875 53.019531 54.421875 C 53.25 54.332031 53.34375 54.203125 53.324219 53.957031 C 53.3125 53.820312 53.289062 53.691406 53.25 53.558594 C 53.179688 53.320312 53.097656 53.089844 53 52.859375 C 52.734375 52.277344 52.71875 51.664062 52.78125 51.039062 C 52.871094 50.15625 53.035156 49.28125 53.1875 48.40625 C 53.359375 47.40625 53.511719 46.40625 53.617188 45.398438 C 53.621094 45.34375 53.625 45.285156 53.628906 45.230469 C 53.652344 44.792969 53.683594 44.828125 53.269531 44.898438 C 52.613281 45.003906 51.96875 45.152344 51.335938 45.355469 C 51.109375 45.429688 50.890625 45.511719 50.671875 45.597656 C 50.269531 45.761719 49.914062 45.996094 49.601562 46.296875 C 48.957031 46.925781 48.378906 47.617188 47.871094 48.363281 C 47.230469 49.304688 46.644531 50.277344 46.121094 51.289062 C 45.21875 52.988281 44.433594 54.742188 43.628906 56.492188 C 43.257812 57.300781 42.894531 58.113281 42.46875 58.890625 C 42.007812 59.710938 41.46875 60.46875 40.839844 61.167969 C 40.691406 61.339844 40.527344 61.492188 40.347656 61.625 C 39.855469 61.972656 39.453125 61.820312 39.328125 61.230469 C 39.273438 60.984375 39.246094 60.742188 39.246094 60.492188 C 39.257812 60.132812 39.234375 59.773438 39.171875 59.417969 C 39.109375 59.070312 38.996094 58.742188 38.835938 58.429688 C 38.742188 58.246094 38.613281 58.089844 38.453125 57.964844 C 38.347656 57.882812 38.226562 57.839844 38.09375 57.835938 C 37.960938 57.835938 37.839844 57.878906 37.734375 57.960938 C 37.605469 58.054688 37.5 58.171875 37.417969 58.308594 C 36.539062 59.742188 35.445312 61.023438 34.433594 62.359375 C 33.550781 63.523438 32.671875 64.691406 31.851562 65.90625 C 31.75 66.054688 31.644531 66.203125 31.535156 66.34375 C 31.402344 66.527344 31.238281 66.683594 31.050781 66.8125 C 30.617188 67.101562 30.195312 67.097656 29.761719 66.796875 C 29.597656 66.679688 29.449219 66.539062 29.324219 66.382812 C 29.105469 66.109375 28.914062 65.816406 28.757812 65.503906 C 28.382812 64.769531 28.074219 64.011719 27.832031 63.222656 C 27.296875 61.574219 26.898438 59.890625 26.539062 58.195312 C 26.402344 57.546875 26.273438 56.894531 26.175781 56.238281 C 25.996094 55.066406 25.941406 53.886719 26.015625 52.703125 C 26.046875 52.195312 26.125 51.695312 26.246094 51.203125 C 26.324219 50.886719 26.433594 50.578125 26.570312 50.28125 C 26.59375 50.234375 26.613281 50.183594 26.632812 50.132812 C 26.558594 50.074219 26.476562 50.035156 26.382812 50.019531 C 25.777344 49.847656 25.191406 49.625 24.625 49.347656 C 24.246094 49.167969 23.898438 48.941406 23.574219 48.679688 C 23.425781 48.554688 23.292969 48.417969 23.167969 48.273438 C 22.910156 47.960938 22.753906 47.605469 22.703125 47.203125 C 22.613281 46.535156 22.519531 45.867188 22.421875 45.199219 C 22.328125 44.550781 22.160156 43.917969 21.855469 43.335938 C 21.175781 42.035156 20.632812 40.675781 20.097656 39.316406 C 19.164062 36.953125 18.292969 34.566406 17.542969 32.136719 C 17.226562 31.113281 16.933594 30.089844 16.71875 29.039062 C 16.613281 28.519531 16.539062 27.996094 16.480469 27.46875 C 16.417969 26.890625 16.359375 26.308594 16.304688 25.722656 C 16.269531 25.367188 16.25 25.003906 16.222656 24.644531 C 16.171875 24.007812 16.128906 23.367188 16.070312 22.726562 C 16.039062 22.332031 15.972656 21.945312 15.875 21.5625 C 15.839844 21.433594 15.792969 21.308594 15.742188 21.183594 C 15.707031 21.097656 15.65625 21.023438 15.585938 20.964844 C 15.535156 20.910156 15.472656 20.890625 15.398438 20.902344 C 15.328125 20.914062 15.277344 20.953125 15.246094 21.019531 C 15.179688 21.140625 15.144531 21.269531 15.128906 21.40625 C 15.089844 21.675781 15.074219 21.945312 15.082031 22.214844 C 15.101562 22.664062 15.121094 23.117188 15.15625 23.5625 C 15.226562 24.460938 15.296875 25.359375 15.339844 26.257812 C 15.398438 27.441406 15.429688 28.621094 15.386719 29.804688 C 15.351562 30.726562 15.273438 31.648438 15.058594 32.550781 C 14.96875 32.949219 14.832031 33.328125 14.65625 33.695312 C 14.476562 34.066406 14.21875 34.375 13.882812 34.617188 C 13.480469 34.90625 13.0625 35.167969 12.59375 35.339844 C 12.339844 35.441406 12.078125 35.492188 11.804688 35.496094 C 11.238281 35.484375 10.871094 35.15625 10.792969 34.605469 C 10.761719 34.324219 10.769531 34.042969 10.824219 33.765625 C 10.894531 33.308594 10.96875 32.851562 11.042969 32.398438 C 11.074219 32.164062 11.082031 31.925781 11.066406 31.691406 C 11.058594 31.601562 11.042969 31.511719 11.023438 31.425781 C 10.976562 31.15625 10.828125 30.972656 10.578125 30.867188 C 9.957031 30.585938 9.398438 30.214844 8.851562 29.816406 C 7.484375 28.828125 6.253906 27.691406 5.25 26.332031 C 4.539062 25.375 3.972656 24.339844 3.671875 23.179688 C 3.503906 22.515625 3.375 21.84375 3.238281 21.167969 C 3.117188 20.5625 3.03125 19.949219 2.988281 19.328125 C 2.96875 18.992188 2.988281 18.65625 3.050781 18.320312 C 3.160156 17.742188 3.433594 17.265625 3.878906 16.882812 C 4.195312 16.609375 4.539062 16.375 4.910156 16.183594 C 5.476562 15.878906 6.046875 15.589844 6.613281 15.289062 C 7.8125 14.65625 8.972656 13.976562 10.070312 13.183594 C 11.636719 12.050781 12.992188 10.722656 14.03125 9.078125 C 14.34375 8.585938 14.679688 8.101562 15.015625 7.625 C 15.5625 6.835938 16.160156 6.09375 16.816406 5.394531 C 17.109375 5.078125 17.425781 4.792969 17.769531 4.535156 C 18.089844 4.300781 18.429688 4.105469 18.828125 4.042969 C 18.976562 4.011719 19.121094 4.023438 19.261719 4.078125 C 19.414062 4.132812 19.5 4.242188 19.519531 4.402344 C 19.542969 4.585938 19.527344 4.761719 19.476562 4.9375 C 19.394531 5.230469 19.289062 5.515625 19.15625 5.789062 C 18.816406 6.511719 18.472656 7.230469 18.121094 7.945312 C 17.566406 9.078125 17.023438 10.214844 16.578125 11.394531 C 16.148438 12.5 15.8125 13.628906 15.570312 14.789062 C 15.453125 15.339844 15.382812 15.898438 15.359375 16.460938 C 15.339844 16.8125 15.367188 17.160156 15.441406 17.503906 C 15.453125 17.546875 15.460938 17.589844 15.476562 17.632812 C 15.625 18.101562 15.828125 18.238281 16.324219 18.214844 C 16.6875 18.199219 16.996094 18.046875 17.28125 17.835938 C 17.625 17.570312 17.898438 17.246094 18.101562 16.859375 C 18.371094 16.359375 18.546875 15.828125 18.632812 15.269531 C 18.675781 15.027344 18.703125 14.78125 18.742188 14.546875 C 18.652344 14.472656 18.605469 14.550781 18.554688 14.578125 C 18.246094 14.753906 17.917969 14.867188 17.570312 14.921875 C 17.109375 14.984375 16.644531 14.757812 16.519531 14.242188 C 16.449219 13.917969 16.445312 13.59375 16.503906 13.269531 C 16.585938 12.765625 16.71875 12.28125 16.902344 11.804688 C 17.320312 10.6875 17.816406 9.601562 18.390625 8.554688 C 19.167969 7.101562 20.070312 5.734375 21.101562 4.449219 C 21.878906 3.492188 22.726562 2.609375 23.710938 1.863281 C 24.828125 1.027344 26.070312 0.480469 27.441406 0.222656 C 28.320312 0.0507812 29.207031 0 30.097656 0.0703125 C 30.976562 0.140625 31.839844 0.269531 32.703125 0.414062 C 33.457031 0.535156 34.210938 0.664062 34.96875 0.75 C 35.652344 0.828125 36.335938 0.863281 37.023438 0.898438 C 37.808594 0.9375 38.597656 0.941406 39.386719 0.984375 C 40.261719 1.027344 41.136719 1.09375 42.003906 1.246094 C 44.253906 1.648438 46.097656 2.75 47.558594 4.503906 C 48.273438 5.367188 48.824219 6.335938 49.296875 7.347656 C 49.804688 8.453125 50.238281 9.585938 50.59375 10.75 C 51.027344 12.125 51.433594 13.503906 51.757812 14.90625 C 52.007812 15.949219 52.167969 17.007812 52.246094 18.074219 C 52.265625 18.332031 52.261719 18.59375 52.265625 18.851562 C 52.265625 18.960938 52.265625 19.074219 52.265625 19.1875 C 52.359375 19.179688 52.363281 19.113281 52.375 19.066406 C 52.429688 18.859375 52.460938 18.648438 52.472656 18.433594 C 52.488281 17.8125 52.453125 17.195312 52.371094 16.578125 C 52.21875 15.269531 51.878906 13.996094 51.5625 12.71875 C 51.289062 11.605469 50.992188 10.496094 50.753906 9.371094 C 50.628906 8.789062 50.511719 8.203125 50.515625 7.601562 C 50.515625 7.433594 50.535156 7.265625 50.578125 7.101562 C 50.585938 7.070312 50.589844 7.035156 50.601562 7.003906 C 50.730469 6.636719 51.035156 6.484375 51.410156 6.609375 C 51.558594 6.664062 51.699219 6.734375 51.832031 6.824219 C 52.0625 6.984375 52.28125 7.164062 52.480469 7.363281 C 52.792969 7.671875 53.089844 7.996094 53.371094 8.335938 C 54.496094 9.671875 55.609375 11.007812 56.75 12.335938 C 58.234375 14.070312 59.753906 15.78125 61.375 17.394531 C 62.253906 18.269531 63.183594 19.085938 64.113281 19.902344 C 64.675781 20.402344 65.25 20.898438 65.742188 21.472656 C 66.1875 21.992188 66.546875 22.554688 66.75 23.214844 C 66.949219 23.832031 67.007812 24.46875 66.933594 25.113281 C 66.871094 25.578125 66.71875 26.007812 66.472656 26.410156 C 66.195312 26.863281 65.859375 27.273438 65.472656 27.640625 C 64.878906 28.226562 64.226562 28.746094 63.574219 29.265625 C 62.726562 29.9375 61.871094 30.601562 61.054688 31.304688 C 60.089844 32.140625 59.175781 33.019531 58.375 34.015625 C 57.722656 34.828125 57.171875 35.699219 56.71875 36.636719 C 56.492188 37.101562 56.277344 37.574219 56.050781 38.039062 C 55.949219 38.25 55.839844 38.460938 55.71875 38.664062 C 55.503906 39.046875 55.179688 39.234375 54.742188 39.226562 C 54.019531 39.234375 53.300781 39.210938 52.597656 39.019531 C 51.96875 38.855469 51.449219 38.515625 51.046875 38 C 50.839844 37.746094 50.664062 37.472656 50.519531 37.179688 C 50.0625 36.257812 49.71875 35.296875 49.496094 34.292969 C 49.304688 33.417969 49.285156 32.53125 49.335938 31.636719 C 49.457031 29.605469 49.886719 27.628906 50.414062 25.667969 C 50.699219 24.605469 51.035156 23.558594 51.359375 22.5 C 51.578125 21.777344 51.742188 21.042969 51.851562 20.296875 C 51.855469 20.273438 51.859375 20.25 51.859375 20.226562 C 51.890625 19.910156 51.894531 19.914062 51.605469 19.890625 C 51.320312 19.867188 51.0625 19.75 50.8125 19.617188 C 50.328125 19.363281 49.84375 19.09375 49.355469 18.839844 C 49 18.644531 48.625 18.492188 48.234375 18.382812 C 47.972656 18.308594 47.707031 18.265625 47.4375 18.257812 C 47 18.246094 46.558594 18.265625 46.125 18.308594 C 45.132812 18.410156 44.148438 18.378906 43.183594 18.082031 C 41.964844 17.707031 40.984375 17.019531 40.296875 15.933594 C 40.207031 15.792969 40.203125 15.785156 40.03125 15.828125 C 39.59375 15.9375 39.160156 15.914062 38.726562 15.828125 C 38.582031 15.796875 38.445312 15.746094 38.316406 15.671875 C 38.035156 15.515625 37.746094 15.355469 37.46875 15.1875 C 36.636719 14.695312 35.796875 14.21875 34.894531 13.851562 C 34.164062 13.550781 33.410156 13.339844 32.628906 13.214844 C 31.890625 13.109375 31.152344 13.097656 30.410156 13.183594 C 27.648438 13.5 24.496094 15.265625 23.027344 18.96875 C 22.875 19.359375 22.746094 19.753906 22.644531 20.160156 C 22.617188 20.222656 22.617188 20.289062 22.640625 20.351562 C 22.71875 20.367188 22.769531 20.3125 22.824219 20.277344 C 24.34375 19.289062 26.003906 18.671875 27.777344 18.324219 C 28.675781 18.148438 29.585938 18.089844 30.5 18.148438 C 31.464844 18.203125 32.382812 18.441406 33.253906 18.871094 C 33.789062 19.136719 34.273438 19.484375 34.703125 19.90625 C 35.183594 20.367188 35.605469 20.878906 35.972656 21.433594 C 36.292969 21.902344 36.515625 22.417969 36.644531 22.96875 C 36.777344 23.570312 36.726562 24.15625 36.488281 24.722656 C 36.21875 25.359375 35.730469 25.695312 35.0625 25.753906 C 34.3125 25.816406 33.644531 25.574219 33.058594 25.101562 C 32.726562 24.835938 32.566406 24.46875 32.496094 24.058594 C 32.472656 23.914062 32.449219 23.769531 32.425781 23.625 C 32.417969 23.570312 32.402344 23.515625 32.386719 23.460938 C 32.367188 23.351562 32.300781 23.300781 32.191406 23.308594 C 31.792969 23.300781 31.46875 23.453125 31.21875 23.765625 C 30.90625 24.152344 30.761719 25.164062 31.035156 25.671875 C 31.167969 25.925781 31.355469 26.132812 31.597656 26.289062 C 31.929688 26.511719 32.296875 26.632812 32.695312 26.65625 C 33.070312 26.679688 33.4375 26.636719 33.792969 26.523438 C 34.210938 26.378906 34.632812 26.273438 35.066406 26.203125 C 35.292969 26.160156 35.515625 26.167969 35.734375 26.230469 C 35.871094 26.265625 35.984375 26.335938 36.070312 26.445312 C 36.160156 26.550781 36.207031 26.675781 36.214844 26.816406 C 36.25 27.109375 36.179688 27.375 36 27.609375 C 35.835938 27.828125 35.640625 28.015625 35.417969 28.171875 C 35.078125 28.410156 34.71875 28.621094 34.339844 28.800781 C 34.140625 28.902344 33.9375 29 33.730469 29.089844 C 33.003906 29.414062 32.292969 29.78125 31.605469 30.1875 C 31.207031 30.417969 30.800781 30.640625 30.394531 30.855469 C 30.125 30.996094 29.84375 31.105469 29.550781 31.183594 C 28.910156 31.351562 28.324219 31.246094 27.800781 30.835938 C 27.585938 30.671875 27.390625 30.484375 27.210938 30.28125 C 27.007812 30.054688 26.804688 29.828125 26.605469 29.597656 C 26.367188 29.324219 26.089844 29.097656 25.769531 28.925781 C 25.441406 28.75 25.117188 28.574219 24.789062 28.398438 C 24.472656 28.226562 24.164062 28.035156 23.875 27.824219 C 23.351562 27.4375 23.03125 26.925781 22.914062 26.285156 C 22.886719 26.152344 22.878906 26.019531 22.894531 25.882812 C 22.914062 25.671875 23.023438 25.546875 23.226562 25.5 C 23.371094 25.460938 23.515625 25.445312 23.660156 25.460938 C 23.988281 25.492188 24.3125 25.515625 24.636719 25.539062 C 25.355469 25.589844 25.964844 25.328125 26.476562 24.847656 C 26.9375 24.417969 27.085938 23.609375 26.839844 23.03125 C 26.707031 22.71875 26.488281 22.515625 26.132812 22.488281 C 25.894531 22.457031 25.710938 22.542969 25.578125 22.742188 C 25.46875 22.914062 25.386719 23.097656 25.332031 23.292969 C 25.253906 23.542969 25.195312 23.792969 25.121094 24.039062 C 25.0625 24.234375 24.992188 24.425781 24.917969 24.613281 C 24.863281 24.726562 24.804688 24.832031 24.738281 24.9375 C 24.480469 25.355469 24.03125 25.382812 23.679688 25.179688 C 23.4375 25.03125 23.230469 24.84375 23.058594 24.613281 C 22.742188 24.183594 22.507812 23.714844 22.355469 23.199219 C 22.179688 22.648438 22.105469 22.082031 22.132812 21.5 C 22.132812 21.429688 22.140625 21.367188 22.140625 21.296875 C 22.140625 21.273438 22.132812 21.253906 22.113281 21.242188 C 22.089844 21.230469 22.070312 21.230469 22.050781 21.242188 C 22.019531 21.261719 21.992188 21.28125 21.96875 21.304688 C 20.503906 22.535156 19.425781 24.027344 18.871094 25.878906 C 18.578125 26.851562 18.492188 27.84375 18.609375 28.851562 C 18.878906 31.160156 19.542969 33.359375 20.539062 35.453125 C 20.773438 35.957031 21.054688 36.429688 21.382812 36.875 C 21.511719 37.046875 21.652344 37.210938 21.792969 37.367188 C 21.929688 37.519531 22.085938 37.648438 22.257812 37.757812 C 22.589844 37.96875 22.921875 37.988281 23.269531 37.777344 C 23.753906 37.476562 24.175781 37.113281 24.539062 36.679688 C 24.828125 36.335938 25.109375 35.984375 25.386719 35.628906 C 25.707031 35.222656 26.027344 34.8125 26.402344 34.453125 C 26.585938 34.269531 26.789062 34.113281 27.011719 33.980469 C 27.742188 33.5625 28.480469 33.527344 29.226562 33.9375 C 29.515625 34.097656 29.78125 34.285156 30.027344 34.5 C 30.414062 34.832031 30.777344 35.179688 31.128906 35.550781 C 31.652344 36.089844 32.175781 36.636719 32.707031 37.167969 C 33.113281 37.578125 33.550781 37.949219 34.019531 38.28125 C 34.523438 38.632812 35.054688 38.914062 35.660156 39.042969 C 35.824219 39.078125 35.992188 39.101562 36.160156 39.117188 C 36.984375 39.191406 37.800781 39.175781 38.601562 38.9375 C 39.363281 38.707031 40.011719 38.300781 40.550781 37.714844 C 40.785156 37.457031 41.003906 37.183594 41.207031 36.902344 C 41.429688 36.601562 41.65625 36.308594 41.886719 36.015625 C 42.003906 35.863281 42.144531 35.738281 42.316406 35.640625 C 42.558594 35.511719 42.761719 35.605469 42.816406 35.878906 C 42.851562 36.117188 42.847656 36.351562 42.804688 36.585938 C 42.75 36.960938 42.683594 37.339844 42.617188 37.714844 C 42.496094 38.429688 42.136719 38.992188 41.539062 39.40625 C 41.351562 39.546875 41.152344 39.671875 40.945312 39.789062 C 40.128906 40.230469 39.273438 40.5625 38.371094 40.78125 C 38.046875 40.859375 37.714844 40.9375 37.371094 40.839844 C 37.273438 40.8125 37.195312 40.839844 37.128906 40.917969 C 37.066406 40.980469 37.003906 41.046875 36.941406 41.113281 C 36.777344 41.285156 36.621094 41.457031 36.453125 41.625 C 36.230469 41.871094 35.964844 42.054688 35.660156 42.183594 C 35.199219 42.355469 34.890625 42.675781 34.664062 43.097656 C 34.507812 43.386719 34.335938 43.660156 34.167969 43.941406 C 33.996094 44.226562 33.8125 44.46875 33.515625 44.613281 C 33.449219 44.65625 33.394531 44.710938 33.359375 44.785156 C 33.078125 45.226562 32.667969 45.4375 32.160156 45.503906 C 31.601562 45.574219 31.039062 45.617188 30.476562 45.632812 C 29.621094 45.652344 28.765625 45.613281 27.914062 45.554688 C 27.203125 45.515625 26.5 45.429688 25.800781 45.292969 C 25.324219 45.195312 24.875 45.027344 24.445312 44.796875 C 24.140625 44.636719 23.890625 44.414062 23.6875 44.136719 C 23.65625 44.09375 23.617188 44.050781 23.582031 44.007812 C 23.574219 44 23.5625 44 23.546875 43.996094 C 23.476562 44.027344 23.503906 44.089844 23.511719 44.136719 C 23.550781 44.371094 23.59375 44.601562 23.640625 44.832031 C 23.722656 45.21875 23.902344 45.550781 24.179688 45.828125 C 24.589844 46.253906 25.0625 46.59375 25.59375 46.855469 C 26.4375 47.277344 27.324219 47.546875 28.257812 47.667969 C 28.859375 47.75 29.464844 47.792969 30.074219 47.789062 C 30.738281 47.789062 31.394531 47.714844 32.042969 47.5625 C 32.851562 47.359375 33.582031 47 34.234375 46.484375 C 34.613281 46.183594 34.976562 45.863281 35.320312 45.523438 C 36.523438 44.351562 37.777344 43.238281 39.082031 42.183594 C 39.40625 41.917969 39.738281 41.671875 40.066406 41.417969 C 40.273438 41.253906 40.503906 41.140625 40.757812 41.078125 C 40.925781 41.03125 41.089844 41.03125 41.257812 41.078125 C 41.726562 41.210938 41.933594 41.625 41.761719 42.082031 C 41.675781 42.296875 41.542969 42.476562 41.371094 42.625 C 40.988281 42.980469 40.609375 43.332031 40.214844 43.667969 C 39.5625 44.238281 38.878906 44.769531 38.160156 45.253906 C 37.859375 45.453125 37.550781 45.636719 37.242188 45.824219 C 36.90625 46.011719 36.59375 46.230469 36.300781 46.476562 C 36.019531 46.722656 35.820312 47.007812 35.753906 47.382812 C 35.699219 47.703125 35.519531 47.964844 35.300781 48.195312 C 34.921875 48.597656 34.453125 48.863281 33.949219 49.070312 C 33.308594 49.320312 32.644531 49.484375 31.957031 49.550781 C 31.421875 49.613281 30.886719 49.683594 30.347656 49.730469 C 29.675781 49.789062 29 49.832031 28.328125 49.875 C 28.082031 49.890625 27.832031 49.882812 27.585938 49.84375 C 27.519531 49.835938 27.453125 49.835938 27.386719 49.84375 C 27.34375 49.84375 27.324219 49.867188 27.324219 49.910156 C 27.328125 49.929688 27.34375 49.941406 27.359375 49.953125 C 27.382812 49.960938 27.402344 49.964844 27.425781 49.96875 C 28.140625 50.121094 28.859375 50.242188 29.585938 50.320312 C 29.992188 50.363281 30.394531 50.382812 30.800781 50.40625 C 32.464844 50.507812 34.074219 50.277344 35.613281 49.617188 C 36.332031 49.304688 36.992188 48.902344 37.601562 48.410156 C 38.390625 47.785156 39.089844 47.066406 39.769531 46.332031 C 41.910156 44.023438 43.867188 41.570312 45.648438 38.976562 C 46.304688 38.019531 46.941406 37.050781 47.523438 36.046875 C 47.78125 35.613281 48.015625 35.160156 48.21875 34.699219 C 48.261719 34.59375 48.3125 34.492188 48.375 34.398438 C 48.53125 34.179688 48.75 34.1875 48.890625 34.417969 C 48.957031 34.535156 49.003906 34.664062 49.035156 34.796875 C 49.128906 35.164062 49.195312 35.542969 49.234375 35.921875 C 49.324219 36.714844 49.398438 37.511719 49.5 38.304688 C 49.589844 39.03125 49.96875 39.582031 50.589844 39.964844 C 51 40.207031 51.445312 40.363281 51.917969 40.433594 C 52.238281 40.488281 52.5625 40.511719 52.890625 40.496094 C 53.328125 40.472656 53.617188 40.691406 53.804688 41.058594 C 53.925781 41.316406 54 41.589844 54.027344 41.871094 C 54.105469 42.511719 54.113281 43.152344 54.054688 43.792969 C 54.035156 44.015625 54.027344 44.234375 54.035156 44.457031 Z M 40.042969 15.472656 C 40.007812 15.382812 39.980469 15.296875 39.949219 15.214844 C 39.714844 14.632812 39.613281 14.027344 39.644531 13.398438 C 39.679688 12.707031 39.871094 12.058594 40.292969 11.507812 C 41.234375 10.277344 42.5 9.820312 44.015625 10.0625 C 44.964844 10.21875 45.765625 10.6875 46.460938 11.339844 C 47.0625 11.902344 47.507812 12.574219 47.886719 13.296875 C 48.117188 13.726562 48.285156 14.175781 48.390625 14.652344 C 48.464844 14.960938 48.476562 15.277344 48.421875 15.589844 C 48.339844 16.003906 48.0625 16.234375 47.640625 16.238281 C 47.460938 16.238281 47.28125 16.226562 47.101562 16.195312 C 46.792969 16.144531 46.488281 16.0625 46.195312 15.945312 C 46.078125 15.898438 45.992188 15.890625 45.886719 15.972656 C 45.652344 16.136719 45.398438 16.253906 45.125 16.324219 C 44.566406 16.480469 44 16.546875 43.421875 16.519531 C 43.207031 16.515625 42.996094 16.484375 42.789062 16.425781 C 41.84375 16.148438 41.269531 15.347656 41.394531 14.355469 C 41.410156 14.230469 41.445312 14.113281 41.5 14.003906 C 41.628906 13.769531 41.855469 13.75 42.011719 13.964844 C 42.066406 14.050781 42.109375 14.140625 42.140625 14.238281 C 42.175781 14.367188 42.207031 14.5 42.226562 14.632812 C 42.261719 14.863281 42.378906 15.03125 42.585938 15.136719 C 42.953125 15.34375 43.34375 15.410156 43.757812 15.332031 C 44.074219 15.273438 44.316406 15.097656 44.527344 14.875 C 44.769531 14.617188 44.96875 14.5 45.242188 14.925781 C 45.378906 15.140625 45.589844 15.28125 45.800781 15.410156 C 45.839844 15.429688 45.882812 15.453125 45.925781 15.417969 C 45.976562 15.378906 45.988281 15.328125 45.964844 15.265625 C 45.925781 15.148438 45.878906 15.035156 45.824219 14.925781 C 45.539062 14.382812 45.175781 13.898438 44.730469 13.472656 C 44.527344 13.277344 44.304688 13.109375 44.058594 12.96875 C 43.808594 12.828125 43.539062 12.726562 43.257812 12.742188 C 42.703125 12.769531 42.199219 12.941406 41.777344 13.324219 C 41.355469 13.707031 41.09375 14.183594 41 14.746094 C 40.941406 15.058594 40.828125 15.328125 40.59375 15.542969 C 40.496094 15.632812 40.5 15.648438 40.574219 15.773438 C 40.683594 15.957031 40.808594 16.128906 40.949219 16.292969 C 41.832031 17.316406 42.980469 17.824219 44.292969 18 C 45.003906 18.097656 45.707031 18.039062 46.414062 17.964844 C 47.042969 17.894531 47.671875 17.902344 48.289062 18.070312 C 48.710938 18.191406 49.117188 18.355469 49.507812 18.5625 C 49.886719 18.761719 50.257812 18.96875 50.632812 19.171875 C 50.867188 19.308594 51.109375 19.425781 51.363281 19.519531 C 51.5 19.566406 51.644531 19.59375 51.792969 19.601562 C 51.882812 19.613281 51.929688 19.574219 51.933594 19.484375 C 51.9375 19.449219 51.9375 19.414062 51.941406 19.382812 C 51.972656 18.636719 51.945312 17.890625 51.851562 17.148438 C 51.746094 16.371094 51.601562 15.597656 51.421875 14.828125 C 51.121094 13.542969 50.75 12.28125 50.355469 11.023438 C 49.996094 9.828125 49.554688 8.660156 49.035156 7.523438 C 48.582031 6.550781 48.0625 5.617188 47.386719 4.78125 C 45.976562 3.050781 44.183594 1.949219 41.972656 1.5625 C 41.375 1.453125 40.769531 1.382812 40.164062 1.351562 C 39.445312 1.3125 38.726562 1.257812 38.007812 1.238281 C 37.171875 1.214844 36.34375 1.167969 35.511719 1.109375 C 34.726562 1.050781 33.949219 0.925781 33.171875 0.800781 C 32.21875 0.648438 31.265625 0.476562 30.300781 0.398438 C 29.457031 0.320312 28.617188 0.34375 27.78125 0.476562 C 26.257812 0.714844 24.894531 1.316406 23.691406 2.277344 C 22.792969 3 21.992188 3.820312 21.28125 4.730469 C 19.664062 6.773438 18.367188 9 17.390625 11.417969 C 17.144531 11.988281 16.960938 12.578125 16.839844 13.1875 C 16.78125 13.476562 16.769531 13.765625 16.808594 14.058594 C 16.867188 14.457031 17.117188 14.648438 17.519531 14.609375 C 17.574219 14.605469 17.628906 14.59375 17.683594 14.582031 C 17.949219 14.519531 18.199219 14.421875 18.429688 14.28125 C 18.832031 14.042969 18.828125 14.039062 18.90625 13.574219 C 19.015625 12.875 19.171875 12.183594 19.375 11.503906 C 19.574219 10.871094 19.820312 10.253906 20.191406 9.695312 C 20.660156 8.960938 21.3125 8.472656 22.148438 8.238281 C 22.859375 8.035156 23.582031 7.957031 24.316406 7.996094 C 24.847656 8.019531 25.363281 8.132812 25.855469 8.335938 C 26.164062 8.460938 26.433594 8.636719 26.664062 8.875 C 27.019531 9.222656 27.164062 9.644531 27.097656 10.140625 C 27.078125 10.308594 27.039062 10.472656 26.980469 10.632812 C 26.855469 10.972656 26.730469 11.308594 26.59375 11.640625 C 26.40625 12.113281 26.179688 12.566406 25.914062 12.996094 C 25.722656 13.304688 25.496094 13.585938 25.230469 13.832031 C 24.792969 14.230469 24.285156 14.425781 23.683594 14.359375 C 23.625 14.351562 23.570312 14.351562 23.515625 14.34375 C 23.390625 14.328125 23.269531 14.34375 23.152344 14.394531 C 22.902344 14.488281 22.644531 14.566406 22.386719 14.652344 C 22.117188 14.742188 21.839844 14.777344 21.554688 14.753906 C 21.308594 14.738281 21.097656 14.640625 20.925781 14.460938 C 20.753906 14.28125 20.667969 14.070312 20.660156 13.820312 C 20.640625 13.566406 20.699219 13.328125 20.835938 13.113281 C 20.957031 12.921875 21.09375 12.742188 21.230469 12.5625 C 21.277344 12.5 21.335938 12.449219 21.402344 12.402344 C 21.589844 12.269531 21.753906 12.324219 21.8125 12.542969 C 21.832031 12.621094 21.851562 12.699219 21.863281 12.773438 C 21.890625 12.921875 21.949219 13.054688 22.035156 13.175781 C 22.3125 13.589844 22.71875 13.816406 23.1875 13.949219 C 23.277344 13.972656 23.363281 13.960938 23.445312 13.917969 C 24.097656 13.59375 24.53125 12.835938 24.464844 12.113281 C 24.457031 11.941406 24.402344 11.792969 24.296875 11.660156 C 24.191406 11.527344 24.058594 11.4375 23.894531 11.394531 C 23.675781 11.324219 23.453125 11.308594 23.226562 11.339844 C 22.824219 11.402344 22.445312 11.53125 22.089844 11.730469 C 21.65625 11.972656 21.253906 12.257812 20.882812 12.589844 C 20.328125 13.082031 19.785156 13.589844 19.230469 14.085938 C 19.152344 14.15625 19.109375 14.242188 19.097656 14.347656 C 19.039062 14.746094 18.976562 15.144531 18.898438 15.542969 C 18.789062 16.148438 18.570312 16.710938 18.242188 17.234375 C 17.996094 17.632812 17.675781 17.960938 17.28125 18.210938 C 16.917969 18.445312 16.523438 18.554688 16.09375 18.535156 C 15.773438 18.53125 15.53125 18.390625 15.359375 18.125 C 15.246094 17.953125 15.171875 17.765625 15.125 17.566406 C 15.066406 17.277344 15.035156 16.988281 15.042969 16.695312 C 15.039062 15.855469 15.179688 15.039062 15.371094 14.222656 C 15.714844 12.738281 16.230469 11.3125 16.839844 9.921875 C 17.34375 8.777344 17.914062 7.667969 18.460938 6.542969 C 18.675781 6.097656 18.890625 5.648438 19.0625 5.183594 C 19.128906 5.015625 19.179688 4.84375 19.210938 4.667969 C 19.21875 4.609375 19.222656 4.554688 19.21875 4.5 C 19.214844 4.402344 19.164062 4.351562 19.066406 4.347656 C 18.871094 4.332031 18.6875 4.371094 18.511719 4.460938 C 18.191406 4.605469 17.902344 4.800781 17.640625 5.035156 C 17.207031 5.417969 16.808594 5.828125 16.445312 6.273438 C 15.636719 7.257812 14.890625 8.289062 14.210938 9.367188 C 13.3125 10.765625 12.179688 11.941406 10.875 12.964844 C 9.75 13.835938 8.5625 14.601562 7.308594 15.269531 C 6.574219 15.667969 5.835938 16.042969 5.097656 16.433594 C 4.769531 16.605469 4.457031 16.808594 4.167969 17.042969 C 3.773438 17.355469 3.515625 17.753906 3.390625 18.242188 C 3.332031 18.472656 3.300781 18.707031 3.296875 18.945312 C 3.292969 19.375 3.328125 19.800781 3.394531 20.222656 C 3.488281 20.890625 3.628906 21.550781 3.765625 22.214844 C 3.90625 22.875 4.066406 23.527344 4.335938 24.152344 C 4.816406 25.242188 5.464844 26.226562 6.277344 27.101562 C 7.574219 28.523438 9.03125 29.75 10.769531 30.621094 C 11.082031 30.777344 11.269531 31.027344 11.332031 31.375 C 11.386719 31.621094 11.402344 31.867188 11.378906 32.113281 C 11.332031 32.507812 11.277344 32.894531 11.222656 33.285156 C 11.183594 33.554688 11.132812 33.820312 11.089844 34.085938 C 11.054688 34.300781 11.070312 34.511719 11.132812 34.71875 C 11.167969 34.847656 11.234375 34.957031 11.339844 35.039062 C 11.445312 35.125 11.566406 35.167969 11.699219 35.171875 C 11.878906 35.183594 12.058594 35.167969 12.234375 35.121094 C 12.878906 34.945312 13.421875 34.597656 13.921875 34.171875 C 14.058594 34.050781 14.167969 33.910156 14.257812 33.75 C 14.386719 33.527344 14.492188 33.292969 14.574219 33.046875 C 14.730469 32.5625 14.84375 32.070312 14.90625 31.566406 C 15.007812 30.808594 15.058594 30.042969 15.0625 29.277344 C 15.070312 28.242188 15.050781 27.207031 15 26.171875 C 14.960938 25.316406 14.894531 24.460938 14.828125 23.609375 C 14.785156 23.09375 14.757812 22.578125 14.757812 22.0625 C 14.746094 21.757812 14.773438 21.453125 14.84375 21.15625 C 14.871094 21.035156 14.917969 20.921875 14.984375 20.816406 C 15.054688 20.699219 15.15625 20.625 15.292969 20.59375 C 15.425781 20.5625 15.550781 20.585938 15.664062 20.660156 C 15.804688 20.742188 15.910156 20.855469 15.980469 21.003906 C 16.078125 21.195312 16.148438 21.394531 16.191406 21.605469 C 16.339844 22.242188 16.394531 22.894531 16.445312 23.546875 C 16.535156 24.722656 16.605469 25.902344 16.730469 27.078125 C 16.800781 27.773438 16.90625 28.464844 17.042969 29.148438 C 17.242188 30.082031 17.503906 31.003906 17.78125 31.917969 C 18.414062 33.9375 19.128906 35.941406 19.894531 37.925781 C 20.585938 39.734375 21.28125 41.539062 22.167969 43.261719 C 22.386719 43.707031 22.546875 44.175781 22.636719 44.664062 C 22.804688 45.484375 22.894531 46.308594 23.011719 47.132812 C 23.066406 47.550781 23.238281 47.90625 23.527344 48.207031 C 23.816406 48.5 24.140625 48.738281 24.5 48.929688 C 25.199219 49.300781 25.929688 49.585938 26.695312 49.78125 C 26.796875 49.824219 26.890625 49.804688 26.964844 49.722656 C 27.117188 49.566406 27.304688 49.503906 27.519531 49.527344 C 28.332031 49.605469 29.136719 49.527344 29.945312 49.449219 C 30.449219 49.398438 30.949219 49.335938 31.453125 49.292969 C 31.9375 49.253906 32.414062 49.183594 32.886719 49.074219 C 33.46875 48.933594 34.03125 48.742188 34.539062 48.414062 C 34.789062 48.257812 35.007812 48.066406 35.195312 47.839844 C 35.328125 47.679688 35.414062 47.5 35.453125 47.296875 C 35.519531 46.898438 35.726562 46.585938 36.011719 46.316406 C 36.339844 46.023438 36.695312 45.769531 37.078125 45.550781 C 37.398438 45.363281 37.71875 45.175781 38.027344 44.964844 C 39.117188 44.207031 40.144531 43.367188 41.105469 42.445312 C 41.195312 42.359375 41.277344 42.265625 41.355469 42.171875 C 41.429688 42.082031 41.476562 41.980469 41.496094 41.867188 C 41.527344 41.75 41.507812 41.640625 41.4375 41.542969 C 41.367188 41.441406 41.273438 41.386719 41.15625 41.375 C 40.996094 41.347656 40.839844 41.363281 40.691406 41.417969 C 40.53125 41.484375 40.386719 41.566406 40.253906 41.667969 C 39.957031 41.894531 39.65625 42.113281 39.371094 42.347656 C 37.960938 43.480469 36.625 44.683594 35.332031 45.9375 C 35.089844 46.171875 34.835938 46.398438 34.574219 46.613281 C 33.550781 47.472656 32.371094 47.953125 31.039062 48.046875 C 30.011719 48.140625 28.992188 48.101562 27.976562 47.9375 C 27.128906 47.804688 26.316406 47.550781 25.542969 47.175781 C 24.964844 46.90625 24.453125 46.542969 24.003906 46.09375 C 23.675781 45.757812 23.425781 45.375 23.339844 44.902344 C 23.3125 44.769531 23.269531 44.640625 23.25 44.507812 C 23.210938 44.21875 23.140625 43.925781 23.230469 43.636719 C 23.28125 43.460938 23.269531 43.289062 23.203125 43.117188 C 22.988281 42.453125 22.824219 41.773438 22.804688 41.070312 C 22.78125 40.730469 22.816406 40.394531 22.90625 40.066406 C 22.945312 39.910156 23.023438 39.777344 23.140625 39.664062 C 23.289062 39.53125 23.449219 39.53125 23.59375 39.667969 C 23.644531 39.726562 23.691406 39.789062 23.726562 39.859375 C 23.785156 39.972656 23.824219 40.089844 23.84375 40.210938 C 23.933594 40.722656 24.023438 41.230469 24.117188 41.738281 C 24.160156 41.960938 24.179688 42.183594 24.179688 42.410156 C 24.183594 42.695312 24.085938 42.941406 23.882812 43.144531 C 23.828125 43.199219 23.777344 43.257812 23.722656 43.316406 C 23.660156 43.382812 23.652344 43.457031 23.699219 43.535156 C 23.898438 43.984375 24.214844 44.320312 24.652344 44.546875 C 25.113281 44.785156 25.601562 44.949219 26.117188 45.03125 C 26.527344 45.09375 26.9375 45.152344 27.355469 45.179688 C 27.902344 45.21875 28.453125 45.273438 29.003906 45.292969 C 29.621094 45.308594 30.242188 45.292969 30.859375 45.296875 C 31.222656 45.296875 31.578125 45.246094 31.9375 45.214844 C 32.128906 45.191406 32.3125 45.152344 32.496094 45.097656 C 32.683594 45.039062 32.839844 44.929688 32.960938 44.777344 C 33.019531 44.710938 33.011719 44.65625 32.921875 44.625 C 32.566406 44.503906 32.390625 44.226562 32.289062 43.890625 C 32.1875 43.523438 32.171875 43.15625 32.242188 42.785156 C 32.382812 41.875 32.796875 41.078125 33.324219 40.335938 C 33.375 40.265625 33.433594 40.195312 33.503906 40.136719 C 33.558594 40.082031 33.625 40.035156 33.695312 40 C 33.769531 39.953125 33.851562 39.941406 33.9375 39.972656 C 34.023438 40 34.082031 40.054688 34.117188 40.140625 C 34.144531 40.199219 34.164062 40.265625 34.175781 40.332031 C 34.207031 40.511719 34.214844 40.6875 34.199219 40.871094 C 34.164062 41.25 34.132812 41.632812 34.097656 42.011719 C 34.054688 42.53125 33.972656 43.039062 33.851562 43.542969 C 33.824219 43.648438 33.804688 43.753906 33.769531 43.902344 C 33.925781 43.761719 33.992188 43.613281 34.070312 43.480469 C 34.234375 43.210938 34.390625 42.9375 34.554688 42.667969 C 34.738281 42.355469 34.996094 42.132812 35.328125 41.992188 C 35.371094 41.972656 35.410156 41.949219 35.449219 41.933594 C 35.808594 41.78125 36.113281 41.558594 36.375 41.265625 C 36.503906 41.125 36.628906 40.984375 36.761719 40.84375 C 36.828125 40.769531 36.902344 40.699219 36.980469 40.632812 C 37.089844 40.546875 37.210938 40.492188 37.355469 40.527344 C 37.695312 40.621094 38.03125 40.558594 38.355469 40.472656 C 39.207031 40.253906 40.019531 39.933594 40.796875 39.515625 C 41.054688 39.375 41.296875 39.210938 41.519531 39.023438 C 41.910156 38.707031 42.160156 38.300781 42.273438 37.8125 C 42.394531 37.296875 42.457031 36.769531 42.527344 36.246094 C 42.53125 36.199219 42.535156 36.15625 42.53125 36.109375 C 42.53125 36.054688 42.539062 35.992188 42.480469 35.957031 C 42.425781 35.925781 42.375 35.972656 42.339844 36.011719 C 42.207031 36.152344 42.070312 36.28125 41.953125 36.433594 C 41.765625 36.671875 41.585938 36.917969 41.410156 37.164062 C 41.210938 37.4375 40.996094 37.699219 40.765625 37.945312 C 40.183594 38.570312 39.484375 39.003906 38.667969 39.246094 C 38.320312 39.339844 37.96875 39.40625 37.613281 39.441406 C 36.992188 39.503906 36.378906 39.484375 35.761719 39.378906 C 35.164062 39.289062 34.625 39.035156 34.117188 38.714844 C 33.539062 38.34375 33.003906 37.910156 32.523438 37.417969 C 31.980469 36.878906 31.453125 36.324219 30.914062 35.777344 C 30.636719 35.496094 30.359375 35.214844 30.070312 34.949219 C 29.757812 34.652344 29.414062 34.398438 29.039062 34.1875 C 28.445312 33.867188 27.855469 33.886719 27.265625 34.199219 C 27.027344 34.328125 26.8125 34.492188 26.617188 34.683594 C 26.21875 35.066406 25.886719 35.507812 25.546875 35.941406 C 25.214844 36.386719 24.859375 36.808594 24.480469 37.210938 C 24.164062 37.535156 23.8125 37.8125 23.425781 38.050781 C 22.960938 38.335938 22.511719 38.300781 22.0625 38.011719 C 21.875 37.886719 21.703125 37.742188 21.546875 37.578125 C 21.214844 37.222656 20.929688 36.832031 20.691406 36.410156 C 20.203125 35.570312 19.800781 34.695312 19.480469 33.777344 C 18.875 32.101562 18.421875 30.386719 18.269531 28.601562 C 18.199219 27.777344 18.265625 26.960938 18.46875 26.15625 C 18.8125 24.753906 19.484375 23.515625 20.40625 22.414062 C 20.882812 21.839844 21.417969 21.324219 22.007812 20.867188 C 22.152344 20.765625 22.234375 20.628906 22.261719 20.453125 C 22.3125 20.144531 22.390625 19.839844 22.492188 19.539062 C 23.136719 17.515625 24.28125 15.839844 26.007812 14.589844 C 27.367188 13.597656 28.878906 13.015625 30.550781 12.847656 C 31.214844 12.78125 31.878906 12.792969 32.539062 12.886719 C 33.355469 13 34.144531 13.210938 34.910156 13.519531 C 35.824219 13.878906 36.679688 14.351562 37.519531 14.851562 C 37.78125 15.007812 38.046875 15.152344 38.304688 15.3125 C 38.773438 15.601562 39.289062 15.605469 39.808594 15.558594 C 39.890625 15.539062 39.96875 15.511719 40.042969 15.472656 Z M 26.289062 53.71875 C 26.308594 54.738281 26.40625 55.75 26.578125 56.753906 C 26.761719 57.773438 26.984375 58.785156 27.21875 59.792969 C 27.511719 61.078125 27.867188 62.34375 28.292969 63.589844 C 28.511719 64.253906 28.789062 64.890625 29.117188 65.507812 C 29.246094 65.746094 29.394531 65.972656 29.566406 66.179688 C 29.695312 66.339844 29.84375 66.476562 30.015625 66.585938 C 30.277344 66.769531 30.542969 66.773438 30.808594 66.59375 C 30.976562 66.492188 31.117188 66.367188 31.238281 66.214844 C 31.335938 66.09375 31.433594 65.96875 31.519531 65.835938 C 32.535156 64.320312 33.640625 62.871094 34.757812 61.429688 C 35.589844 60.351562 36.453125 59.296875 37.160156 58.125 C 37.253906 57.972656 37.375 57.839844 37.519531 57.730469 C 37.882812 57.445312 38.308594 57.445312 38.667969 57.734375 C 38.847656 57.875 38.988281 58.046875 39.097656 58.25 C 39.257812 58.539062 39.371094 58.84375 39.441406 59.164062 C 39.539062 59.605469 39.582031 60.050781 39.574219 60.503906 C 39.566406 60.726562 39.589844 60.953125 39.636719 61.171875 C 39.65625 61.261719 39.691406 61.34375 39.738281 61.421875 C 39.789062 61.503906 39.859375 61.527344 39.945312 61.480469 C 40.039062 61.441406 40.125 61.390625 40.207031 61.332031 C 40.339844 61.226562 40.464844 61.113281 40.578125 60.988281 C 41.199219 60.300781 41.738281 59.554688 42.191406 58.742188 C 42.566406 58.050781 42.894531 57.335938 43.226562 56.621094 C 43.910156 55.128906 44.582031 53.628906 45.320312 52.160156 C 45.917969 50.964844 46.554688 49.785156 47.289062 48.664062 C 47.84375 47.800781 48.476562 46.996094 49.191406 46.257812 C 49.667969 45.765625 50.230469 45.40625 50.878906 45.179688 C 51.027344 45.125 51.175781 45.074219 51.328125 45.03125 C 52.039062 44.820312 52.761719 44.660156 53.496094 44.550781 C 53.664062 44.523438 53.683594 44.507812 53.699219 44.375 C 53.769531 43.660156 53.789062 42.9375 53.75 42.21875 C 53.738281 42.039062 53.714844 41.859375 53.679688 41.683594 C 53.648438 41.503906 53.589844 41.335938 53.511719 41.171875 C 53.382812 40.933594 53.195312 40.792969 52.914062 40.808594 C 52.632812 40.816406 52.351562 40.800781 52.070312 40.765625 C 51.515625 40.710938 50.992188 40.546875 50.507812 40.273438 C 49.707031 39.8125 49.261719 39.125 49.164062 38.207031 C 49.078125 37.402344 48.992188 36.597656 48.898438 35.792969 C 48.863281 35.433594 48.792969 35.082031 48.6875 34.734375 C 48.675781 34.703125 48.652344 34.679688 48.621094 34.664062 C 48.585938 34.652344 48.566406 34.683594 48.550781 34.714844 C 48.402344 35.03125 48.257812 35.351562 48.09375 35.65625 C 47.695312 36.414062 47.238281 37.132812 46.769531 37.851562 C 45.003906 40.566406 43.046875 43.132812 40.894531 45.546875 C 40.195312 46.328125 39.5 47.109375 38.738281 47.832031 C 38.121094 48.410156 37.476562 48.957031 36.742188 49.378906 C 35.335938 50.199219 33.816406 50.640625 32.191406 50.703125 C 30.734375 50.761719 29.292969 50.648438 27.863281 50.363281 C 27.621094 50.316406 27.378906 50.261719 27.136719 50.21875 C 26.992188 50.191406 26.957031 50.207031 26.890625 50.335938 C 26.734375 50.648438 26.617188 50.972656 26.539062 51.316406 C 26.347656 52.125 26.296875 52.945312 26.289062 53.71875 Z M 49.636719 32.484375 C 49.621094 33.148438 49.695312 33.800781 49.851562 34.445312 C 50.03125 35.132812 50.257812 35.804688 50.535156 36.457031 C 50.695312 36.855469 50.894531 37.230469 51.136719 37.582031 C 51.546875 38.207031 52.117188 38.597656 52.847656 38.753906 C 53.421875 38.882812 54.003906 38.894531 54.589844 38.917969 C 55.039062 38.9375 55.363281 38.730469 55.558594 38.320312 C 55.59375 38.238281 55.640625 38.164062 55.679688 38.082031 C 55.785156 37.859375 55.890625 37.632812 55.996094 37.410156 C 56.34375 36.675781 56.6875 35.945312 57.113281 35.253906 C 57.894531 33.988281 58.867188 32.886719 59.945312 31.875 C 60.800781 31.074219 61.707031 30.335938 62.625 29.609375 C 63.390625 29 64.175781 28.402344 64.898438 27.746094 C 65.257812 27.425781 65.59375 27.074219 65.894531 26.695312 C 66.417969 26.035156 66.699219 25.289062 66.652344 24.441406 C 66.605469 23.617188 66.371094 22.851562 65.886719 22.167969 C 65.671875 21.867188 65.433594 21.582031 65.171875 21.316406 C 64.710938 20.839844 64.210938 20.402344 63.710938 19.964844 C 62.601562 18.992188 61.511719 18 60.484375 16.9375 C 58.867188 15.261719 57.332031 13.511719 55.820312 11.734375 C 54.859375 10.601562 53.910156 9.460938 52.953125 8.324219 C 52.675781 7.996094 52.378906 7.6875 52.0625 7.398438 C 51.898438 7.246094 51.71875 7.113281 51.523438 6.996094 C 51.425781 6.9375 51.320312 6.898438 51.207031 6.886719 C 51.074219 6.863281 50.984375 6.917969 50.9375 7.042969 C 50.878906 7.179688 50.847656 7.320312 50.847656 7.46875 C 50.835938 7.898438 50.871094 8.324219 50.957031 8.742188 C 51.085938 9.464844 51.261719 10.171875 51.4375 10.882812 C 51.75 12.160156 52.085938 13.433594 52.371094 14.714844 C 52.601562 15.726562 52.742188 16.75 52.796875 17.789062 C 52.816406 18.160156 52.796875 18.53125 52.738281 18.898438 C 52.683594 19.226562 52.589844 19.535156 52.308594 19.75 C 52.226562 19.808594 52.214844 19.894531 52.203125 19.984375 C 52.148438 20.363281 52.097656 20.742188 52.027344 21.117188 C 51.886719 21.8125 51.707031 22.5 51.480469 23.171875 C 50.8125 25.28125 50.214844 27.414062 49.875 29.609375 C 49.71875 30.5625 49.636719 31.519531 49.636719 32.484375 Z M 29.648438 18.441406 C 29.121094 18.453125 28.597656 18.5 28.078125 18.582031 C 26.742188 18.8125 25.460938 19.226562 24.246094 19.824219 C 23.699219 20.09375 23.175781 20.402344 22.679688 20.753906 C 22.566406 20.820312 22.5 20.917969 22.480469 21.046875 C 22.371094 21.878906 22.472656 22.6875 22.785156 23.464844 C 22.925781 23.835938 23.117188 24.179688 23.363281 24.492188 C 23.488281 24.65625 23.636719 24.789062 23.808594 24.898438 C 24.089844 25.0625 24.296875 25.019531 24.476562 24.757812 C 24.535156 24.675781 24.585938 24.585938 24.625 24.492188 C 24.6875 24.335938 24.742188 24.179688 24.792969 24.015625 C 24.882812 23.726562 24.960938 23.433594 25.050781 23.144531 C 25.109375 22.9375 25.199219 22.742188 25.320312 22.566406 C 25.445312 22.394531 25.597656 22.253906 25.800781 22.214844 C 26.238281 22.121094 26.628906 22.21875 26.925781 22.574219 C 27.042969 22.714844 27.128906 22.875 27.179688 23.046875 C 27.445312 23.859375 27.113281 24.832031 26.492188 25.253906 C 26.320312 25.382812 26.140625 25.496094 25.949219 25.59375 C 25.648438 25.757812 25.324219 25.839844 24.980469 25.847656 C 24.609375 25.855469 24.238281 25.839844 23.867188 25.796875 C 23.757812 25.78125 23.644531 25.773438 23.53125 25.773438 C 23.253906 25.773438 23.1875 25.851562 23.214844 26.117188 C 23.226562 26.207031 23.242188 26.292969 23.265625 26.382812 C 23.382812 26.914062 23.695312 27.3125 24.128906 27.628906 C 24.394531 27.816406 24.671875 27.988281 24.960938 28.136719 C 25.289062 28.3125 25.613281 28.488281 25.941406 28.664062 C 26.269531 28.84375 26.558594 29.074219 26.804688 29.355469 C 27.003906 29.585938 27.207031 29.8125 27.410156 30.039062 C 27.609375 30.273438 27.832031 30.476562 28.078125 30.65625 C 28.449219 30.90625 28.84375 31.015625 29.292969 30.921875 C 29.558594 30.867188 29.8125 30.78125 30.058594 30.671875 C 30.449219 30.492188 30.824219 30.292969 31.191406 30.070312 C 31.996094 29.597656 32.808594 29.144531 33.671875 28.777344 C 33.847656 28.703125 34.019531 28.617188 34.1875 28.53125 C 34.589844 28.324219 34.988281 28.117188 35.34375 27.835938 C 35.507812 27.714844 35.648438 27.570312 35.765625 27.402344 C 35.859375 27.269531 35.910156 27.121094 35.917969 26.960938 C 35.929688 26.691406 35.789062 26.527344 35.523438 26.507812 C 35.332031 26.492188 35.140625 26.503906 34.953125 26.539062 C 34.601562 26.613281 34.253906 26.710938 33.914062 26.820312 C 33.535156 26.949219 33.148438 27.003906 32.75 26.984375 C 32.207031 26.957031 31.714844 26.78125 31.28125 26.453125 C 30.929688 26.183594 30.679688 25.835938 30.609375 25.398438 C 30.527344 24.933594 30.566406 24.476562 30.722656 24.035156 C 30.921875 23.472656 31.320312 23.132812 31.890625 23.027344 C 32.351562 22.9375 32.632812 22.960938 32.742188 23.601562 C 32.769531 23.753906 32.789062 23.910156 32.816406 24.066406 C 32.878906 24.46875 33.082031 24.78125 33.429688 24.996094 C 33.921875 25.324219 34.460938 25.496094 35.054688 25.441406 C 35.554688 25.394531 35.929688 25.160156 36.148438 24.703125 C 36.371094 24.246094 36.445312 23.765625 36.371094 23.261719 C 36.285156 22.65625 36.042969 22.117188 35.71875 21.609375 C 35.371094 21.082031 34.96875 20.597656 34.515625 20.15625 C 34.023438 19.664062 33.460938 19.28125 32.820312 19.007812 C 31.851562 18.589844 30.835938 18.429688 29.648438 18.441406 Z M 23.894531 14.0625 C 24.351562 14.046875 24.738281 13.878906 25.0625 13.554688 C 25.351562 13.269531 25.59375 12.945312 25.789062 12.585938 C 26.179688 11.898438 26.457031 11.164062 26.714844 10.417969 C 26.800781 10.203125 26.824219 9.980469 26.785156 9.753906 C 26.722656 9.417969 26.554688 9.148438 26.28125 8.941406 C 25.980469 8.714844 25.648438 8.554688 25.28125 8.46875 C 24.300781 8.21875 23.328125 8.257812 22.351562 8.511719 C 21.484375 8.734375 20.84375 9.238281 20.378906 9.988281 C 20.164062 10.347656 19.984375 10.722656 19.84375 11.117188 C 19.566406 11.855469 19.398438 12.625 19.253906 13.398438 C 19.242188 13.460938 19.210938 13.527344 19.273438 13.585938 C 19.363281 13.585938 19.410156 13.515625 19.464844 13.460938 C 19.6875 13.257812 19.90625 13.042969 20.128906 12.839844 C 20.621094 12.386719 21.121094 11.957031 21.6875 11.605469 C 21.992188 11.410156 22.316406 11.257812 22.660156 11.144531 C 23.027344 11.019531 23.40625 10.984375 23.789062 11.039062 C 24.335938 11.121094 24.746094 11.519531 24.78125 12.035156 C 24.824219 12.734375 24.609375 13.34375 24.097656 13.835938 C 24.03125 13.894531 23.941406 13.925781 23.898438 14.0625 Z M 40.363281 15.300781 C 40.519531 15.183594 40.617188 15.03125 40.65625 14.839844 C 40.683594 14.71875 40.699219 14.59375 40.730469 14.476562 C 40.972656 13.632812 41.457031 12.984375 42.285156 12.636719 C 43.058594 12.3125 43.796875 12.359375 44.488281 12.867188 C 45.191406 13.382812 45.710938 14.054688 46.121094 14.816406 C 46.242188 15.035156 46.328125 15.265625 46.257812 15.523438 C 46.234375 15.59375 46.257812 15.636719 46.328125 15.65625 C 46.769531 15.84375 47.226562 15.933594 47.707031 15.917969 C 47.898438 15.910156 48.015625 15.796875 48.078125 15.625 C 48.148438 15.429688 48.164062 15.230469 48.132812 15.027344 C 48.097656 14.746094 48.03125 14.472656 47.9375 14.207031 C 47.609375 13.308594 47.125 12.503906 46.476562 11.800781 C 45.992188 11.265625 45.414062 10.863281 44.746094 10.59375 C 43.972656 10.285156 43.175781 10.1875 42.371094 10.429688 C 41.214844 10.78125 40.402344 11.503906 40.078125 12.691406 C 39.859375 13.484375 39.933594 14.277344 40.222656 15.042969 C 40.253906 15.128906 40.269531 15.222656 40.367188 15.300781 Z M 32.527344 43.199219 C 32.535156 43.332031 32.539062 43.46875 32.550781 43.601562 C 32.566406 43.761719 32.613281 43.910156 32.691406 44.046875 C 32.769531 44.195312 32.886719 44.292969 33.042969 44.339844 C 33.164062 44.375 33.238281 44.347656 33.289062 44.234375 C 33.40625 43.964844 33.496094 43.6875 33.558594 43.402344 C 33.695312 42.777344 33.789062 42.140625 33.832031 41.5 C 33.855469 41.21875 33.878906 40.941406 33.886719 40.660156 C 33.890625 40.542969 33.921875 40.414062 33.808594 40.320312 C 33.6875 40.347656 33.632812 40.453125 33.5625 40.535156 C 33.503906 40.605469 33.453125 40.679688 33.40625 40.757812 C 33.164062 41.136719 32.957031 41.535156 32.789062 41.953125 C 32.625 42.351562 32.535156 42.769531 32.527344 43.199219 Z M 41.75 14.210938 C 41.605469 14.851562 41.761719 15.359375 42.21875 15.773438 C 42.472656 16.007812 42.789062 16.117188 43.128906 16.179688 C 43.589844 16.261719 44.046875 16.207031 44.503906 16.140625 C 44.796875 16.101562 45.078125 16.027344 45.351562 15.910156 C 45.457031 15.863281 45.574219 15.824219 45.667969 15.71875 C 45.515625 15.597656 45.367188 15.5 45.234375 15.378906 C 45.101562 15.257812 44.992188 15.125 44.867188 14.988281 L 44.609375 15.230469 C 44.421875 15.417969 44.199219 15.542969 43.941406 15.609375 C 43.464844 15.730469 43 15.683594 42.554688 15.472656 C 42.210938 15.316406 41.972656 15.070312 41.917969 14.667969 C 41.898438 14.527344 41.894531 14.371094 41.75 14.210938 Z M 22.808594 14.183594 C 22.597656 14.050781 22.40625 13.941406 22.222656 13.816406 C 22.050781 13.691406 21.902344 13.539062 21.785156 13.359375 C 21.65625 13.179688 21.59375 12.964844 21.507812 12.738281 C 21.308594 12.933594 21.152344 13.160156 21.039062 13.417969 C 20.964844 13.601562 20.957031 13.789062 21.011719 13.980469 C 21.070312 14.226562 21.226562 14.371094 21.476562 14.414062 C 21.597656 14.433594 21.722656 14.441406 21.84375 14.429688 C 22.171875 14.417969 22.472656 14.296875 22.808594 14.183594 Z M 23.542969 43.019531 C 23.734375 42.894531 23.835938 42.71875 23.847656 42.488281 C 23.863281 42.265625 23.851562 42.039062 23.8125 41.816406 C 23.742188 41.40625 23.664062 41 23.589844 40.589844 C 23.5625 40.449219 23.539062 40.300781 23.503906 40.160156 C 23.476562 40.066406 23.464844 39.929688 23.34375 39.9375 C 23.257812 39.945312 23.238281 40.066406 23.210938 40.152344 C 23.117188 40.484375 23.082031 40.816406 23.113281 41.15625 C 23.164062 41.730469 23.273438 42.292969 23.4375 42.84375 C 23.449219 42.914062 23.484375 42.972656 23.542969 43.019531 Z M 23.542969 43.019531 " fill-opacity="1" fill-rule="nonzero"/></g></svg>