<svg xmlns="http://www.w3.org/2000/svg" xmlns:xlink="http://www.w3.org/1999/xlink" width="200" zoomAndPan="magnify" viewBox="0 0 150 149.999998" height="200" preserveAspectRatio="xMidYMid meet" version="1.0"><path fill="#edeefe" d="M 145.113281 62.183594 C 145.113281 62.183594 148.632812 57.558594 145.996094 52.496094 C 144.515625 49.65625 141.660156 48.824219 139.429688 48.640625 C 139.421875 48.601562 139.410156 48.566406 139.398438 48.53125 C 138.300781 45.007812 132.804688 44.347656 132.804688 44.347656 C 132.804688 44.347656 134.5625 43.246094 132.585938 40.164062 C 130.605469 37.082031 124.890625 38.402344 124.890625 38.402344 C 124.890625 38.402344 124.011719 34.660156 119.835938 34.660156 C 115.65625 34.660156 114.996094 36.421875 113.457031 39.28125 C 111.917969 42.144531 107.742188 36.859375 105.324219 41.042969 C 102.90625 45.226562 104.886719 46.988281 104.886719 46.988281 C 104.886719 46.988281 102.6875 46.328125 100.707031 48.75 C 98.730469 51.171875 102.46875 53.375 101.585938 54.253906 C 100.707031 55.136719 93.453125 56.675781 92.132812 56.675781 L 93.453125 60.640625 C 93.453125 60.640625 95.652344 61.300781 97.191406 62.84375 C 98.730469 64.382812 99.167969 66.367188 96.75 67.027344 C 94.332031 67.6875 92.792969 68.789062 93.015625 70.328125 C 93.234375 71.871094 90.816406 70.109375 88.398438 70.988281 C 85.980469 71.871094 80.261719 89.265625 91.253906 100.273438 C 102.246094 111.285156 125.109375 112.824219 125.109375 112.824219 C 125.109375 112.824219 127.527344 112.386719 128.40625 109.742188 C 129.285156 107.101562 127.527344 104.898438 127.527344 104.898438 C 127.527344 104.898438 129.726562 104.457031 129.507812 101.375 C 129.285156 98.292969 127.089844 98.292969 128.1875 96.753906 C 129.285156 95.210938 131.046875 96.089844 133.464844 93.449219 C 135.882812 90.808594 134.78125 84.863281 134.78125 84.863281 C 134.78125 84.863281 135.660156 85.300781 136.980469 83.101562 C 138.207031 81.058594 136.214844 78.257812 135.917969 77.863281 C 136.890625 77.621094 138.328125 77.035156 139.617188 75.613281 C 141.816406 73.191406 140.71875 72.089844 140.71875 72.089844 C 140.71875 72.089844 144.015625 70.988281 145.335938 67.246094 C 146.652344 63.503906 145.113281 62.183594 145.113281 62.183594 " fill-opacity="1" fill-rule="nonzero"/><path fill="#6868ea" d="M 28.601562 65.046875 C 28.160156 65.265625 23.15625 71.46875 20.296875 80.933594 C 17.441406 90.402344 22.9375 119.902344 22.9375 119.902344 L 53.269531 119.902344 C 53.269531 119.902344 37.269531 107.386719 46.675781 93.484375 C 52.625 84.6875 37.128906 66.683594 37.128906 66.683594 L 28.601562 65.046875 " fill-opacity="1" fill-rule="nonzero"/><path fill="#bc3f51" d="M 63.554688 102.695312 C 63.554688 102.695312 62.457031 105.339844 62.457031 111.945312 C 62.457031 118.550781 62.015625 121.191406 64.214844 120.3125 C 66.414062 119.429688 71.25 119.429688 73.667969 120.53125 C 76.085938 121.632812 75.425781 121.191406 78.503906 119.871094 C 81.582031 118.550781 82.683594 118.550781 89.277344 120.753906 C 95.871094 122.953125 102.6875 118.992188 105.542969 118.992188 C 108.402344 118.992188 115.875 120.089844 118.953125 120.53125 C 122.03125 120.972656 128.847656 119.429688 128.847656 119.429688 C 128.847656 119.429688 68.171875 84.421875 67.511719 84.421875 C 66.851562 84.421875 63.777344 93.230469 63.777344 93.230469 L 63.554688 102.695312 " fill-opacity="1" fill-rule="nonzero"/><path fill="#bc3f51" d="M 120.714844 48.3125 C 119.175781 44.347656 124.449219 41.265625 124.449219 41.265625 C 124.449219 41.265625 124.671875 47.871094 126.429688 49.191406 C 128.1875 50.511719 121.8125 50.511719 121.8125 50.511719 L 120.714844 48.3125 " fill-opacity="1" fill-rule="nonzero"/><path fill="#db995b" d="M 36.1875 33.007812 C 36.585938 32.441406 39.703125 33.667969 42.339844 37.191406 C 44.980469 40.714844 46.296875 43.355469 47.835938 44.238281 C 49.375 45.117188 50.476562 45.558594 50.476562 46.21875 C 50.476562 46.878906 48.277344 48.421875 48.277344 48.421875 C 48.277344 48.421875 48.058594 49.523438 48.058594 50.183594 C 48.058594 50.84375 47.617188 53.265625 47.617188 53.925781 C 47.617188 54.585938 46.078125 60.089844 44.539062 60.53125 C 43 60.972656 38.824219 60.089844 38.824219 60.089844 L 37.238281 66.792969 C 37.03125 67.667969 36.089844 67.863281 30.316406 66.210938 L 28.710938 65.15625 C 28.710938 65.15625 30.691406 60.972656 30.46875 57.226562 C 30.25 53.484375 32.449219 38.292969 36.1875 33.007812 " fill-opacity="1" fill-rule="nonzero"/><path fill="#293444" d="M 36.84375 33.007812 C 36.199219 31.59375 30.578125 27.171875 23.65625 30.035156 C 16.730469 32.898438 13.433594 37.519531 16.511719 48.3125 C 19.589844 59.101562 28.929688 63.394531 30.46875 62.183594 C 32.007812 60.972656 38.054688 35.648438 36.84375 33.007812 " fill-opacity="1" fill-rule="nonzero"/><path fill="#293444" d="M 18.820312 33.886719 C 17.28125 31.6875 15.191406 32.125 14.863281 33.558594 C 14.53125 34.988281 13.324219 34.328125 11.453125 33.667969 C 9.585938 33.007812 4.53125 34.550781 3.101562 37.519531 C 1.671875 40.492188 2.992188 42.035156 4.089844 43.027344 C 5.1875 44.015625 4.859375 43.796875 4.199219 47.429688 C 3.539062 51.0625 7.828125 54.585938 10.574219 54.585938 C 13.324219 54.585938 13.210938 50.292969 15.300781 52.273438 C 17.390625 54.253906 20.46875 54.367188 20.46875 54.367188 L 18.820312 33.886719 " fill-opacity="1" fill-rule="nonzero"/><path fill="#db995b" d="M 35.636719 50.511719 C 35.636719 50.511719 35.964844 43.246094 32.558594 43.796875 C 29.152344 44.347656 31.128906 52.714844 32.886719 53.816406 C 34.648438 54.917969 35.636719 50.511719 35.636719 50.511719 " fill-opacity="1" fill-rule="nonzero"/><path fill="#293444" d="M 44.429688 44.238281 C 44.429688 44.722656 44.035156 45.117188 43.550781 45.117188 C 43.066406 45.117188 42.671875 44.722656 42.671875 44.238281 C 42.671875 43.75 43.066406 43.355469 43.550781 43.355469 C 44.035156 43.355469 44.429688 43.75 44.429688 44.238281 " fill-opacity="1" fill-rule="nonzero"/><path fill="#293444" d="M 43.441406 41.042969 C 42.503906 41.359375 40.363281 43.136719 39.59375 44.015625 C 38.824219 44.898438 39.375 42.695312 41.132812 41.265625 C 42.890625 39.832031 44.429688 40.714844 43.441406 41.042969 " fill-opacity="1" fill-rule="nonzero"/><path fill="#ea554f" d="M 43.769531 53.042969 C 43.769531 52.605469 44.980469 53.265625 46.296875 53.15625 C 47.617188 53.042969 47.945312 52.164062 47.945312 52.164062 C 47.945312 52.164062 47.945312 54.585938 47.398438 55.355469 C 46.847656 56.128906 43.769531 53.484375 43.769531 53.042969 " fill-opacity="1" fill-rule="nonzero"/><path fill="#fcfafa" d="M 47.914062 53.0625 C 47.742188 53.1875 47.40625 53.378906 46.847656 53.484375 C 45.96875 53.648438 45.035156 53.375 45.035156 53.375 C 45.035156 53.375 45.089844 53.648438 46.242188 54.253906 C 46.933594 54.617188 47.382812 54.761719 47.636719 54.820312 C 47.796875 54.300781 47.875 53.609375 47.914062 53.0625 " fill-opacity="1" fill-rule="nonzero"/><path fill="#cf4e5c" d="M 123.351562 48.75 C 123.351562 48.75 128.628906 48.972656 129.726562 50.292969 C 130.824219 51.613281 132.144531 53.59375 134.34375 53.816406 C 136.542969 54.035156 138.375 53.945312 139.617188 54.253906 C 140.5 54.476562 140.675781 64.632812 138.300781 66.144531 C 131.046875 70.769531 132.144531 87.722656 132.144531 87.722656 C 132.144531 87.722656 129.945312 85.523438 128.847656 81.558594 C 127.484375 76.636719 127.96875 77.597656 127.96875 77.597656 C 127.96875 77.597656 129.285156 74.292969 126.210938 81.558594 C 123.132812 88.824219 123.570312 102.917969 125.769531 109.523438 C 127.96875 116.128906 129.945312 119.871094 129.945312 119.871094 C 129.945312 119.871094 121.371094 122.515625 115.4375 120.972656 C 109.5 119.429688 111.699219 119.871094 105.765625 120.53125 C 99.828125 121.191406 96.972656 113.707031 96.972656 113.707031 C 96.972656 113.707031 98.949219 119.871094 97.628906 120.53125 C 96.3125 121.191406 88.175781 123.175781 84 120.753906 C 79.824219 118.332031 79.824219 120.53125 76.746094 120.53125 C 73.667969 120.53125 73.007812 112.605469 73.007812 112.605469 C 73.007812 112.605469 73.667969 119.871094 73.667969 120.53125 C 73.667969 121.191406 67.511719 120.753906 65.972656 119.652344 C 64.433594 118.550781 64.433594 107.542969 65.535156 101.375 C 66.632812 95.210938 66.632812 92.789062 66.632812 92.789062 C 66.632812 92.789062 64.875 97.632812 64.433594 99.394531 C 63.996094 101.15625 63.554688 102.695312 63.554688 102.695312 C 63.554688 102.695312 59.378906 91.6875 64.875 80.898438 C 68.511719 73.757812 75.867188 74.511719 81.140625 74.511719 C 86.417969 74.511719 104.226562 72.972656 113.238281 53.59375 C 114.414062 51.070312 115.207031 46.703125 115.65625 44.789062 C 116.535156 41.042969 120.273438 38.621094 120.273438 39.28125 C 120.273438 39.945312 120.054688 48.089844 123.351562 48.75 " fill-opacity="1" fill-rule="nonzero"/><path fill="#293444" d="M 140.058594 54.035156 C 138.660156 53.160156 136.328125 55.476562 137.152344 56.304688 C 137.976562 57.128906 139.625 58.945312 140.285156 57.953125 C 140.945312 56.964844 141.378906 54.863281 140.058594 54.035156 " fill-opacity="1" fill-rule="nonzero"/><path fill="#ff7385" d="M 136.824219 61.753906 C 136.824219 61.753906 132.535156 69.183594 131.546875 74.796875 C 130.558594 80.410156 131.878906 85.199219 130.886719 83.054688 C 129.898438 80.90625 128.414062 78.761719 130.886719 71.988281 C 133.359375 65.21875 137.316406 60.761719 136.824219 61.753906 " fill-opacity="1" fill-rule="nonzero"/><path fill="#ff7385" d="M 132.042969 64.0625 C 131.382812 64.890625 128.578125 68.191406 127.753906 72.652344 C 127.375 74.703125 126.765625 72.15625 127.753906 69.183594 C 128.746094 66.210938 132.828125 63.082031 132.042969 64.0625 " fill-opacity="1" fill-rule="nonzero"/><path fill="#ff7385" d="M 122.972656 53.992188 C 124.097656 51.742188 127.589844 48.707031 130.394531 48.871094 C 133.195312 49.035156 135.503906 52.007812 133.855469 51.679688 C 132.207031 51.347656 133.691406 51.84375 132.703125 53 C 131.710938 54.15625 129.570312 52.667969 126.765625 53.332031 C 123.964844 53.992188 122.644531 54.652344 122.972656 53.992188 " fill-opacity="1" fill-rule="nonzero"/><path fill="#ff7385" d="M 124.953125 70.503906 C 124.371094 69.921875 120.832031 75.625 120.335938 81.402344 C 119.839844 87.183594 120.894531 84.332031 121.324219 82.230469 C 122.808594 74.964844 125.449219 71 124.953125 70.503906 " fill-opacity="1" fill-rule="nonzero"/><path fill="#ff7385" d="M 121.324219 88.832031 C 121.324219 88.832031 121.65625 100.558594 123.304688 106.339844 C 124.953125 112.117188 127.921875 118.558594 126.4375 116.574219 C 124.953125 114.59375 122.644531 112.117188 121.160156 103.367188 C 119.675781 94.613281 121.160156 87.84375 121.324219 88.832031 " fill-opacity="1" fill-rule="nonzero"/><path fill="#ff7385" d="M 118.523438 81.238281 C 117.664062 85.113281 116.875 100.0625 118.027344 104.851562 C 119.183594 109.640625 115.71875 104.6875 115.554688 95.273438 C 115.390625 85.863281 118.851562 79.75 118.523438 81.238281 " fill-opacity="1" fill-rule="nonzero"/><path fill="#ff7385" d="M 121.492188 64.726562 C 119.648438 67.308594 116.214844 72.15625 113.578125 74.46875 C 110.9375 76.777344 115.390625 74.964844 119.015625 70.339844 C 122.644531 65.714844 122.316406 63.566406 121.492188 64.726562 " fill-opacity="1" fill-rule="nonzero"/><path fill="#ff7385" d="M 119.347656 73.476562 C 117.828125 75 115.886719 78.597656 113.082031 81.074219 C 110.277344 83.550781 114.402344 81.402344 116.875 78.429688 C 119.347656 75.457031 120.007812 72.816406 119.347656 73.476562 " fill-opacity="1" fill-rule="nonzero"/><path fill="#ff7385" d="M 112.421875 87.183594 C 110.191406 91.097656 108.136719 101.714844 108.628906 108.484375 C 109.125 115.253906 112.585938 121.53125 111.761719 117.566406 C 110.9375 113.605469 109.785156 109.640625 110.609375 100.226562 C 111.433594 90.816406 113.082031 86.027344 112.421875 87.183594 " fill-opacity="1" fill-rule="nonzero"/><path fill="#ff7385" d="M 104.675781 89.328125 C 102.203125 95.097656 99.066406 104.191406 100.058594 107 C 101.046875 109.804688 101.871094 110.136719 101.542969 108.648438 C 101.210938 107.164062 101.375 102.042969 102.859375 96.59375 C 104.34375 91.144531 105.167969 88.171875 104.675781 89.328125 " fill-opacity="1" fill-rule="nonzero"/><path fill="#ff7385" d="M 105.664062 99.734375 C 105.042969 102.21875 104.34375 106.171875 105.332031 111.457031 C 106.324219 116.742188 108.136719 119.382812 107.804688 117.566406 C 107.476562 115.75 106.652344 112.449219 106.15625 107.328125 C 105.664062 102.210938 105.992188 98.410156 105.664062 99.734375 " fill-opacity="1" fill-rule="nonzero"/><path fill="#ff7385" d="M 71.535156 87.019531 C 70.777344 89.296875 68.402344 100.890625 68.898438 107.988281 C 69.390625 115.089844 71.207031 119.382812 71.039062 117.238281 C 70.875 115.089844 70.050781 111.457031 70.710938 101.878906 C 71.371094 92.300781 71.863281 86.027344 71.535156 87.019531 " fill-opacity="1" fill-rule="nonzero"/><path fill="#683457" d="M 77.140625 78.101562 C 75.988281 80.027344 73.84375 87.347656 74.007812 92.960938 C 74.171875 98.578125 75.65625 102.703125 75.65625 100.558594 C 75.65625 98.410156 74.996094 91.476562 75.820312 85.695312 C 76.644531 79.917969 77.636719 77.273438 77.140625 78.101562 " fill-opacity="1" fill-rule="nonzero"/><path fill="#ff7385" d="M 99.066406 73.148438 C 97.722656 74.269531 94.121094 80.90625 93.628906 87.019531 C 93.132812 93.128906 94.121094 96.101562 94.121094 94.777344 C 94.121094 93.457031 94.285156 86.191406 96.101562 80.90625 C 97.914062 75.625 100.058594 72.320312 99.066406 73.148438 " fill-opacity="1" fill-rule="nonzero"/><path fill="#ff7385" d="M 107.972656 67.695312 C 106.222656 70.617188 102.367188 75.789062 101.707031 80.246094 C 101.046875 84.707031 101.542969 88.007812 102.035156 86.191406 C 102.53125 84.375 103.847656 77.769531 105.828125 73.3125 C 107.804688 68.851562 108.464844 66.871094 107.972656 67.695312 " fill-opacity="1" fill-rule="nonzero"/><path fill="#ff7385" d="M 87.527344 89.164062 C 87.527344 92.996094 90.332031 109.640625 88.847656 114.925781 C 87.363281 120.207031 87.03125 118.0625 87.363281 115.914062 C 87.691406 113.769531 88.023438 107.988281 87.527344 100.394531 C 87.03125 92.796875 87.527344 88.503906 87.527344 89.164062 " fill-opacity="1" fill-rule="nonzero"/><path fill="#ff7385" d="M 90.164062 99.238281 C 90.164062 101.21875 91.484375 110.796875 93.628906 115.421875 C 95.769531 120.042969 96.925781 119.546875 96.429688 118.226562 C 95.9375 116.90625 93.460938 110.960938 91.980469 104.355469 C 90.496094 97.75 90.164062 98.082031 90.164062 99.238281 " fill-opacity="1" fill-rule="nonzero"/><path fill="#ff7385" d="M 81.261719 95.605469 C 81.261719 95.605469 82.582031 102.210938 82.085938 109.308594 C 81.59375 116.410156 78.128906 120.539062 79.117188 117.402344 C 80.109375 114.265625 79.941406 110.632812 80.4375 104.851562 C 80.933594 99.074219 80.933594 94.449219 81.261719 95.605469 " fill-opacity="1" fill-rule="nonzero"/><path fill="#ff7385" d="M 113.742188 101.714844 C 113.742188 105.035156 115.886719 111.621094 117.699219 115.253906 C 119.511719 118.886719 118.191406 118.0625 115.554688 113.4375 C 112.917969 108.816406 113.742188 100.226562 113.742188 101.714844 " fill-opacity="1" fill-rule="nonzero"/><path fill="#293444" d="M 22.238281 76.117188 C 22.238281 76.117188 23.226562 71.988281 31.140625 73.476562 C 39.054688 74.964844 40.375 79.75 40.375 79.75 L 46.308594 81.238281 C 46.308594 81.238281 46.144531 80.410156 44.332031 77.273438 C 42.519531 74.136719 42.023438 73.3125 42.023438 73.3125 L 39.054688 74.46875 C 39.054688 74.46875 36.515625 70.457031 31.636719 69.183594 C 27.84375 68.191406 24.875 69.679688 24.875 69.679688 C 24.875 69.679688 22.238281 75.292969 22.238281 76.117188 " fill-opacity="1" fill-rule="nonzero"/><path fill="#293444" d="M 44.496094 106.667969 L 36.253906 106.667969 L 36.089844 119.714844 L 53.269531 119.902344 C 53.269531 119.902344 47.132812 112.613281 44.496094 106.667969 " fill-opacity="1" fill-rule="nonzero"/><path fill="#293444" d="M 20.261719 103.695312 C 20.261719 103.695312 25.535156 105.347656 33.121094 106.007812 C 40.703125 106.667969 44.496094 106.667969 44.496094 106.667969 L 43.011719 111.457031 C 43.011719 111.457031 36.746094 111.953125 31.308594 110.464844 C 25.867188 108.980469 20.921875 107.824219 20.921875 107.824219 L 20.261719 103.695312 " fill-opacity="1" fill-rule="nonzero"/><path fill="#293444" d="M 65.105469 54.484375 C 65.105469 54.484375 67.574219 51.355469 72.519531 51.355469 C 77.464844 51.355469 89.851562 55.488281 90.347656 55.820312 C 90.839844 56.148438 90.707031 60.011719 90.542969 60.671875 C 90.375 61.332031 81.046875 64.164062 75.820312 64.890625 C 72.652344 65.328125 66.09375 64.0625 65.105469 62.90625 C 64.117188 61.753906 64.117188 55.476562 65.105469 54.484375 " fill-opacity="1" fill-rule="nonzero"/><path fill="#293444" d="M 87.691406 57.457031 C 87.691406 55.972656 93.957031 52.503906 94.285156 53.660156 C 94.617188 54.816406 94.945312 61.585938 93.792969 62.742188 C 92.636719 63.898438 88.023438 61.257812 87.691406 60.265625 C 87.363281 59.273438 87.691406 57.457031 87.691406 57.457031 " fill-opacity="1" fill-rule="nonzero"/><path fill="#293444" d="M 71.371094 70.175781 C 71.535156 70.835938 75.328125 77.273438 74.832031 78.925781 C 74.335938 80.578125 70.875 82.230469 69.722656 81.074219 C 68.566406 79.917969 67.25 71.328125 67.25 71.328125 L 71.371094 70.175781 " fill-opacity="1" fill-rule="nonzero"/><path fill="#db995b" d="M 61.796875 73.410156 C 61.796875 73.410156 65.09375 67.90625 64.214844 65.707031 C 63.335938 63.503906 63.335938 59.539062 63.996094 58.660156 C 64.65625 57.777344 64.875 63.0625 69.050781 62.84375 C 73.230469 62.621094 76.304688 62.183594 76.746094 63.945312 C 77.1875 65.707031 73.886719 71.652344 71.25 71.210938 C 68.613281 70.769531 68.832031 71.429688 67.953125 75.394531 C 67.074219 79.355469 61.796875 73.410156 61.796875 73.410156 " fill-opacity="1" fill-rule="nonzero"/><path fill="#6868ea" d="M 36.296875 75.613281 C 36.296875 75.613281 47.066406 82.878906 52.785156 82.878906 C 58.5 82.878906 62.457031 70.988281 62.457031 70.988281 L 69.929688 74.511719 C 69.929688 74.511719 68.542969 86.25 64.875 93.449219 C 59.378906 104.238281 43.988281 106.878906 43.988281 106.878906 C 43.988281 106.878906 36.957031 75.171875 36.296875 75.613281 " fill-opacity="1" fill-rule="nonzero"/><path fill="#293444" d="M 50.496094 118.941406 C 50.289062 118.941406 50.160156 118.9375 50.128906 118.9375 L 50.160156 118.164062 C 50.214844 118.171875 55.507812 118.347656 57.777344 115.867188 C 58.742188 114.8125 58.695312 113.898438 58.632812 112.742188 C 58.550781 111.257812 58.453125 109.410156 60.625 106.851562 C 62.152344 105.046875 64.484375 105.382812 66.742188 105.707031 C 68.746094 105.992188 70.816406 106.289062 72.324219 105.101562 C 73.679688 104.03125 74.5 101.863281 74.824219 98.476562 C 75.898438 87.28125 71.609375 78.738281 71.566406 78.652344 L 72.25 78.300781 C 72.296875 78.386719 76.6875 87.121094 75.589844 98.550781 C 75.242188 102.160156 74.332031 104.5 72.800781 105.707031 C 71.035156 107.097656 68.796875 106.777344 66.632812 106.46875 C 64.492188 106.160156 62.464844 105.871094 61.210938 107.351562 C 59.238281 109.675781 59.324219 111.28125 59.398438 112.699219 C 59.464844 113.929688 59.527344 115.09375 58.34375 116.390625 C 56.175781 118.757812 51.796875 118.941406 50.496094 118.941406 " fill-opacity="1" fill-rule="nonzero"/><path fill="#edeefe" d="M 91.265625 40.839844 C 90.039062 40.839844 89.292969 40.203125 89.28125 40.191406 C 89.140625 40.074219 89.128906 39.863281 89.25 39.726562 C 89.367188 39.589844 89.574219 39.574219 89.710938 39.695312 C 89.777344 39.75 91.320312 41.023438 93.695312 39.238281 C 96.460938 37.160156 98.988281 38.257812 100.882812 39.441406 C 101.039062 39.539062 101.085938 39.742188 100.988281 39.898438 C 100.890625 40.050781 100.6875 40.101562 100.535156 40.003906 C 98.710938 38.863281 96.519531 37.941406 94.089844 39.765625 C 93 40.585938 92.039062 40.839844 91.265625 40.839844 " fill-opacity="1" fill-rule="nonzero"/><path fill="#edeefe" d="M 91.113281 38.890625 C 90.257812 38.890625 89.75 38.457031 89.71875 38.429688 C 89.582031 38.3125 89.566406 38.101562 89.6875 37.964844 C 89.808594 37.828125 90.015625 37.8125 90.152344 37.933594 C 90.1875 37.960938 90.90625 38.546875 92.105469 37.992188 C 92.570312 37.777344 93.007812 37.445312 93.46875 37.089844 C 94.351562 36.414062 95.351562 35.648438 96.75 35.648438 C 98.84375 35.648438 99.695312 36.480469 99.734375 36.515625 C 99.859375 36.648438 99.859375 36.855469 99.734375 36.984375 C 99.601562 37.113281 99.394531 37.113281 99.265625 36.984375 C 99.261719 36.980469 98.542969 36.3125 96.75 36.3125 C 95.574219 36.3125 94.707031 36.972656 93.871094 37.613281 C 93.398438 37.976562 92.914062 38.347656 92.382812 38.589844 C 91.90625 38.8125 91.476562 38.890625 91.113281 38.890625 " fill-opacity="1" fill-rule="nonzero"/><path fill="#edeefe" d="M 85.167969 67.175781 C 83.488281 67.175781 82.183594 65.894531 82.117188 65.828125 C 81.988281 65.699219 81.988281 65.492188 82.117188 65.363281 C 82.246094 65.234375 82.453125 65.230469 82.585938 65.359375 C 82.601562 65.378906 84.226562 66.972656 85.984375 66.382812 C 86.761719 66.125 87.351562 65.800781 87.925781 65.488281 C 88.75 65.03125 89.53125 64.605469 90.597656 64.605469 C 92.375 64.605469 93.226562 65.558594 93.261719 65.597656 C 93.382812 65.734375 93.367188 65.945312 93.230469 66.0625 C 93.09375 66.183594 92.886719 66.171875 92.765625 66.03125 C 92.738281 66.003906 92.058594 65.265625 90.597656 65.265625 C 89.703125 65.265625 89.058594 65.617188 88.242188 66.066406 C 87.671875 66.378906 87.023438 66.730469 86.191406 67.011719 C 85.839844 67.128906 85.496094 67.175781 85.167969 67.175781 " fill-opacity="1" fill-rule="nonzero"/><path fill="#edeefe" d="M 86.09375 68.933594 C 84.722656 68.933594 83.449219 68.117188 83.382812 68.074219 C 83.230469 67.976562 83.183594 67.769531 83.285156 67.617188 C 83.382812 67.464844 83.585938 67.421875 83.738281 67.519531 C 83.757812 67.53125 85.492188 68.636719 86.859375 68.148438 C 87.550781 67.898438 88.136719 67.503906 88.65625 67.152344 C 89.277344 66.730469 89.8125 66.367188 90.375 66.367188 C 91.339844 66.367188 92.269531 66.941406 92.308594 66.964844 C 92.464844 67.0625 92.511719 67.265625 92.414062 67.421875 C 92.320312 67.578125 92.117188 67.625 91.960938 67.527344 C 91.953125 67.523438 91.144531 67.027344 90.375 67.027344 C 90.015625 67.027344 89.554688 67.335938 89.023438 67.699219 C 88.472656 68.070312 87.851562 68.492188 87.078125 68.769531 C 86.753906 68.882812 86.421875 68.933594 86.09375 68.933594 " fill-opacity="1" fill-rule="nonzero"/><path fill="#edeefe" d="M 129.726562 33.890625 C 128.875 33.890625 128.0625 33.492188 127.207031 33.070312 C 126.644531 32.792969 126.0625 32.507812 125.460938 32.335938 C 124.148438 31.957031 122.960938 33.417969 122.949219 33.433594 C 122.835938 33.574219 122.628906 33.601562 122.484375 33.484375 C 122.34375 33.371094 122.320312 33.164062 122.433594 33.019531 C 122.492188 32.945312 123.90625 31.199219 125.640625 31.699219 C 126.300781 31.886719 126.910156 32.1875 127.496094 32.476562 C 128.285156 32.863281 129.027344 33.226562 129.726562 33.226562 C 130.800781 33.226562 131.097656 32.832031 131.097656 32.828125 C 131.199219 32.683594 131.402344 32.640625 131.550781 32.738281 C 131.699219 32.832031 131.75 33.023438 131.660156 33.175781 C 131.613281 33.25 131.191406 33.890625 129.726562 33.890625 " fill-opacity="1" fill-rule="nonzero"/><path fill="#edeefe" d="M 130.28125 35.894531 C 129.882812 35.894531 129.425781 35.828125 128.941406 35.625 C 128.402344 35.402344 127.945312 35.128906 127.503906 34.867188 C 126.851562 34.480469 126.238281 34.117188 125.496094 33.996094 C 124.492188 33.820312 124.234375 34.386719 124.207031 34.449219 C 124.140625 34.617188 123.949219 34.699219 123.78125 34.632812 C 123.613281 34.566406 123.527344 34.382812 123.59375 34.210938 C 123.738281 33.820312 124.347656 33.132812 125.605469 33.34375 C 126.46875 33.488281 127.132812 33.878906 127.839844 34.296875 C 128.261719 34.550781 128.699219 34.808594 129.195312 35.015625 C 130.347656 35.496094 131.300781 35.042969 131.339844 35.023438 C 131.5 34.941406 131.699219 35.011719 131.78125 35.175781 C 131.859375 35.335938 131.796875 35.535156 131.632812 35.613281 C 131.597656 35.632812 131.058594 35.894531 130.28125 35.894531 " fill-opacity="1" fill-rule="nonzero"/></svg>