<svg xmlns="http://www.w3.org/2000/svg" xmlns:xlink="http://www.w3.org/1999/xlink" width="40" zoomAndPan="magnify" viewBox="0 0 30 30.000001" height="40" preserveAspectRatio="xMidYMid meet" version="1.0"><defs><clipPath id="0b34c044ad"><path d="M 7.273438 9.753906 L 23.085938 9.753906 L 23.085938 22.457031 L 7.273438 22.457031 Z M 7.273438 9.753906 " clip-rule="nonzero"/></clipPath><clipPath id="e5a407604a"><path d="M 6.289062 20 L 7 20 L 7 21 L 6.289062 21 Z M 6.289062 20 " clip-rule="nonzero"/></clipPath><clipPath id="24725d2f18"><path d="M 7.179688 20.492188 L 23.710938 20.492188 L 23.710938 20.6875 L 7.179688 20.6875 Z M 7.179688 20.492188 " clip-rule="nonzero"/></clipPath><clipPath id="9f7d3fa8f9"><path d="M 18 6.492188 L 21 6.492188 L 21 9 L 18 9 Z M 18 6.492188 " clip-rule="nonzero"/></clipPath></defs><g clip-path="url(#0b34c044ad)"><path fill="#ebebeb" d="M 21.949219 19.300781 C 21.414062 19.574219 20.734375 19.515625 20.242188 19.859375 C 19.75 20.210938 19.609375 20.859375 19.269531 21.351562 C 18.621094 22.285156 17.3125 22.558594 16.167969 22.421875 C 15.128906 22.296875 14.035156 21.820312 13.621094 20.882812 C 13.441406 20.480469 13.367188 19.976562 12.976562 19.753906 C 12.609375 19.542969 12.128906 19.695312 11.78125 19.9375 C 11.429688 20.179688 11.132812 20.503906 10.742188 20.671875 C 10.230469 20.898438 9.613281 20.8125 9.125 20.542969 C 8.640625 20.273438 8.269531 19.839844 7.984375 19.367188 C 7.113281 17.90625 7.046875 16.015625 7.8125 14.492188 C 8.058594 14.003906 8.394531 13.542969 8.859375 13.242188 C 9.894531 12.574219 11.261719 12.847656 12.488281 12.660156 C 12.917969 12.59375 13.359375 12.449219 13.636719 12.125 C 13.84375 11.878906 13.929688 11.558594 14.066406 11.269531 C 14.453125 10.449219 15.3125 9.855469 16.230469 9.773438 C 17.152344 9.691406 18.097656 10.117188 18.625 10.855469 C 18.957031 11.320312 19.234375 11.960938 19.8125 12.011719 C 19.992188 12.027344 20.175781 11.976562 20.355469 11.960938 C 20.996094 11.90625 21.601562 12.304688 21.953125 12.824219 C 22.308594 13.34375 23.035156 14.433594 23.078125 16.019531 C 23.128906 17.960938 22.65625 18.933594 21.949219 19.300781 " fill-opacity="1" fill-rule="nonzero"/></g><g clip-path="url(#e5a407604a)"><path fill="#000000" d="M 6.332031 20.6875 C 6.308594 20.6875 6.289062 20.671875 6.289062 20.648438 C 6.289062 20.625 6.308594 20.605469 6.332031 20.605469 L 6.777344 20.605469 L 6.777344 20.6875 L 6.332031 20.6875 " fill-opacity="1" fill-rule="nonzero"/></g><g clip-path="url(#24725d2f18)"><path fill="#000000" d="M 7.226562 20.6875 C 7.203125 20.6875 7.1875 20.667969 7.1875 20.648438 C 7.1875 20.625 7.203125 20.605469 7.226562 20.605469 C 9.945312 20.574219 12.742188 20.5625 15.449219 20.550781 C 18.152344 20.542969 20.949219 20.53125 23.667969 20.5 C 23.691406 20.5 23.710938 20.515625 23.710938 20.539062 C 23.710938 20.5625 23.691406 20.582031 23.667969 20.582031 C 20.953125 20.613281 18.152344 20.625 15.449219 20.632812 C 12.742188 20.644531 9.945312 20.652344 7.226562 20.6875 " fill-opacity="1" fill-rule="nonzero"/></g><path fill="#000000" d="M 15.125 15.996094 C 15.125 15.996094 15.121094 15.996094 15.121094 15.996094 C 15.101562 15.996094 15.082031 15.980469 15.082031 15.957031 L 15.085938 15.5 C 15.085938 15.480469 15.109375 15.460938 15.128906 15.460938 C 15.152344 15.460938 15.167969 15.480469 15.167969 15.503906 L 15.164062 15.957031 C 15.164062 15.980469 15.144531 15.996094 15.125 15.996094 " fill-opacity="1" fill-rule="nonzero"/><path fill="#000000" d="M 15.574219 16.207031 C 15.476562 16.207031 15.378906 16.203125 15.28125 16.191406 C 15.257812 16.191406 15.242188 16.171875 15.242188 16.148438 C 15.246094 16.125 15.265625 16.109375 15.289062 16.113281 C 15.433594 16.125 15.578125 16.128906 15.722656 16.121094 C 15.746094 16.121094 15.765625 16.136719 15.765625 16.160156 C 15.769531 16.183594 15.75 16.203125 15.726562 16.203125 C 15.675781 16.207031 15.625 16.207031 15.574219 16.207031 " fill-opacity="1" fill-rule="nonzero"/><path fill="#000000" d="M 15.125 16.988281 C 15.101562 16.988281 15.085938 16.96875 15.085938 16.949219 L 15.082031 16.371094 C 15.078125 16.347656 15.097656 16.328125 15.121094 16.328125 C 15.144531 16.328125 15.160156 16.347656 15.164062 16.371094 L 15.167969 16.945312 C 15.167969 16.96875 15.148438 16.988281 15.125 16.988281 " fill-opacity="1" fill-rule="nonzero"/><path fill="#ebebeb" d="M 16.972656 18.578125 C 17.058594 18.65625 17.0625 18.792969 16.980469 18.878906 C 16.898438 18.964844 16.761719 18.96875 16.675781 18.886719 C 16.589844 18.804688 16.585938 18.671875 16.667969 18.585938 C 16.75 18.5 16.886719 18.496094 16.972656 18.578125 " fill-opacity="1" fill-rule="nonzero"/><path fill="#ebebeb" d="M 17.839844 19.105469 C 17.894531 19.125 17.925781 19.1875 17.902344 19.242188 C 17.882812 19.300781 17.820312 19.328125 17.765625 19.308594 C 17.707031 19.285156 17.679688 19.226562 17.699219 19.167969 C 17.722656 19.113281 17.785156 19.085938 17.839844 19.105469 " fill-opacity="1" fill-rule="nonzero"/><path fill="#ebebeb" d="M 21.339844 11.207031 C 21.304688 11.160156 21.316406 11.09375 21.363281 11.058594 C 21.410156 11.023438 21.480469 11.035156 21.515625 11.082031 C 21.550781 11.128906 21.539062 11.195312 21.492188 11.230469 C 21.441406 11.265625 21.375 11.253906 21.339844 11.207031 " fill-opacity="1" fill-rule="nonzero"/><path fill="#ebebeb" d="M 11.976562 21.605469 C 11.941406 21.558594 11.953125 21.488281 12 21.457031 C 12.046875 21.421875 12.117188 21.429688 12.152344 21.480469 C 12.1875 21.527344 12.175781 21.59375 12.128906 21.628906 C 12.078125 21.664062 12.011719 21.652344 11.976562 21.605469 " fill-opacity="1" fill-rule="nonzero"/><path fill="#ebebeb" d="M 9.660156 12.269531 C 9.617188 12.207031 9.632812 12.121094 9.699219 12.074219 C 9.761719 12.027344 9.851562 12.039062 9.894531 12.101562 C 9.9375 12.160156 9.921875 12.246094 9.859375 12.292969 C 9.792969 12.339844 9.707031 12.328125 9.660156 12.269531 " fill-opacity="1" fill-rule="nonzero"/><path fill="#ebebeb" d="M 21.753906 11.863281 C 21.710938 11.800781 21.726562 11.714844 21.789062 11.667969 C 21.855469 11.621094 21.941406 11.632812 21.984375 11.695312 C 22.03125 11.753906 22.015625 11.84375 21.949219 11.886719 C 21.886719 11.933594 21.796875 11.921875 21.753906 11.863281 " fill-opacity="1" fill-rule="nonzero"/><path fill="#ebebeb" d="M 12.808594 21.25 C 12.746094 21.164062 12.769531 21.042969 12.859375 20.980469 C 12.945312 20.917969 13.066406 20.933594 13.128906 21.015625 C 13.191406 21.101562 13.167969 21.21875 13.078125 21.285156 C 12.992188 21.347656 12.867188 21.332031 12.808594 21.25 " fill-opacity="1" fill-rule="nonzero"/><path fill="#ffffff" d="M 17.851562 12.34375 C 17.980469 12.777344 17.9375 13.257812 17.738281 13.667969 C 17.683594 13.777344 17.613281 13.886719 17.597656 14.011719 C 17.578125 14.136719 17.625 14.28125 17.738281 14.328125 C 17.851562 14.375 17.980469 14.316406 18.085938 14.253906 C 18.402344 14.0625 18.691406 13.828125 18.945312 13.558594 C 18.996094 13.503906 19.046875 13.445312 19.0625 13.371094 C 19.074219 13.328125 19.070312 13.28125 19.0625 13.238281 C 19.035156 12.964844 19.007812 12.695312 18.980469 12.425781 C 19.367188 12.152344 19.648438 11.726562 19.746094 11.265625 C 19.921875 11.417969 20.242188 11.359375 20.347656 11.148438 C 20.453125 10.941406 20.3125 10.648438 20.082031 10.601562 C 20.160156 10.453125 20.15625 10.269531 20.09375 10.117188 C 20.035156 9.960938 19.925781 9.828125 19.804688 9.710938 C 19.421875 9.339844 18.914062 9.101562 18.378906 9.042969 C 18.140625 9.015625 17.890625 9.027344 17.675781 9.136719 C 17.351562 9.300781 17.167969 9.699219 17.25 10.050781 C 17.144531 10.496094 17.027344 10.78125 17.054688 10.945312 C 16.96875 11.523438 17.3125 12.140625 17.851562 12.34375 " fill-opacity="1" fill-rule="nonzero"/><path fill="#ffffff" d="M 20.214844 16.921875 C 20.207031 16.914062 20.230469 16.90625 20.234375 16.917969 C 20.238281 16.9375 20.15625 16.890625 20.148438 16.902344 C 20.035156 17.097656 19.84375 17.277344 19.617188 17.28125 C 19.515625 17.28125 19.410156 17.257812 19.308594 17.234375 C 18.824219 17.121094 18.339844 17.007812 17.878906 16.824219 C 17.417969 16.636719 16.980469 16.378906 16.648438 16.011719 C 16.472656 15.8125 16.324219 15.582031 16.125 15.40625 C 15.921875 15.230469 15.644531 15.105469 15.386719 15.175781 C 15.308594 15.199219 15.28125 15.234375 15.222656 15.289062 C 15.460938 15.480469 15.699219 15.5625 15.882812 15.785156 C 15.496094 15.847656 15.109375 15.902344 14.722656 15.972656 C 14.679688 15.980469 14.628906 15.992188 14.613281 16.03125 C 14.601562 16.054688 14.601562 16.078125 14.605469 16.101562 C 14.625 16.1875 14.703125 16.253906 14.792969 16.265625 C 14.847656 16.277344 14.898438 16.285156 14.953125 16.296875 C 14.882812 16.292969 14.832031 16.371094 14.839844 16.4375 C 14.851562 16.503906 14.910156 16.554688 14.972656 16.574219 C 15.039062 16.597656 15.109375 16.589844 15.175781 16.578125 C 15.144531 16.621094 15.101562 16.734375 15.125 16.785156 C 15.148438 16.832031 15.226562 16.84375 15.28125 16.839844 C 15.3125 16.839844 15.378906 16.839844 15.410156 16.847656 C 15.460938 16.863281 15.332031 16.941406 15.367188 16.980469 C 15.433594 17.054688 15.511719 17.09375 15.613281 17.097656 C 15.753906 17.101562 16.0625 16.996094 16.199219 16.96875 C 16.449219 17.175781 16.722656 17.386719 16.996094 17.597656 C 17.210938 17.765625 17.429688 17.933594 17.667969 18.074219 C 17.984375 18.261719 18.324219 18.394531 18.664062 18.527344 C 18.933594 18.636719 19.207031 18.742188 19.496094 18.785156 C 19.785156 18.824219 20.089844 18.796875 20.339844 18.644531 C 20.574219 18.5 20.730469 18.265625 20.871094 18.027344 C 21.113281 17.625 21.335938 17.175781 21.285156 16.710938 C 21.03125 16.816406 20.769531 16.921875 20.492188 16.925781 C 20.402344 16.925781 20.308594 16.914062 20.214844 16.921875 " fill-opacity="1" fill-rule="nonzero"/><path fill="#b4d2ba" d="M 16.390625 15.195312 C 16.460938 14.910156 16.519531 14.621094 16.574219 14.332031 C 16.601562 14.1875 16.636719 14.046875 16.664062 13.90625 C 16.671875 13.851562 16.679688 13.796875 16.691406 13.738281 C 16.652344 13.765625 16.617188 13.792969 16.582031 13.820312 C 16.203125 14.128906 15.847656 14.675781 15.695312 15.15625 C 15.9375 15.152344 16.15625 15.5 16.34375 15.660156 C 16.347656 15.636719 16.386719 15.222656 16.390625 15.195312 " fill-opacity="1" fill-rule="nonzero"/><path fill="#b4d2ba" d="M 19.148438 13.273438 C 19.058594 13.492188 18.890625 13.648438 18.722656 13.789062 C 18.550781 13.933594 18.371094 14.066406 18.1875 14.1875 C 18.074219 14.265625 17.933594 14.339844 17.804688 14.289062 C 17.707031 14.257812 17.644531 14.160156 17.628906 14.058594 C 17.609375 13.960938 17.628906 13.859375 17.65625 13.761719 C 17.707031 13.578125 17.785156 13.398438 17.90625 13.25 C 17.6875 13.28125 17.472656 13.339844 17.265625 13.421875 C 17.25 13.5625 17.199219 13.707031 17.171875 13.84375 C 17.132812 14.015625 17.101562 14.1875 17.066406 14.363281 C 17.023438 14.605469 16.976562 14.847656 16.957031 15.09375 C 17.25 15.117188 17.546875 15.140625 17.839844 15.15625 C 17.855469 15.15625 17.875 15.15625 17.890625 15.15625 C 18.019531 15.160156 18.148438 15.160156 18.277344 15.164062 C 18.398438 15.15625 18.523438 15.15625 18.644531 15.167969 C 18.820312 14.566406 19.042969 13.972656 19.308594 13.40625 C 19.324219 13.375 19.355469 13.355469 19.390625 13.351562 C 19.308594 13.324219 19.230469 13.296875 19.148438 13.273438 " fill-opacity="1" fill-rule="nonzero"/><path fill="#b4d2ba" d="M 21.351562 15.382812 C 21.3125 15.1875 21.234375 15.003906 21.148438 14.824219 C 21.023438 14.566406 20.882812 14.308594 20.6875 14.097656 C 20.46875 13.855469 20.195312 13.683594 19.898438 13.550781 C 19.785156 13.894531 19.671875 14.25 19.59375 14.609375 C 19.582031 14.78125 19.578125 14.957031 19.574219 15.128906 C 19.566406 15.265625 19.5625 15.402344 19.570312 15.539062 C 19.585938 15.648438 19.605469 15.757812 19.632812 15.871094 C 19.664062 16.011719 19.710938 16.144531 19.777344 16.277344 C 19.824219 16.371094 19.910156 16.441406 19.960938 16.527344 C 20 16.539062 20.027344 16.574219 20.027344 16.613281 C 20.027344 16.679688 20.019531 16.75 20.007812 16.820312 C 20.210938 16.914062 20.445312 16.933594 20.667969 16.902344 C 20.902344 16.871094 21.125 16.789062 21.347656 16.710938 C 21.363281 16.460938 21.371094 16.191406 21.375 15.921875 C 21.378906 15.742188 21.382812 15.558594 21.351562 15.382812 " fill-opacity="1" fill-rule="nonzero"/><path fill="#f6dfa8" d="M 20.417969 19.167969 C 20.414062 18.972656 20.425781 18.773438 20.40625 18.578125 C 19.96875 18.832031 19.410156 18.824219 18.921875 18.671875 C 18.429688 18.523438 17.992188 18.242188 17.5625 17.964844 C 17.292969 17.792969 17.027344 17.621094 16.757812 17.449219 C 16.683594 17.425781 16.613281 17.390625 16.550781 17.347656 C 16.546875 17.347656 16.546875 17.351562 16.542969 17.355469 C 16.527344 17.375 16.496094 17.386719 16.472656 17.394531 C 16.457031 17.402344 16.445312 17.40625 16.429688 17.410156 C 16.402344 17.417969 16.238281 17.433594 16.207031 17.441406 C 16.199219 17.441406 16.308594 17.84375 16.332031 17.925781 C 16.335938 17.929688 16.335938 17.933594 16.339844 17.941406 C 16.390625 18.089844 16.386719 18.261719 16.398438 18.417969 C 16.414062 18.542969 16.417969 18.667969 16.417969 18.796875 C 16.421875 18.882812 16.425781 18.972656 16.429688 19.058594 C 16.433594 19.203125 16.277344 20.207031 16.253906 20.351562 C 16.25 20.371094 19.328125 20.445312 20.710938 20.398438 C 20.597656 20.261719 20.425781 19.363281 20.417969 19.167969 " fill-opacity="1" fill-rule="nonzero"/><path fill="#000000" d="M 17.890625 13.304688 C 17.890625 13.304688 17.886719 13.304688 17.882812 13.304688 C 17.863281 13.300781 17.847656 13.277344 17.851562 13.253906 C 17.910156 12.9375 17.894531 12.726562 17.839844 12.402344 C 17.835938 12.382812 17.851562 12.359375 17.875 12.355469 C 17.898438 12.351562 17.917969 12.367188 17.921875 12.390625 C 17.976562 12.714844 17.992188 12.941406 17.933594 13.269531 C 17.929688 13.289062 17.910156 13.304688 17.890625 13.304688 " fill-opacity="1" fill-rule="nonzero"/><path fill="#000000" d="M 19.898438 11.183594 C 19.882812 11.183594 19.867188 11.175781 19.859375 11.164062 C 19.851562 11.140625 19.859375 11.117188 19.878906 11.109375 C 19.925781 11.085938 19.957031 11.042969 19.960938 10.996094 C 19.964844 10.949219 19.9375 10.902344 19.898438 10.882812 C 19.878906 10.875 19.867188 10.851562 19.875 10.832031 C 19.886719 10.808594 19.910156 10.800781 19.929688 10.808594 C 20.003906 10.839844 20.050781 10.921875 20.042969 11.003906 C 20.035156 11.078125 19.984375 11.148438 19.914062 11.179688 C 19.910156 11.183594 19.902344 11.183594 19.898438 11.183594 " fill-opacity="1" fill-rule="nonzero"/><path fill="#000000" d="M 18.082031 11.578125 C 18.078125 11.578125 18.074219 11.578125 18.070312 11.578125 C 17.996094 11.574219 17.925781 11.535156 17.882812 11.476562 C 17.855469 11.429688 17.859375 11.367188 17.894531 11.3125 C 17.914062 11.285156 17.941406 11.261719 17.964844 11.238281 C 17.972656 11.230469 17.980469 11.222656 17.988281 11.214844 C 18.105469 11.097656 18.167969 10.925781 18.152344 10.757812 C 18.152344 10.734375 18.167969 10.714844 18.191406 10.710938 C 18.214844 10.710938 18.234375 10.726562 18.234375 10.75 C 18.253906 10.941406 18.179688 11.136719 18.042969 11.273438 C 18.035156 11.28125 18.027344 11.289062 18.019531 11.296875 C 18 11.316406 17.976562 11.335938 17.964844 11.359375 C 17.949219 11.382812 17.9375 11.414062 17.949219 11.433594 C 17.976562 11.46875 18.027344 11.492188 18.074219 11.496094 C 18.101562 11.496094 18.132812 11.492188 18.164062 11.476562 C 18.1875 11.46875 18.210938 11.480469 18.21875 11.5 C 18.226562 11.519531 18.21875 11.542969 18.195312 11.554688 C 18.15625 11.570312 18.121094 11.578125 18.082031 11.578125 " fill-opacity="1" fill-rule="nonzero"/><path fill="#000000" d="M 19.601562 18.824219 C 19.515625 18.824219 19.429688 18.820312 19.339844 18.808594 C 18.875 18.746094 18.449219 18.535156 18.058594 18.320312 C 17.398438 17.953125 16.765625 17.523438 16.183594 17.046875 C 16.167969 17.03125 16.164062 17.007812 16.179688 16.988281 C 16.191406 16.972656 16.21875 16.96875 16.234375 16.984375 C 16.816406 17.457031 17.441406 17.882812 18.097656 18.25 C 18.480469 18.460938 18.898438 18.664062 19.351562 18.726562 C 19.835938 18.792969 20.296875 18.667969 20.589844 18.386719 C 20.722656 18.261719 20.832031 18.101562 20.933594 17.875 C 21.101562 17.523438 21.195312 17.148438 21.222656 16.757812 C 21.222656 16.734375 21.242188 16.71875 21.265625 16.71875 C 21.289062 16.722656 21.304688 16.742188 21.304688 16.761719 C 21.277344 17.164062 21.179688 17.546875 21.007812 17.910156 C 20.902344 18.144531 20.785156 18.316406 20.648438 18.445312 C 20.390625 18.691406 20.011719 18.824219 19.601562 18.824219 " fill-opacity="1" fill-rule="nonzero"/><path fill="#000000" d="M 15.824219 14.835938 C 15.820312 14.835938 15.8125 14.835938 15.808594 14.832031 C 15.785156 14.820312 15.78125 14.796875 15.789062 14.777344 C 16.015625 14.351562 16.289062 14.003906 16.609375 13.746094 C 16.976562 13.445312 17.394531 13.265625 17.820312 13.222656 C 17.84375 13.21875 17.863281 13.238281 17.863281 13.257812 C 17.867188 13.28125 17.851562 13.300781 17.828125 13.304688 C 17.417969 13.34375 17.015625 13.519531 16.660156 13.808594 C 16.351562 14.0625 16.082031 14.402344 15.863281 14.816406 C 15.855469 14.828125 15.839844 14.835938 15.824219 14.835938 " fill-opacity="1" fill-rule="nonzero"/><path fill="#000000" d="M 12.945312 11.460938 C 12.925781 11.460938 12.902344 11.464844 12.890625 11.480469 C 12.847656 11.515625 12.867188 11.597656 12.902344 11.652344 C 12.953125 11.726562 13.03125 11.785156 13.121094 11.8125 C 13.128906 11.726562 13.117188 11.644531 13.085938 11.578125 C 13.070312 11.542969 13.042969 11.496094 13 11.472656 C 12.984375 11.464844 12.964844 11.460938 12.945312 11.460938 Z M 12.097656 11.691406 C 12.054688 11.691406 12.015625 11.703125 11.988281 11.738281 C 11.964844 11.773438 11.960938 11.832031 11.988281 11.886719 C 12.015625 11.941406 12.0625 11.984375 12.109375 12.023438 C 12.210938 12.113281 12.34375 12.21875 12.503906 12.265625 C 12.546875 12.277344 12.585938 12.285156 12.625 12.289062 C 12.582031 12.054688 12.445312 11.851562 12.261719 11.738281 C 12.21875 11.710938 12.15625 11.691406 12.097656 11.691406 Z M 12.554688 13.101562 C 12.546875 13.101562 12.542969 13.101562 12.539062 13.097656 C 12.515625 13.089844 12.507812 13.066406 12.515625 13.042969 C 12.617188 12.8125 12.660156 12.582031 12.636719 12.371094 C 12.585938 12.371094 12.535156 12.359375 12.480469 12.34375 C 12.308594 12.292969 12.160156 12.179688 12.054688 12.085938 C 12.003906 12.042969 11.949219 11.988281 11.914062 11.921875 C 11.875 11.84375 11.878906 11.753906 11.921875 11.691406 C 12.003906 11.574219 12.179688 11.59375 12.304688 11.667969 C 12.511719 11.796875 12.664062 12.027344 12.710938 12.292969 C 12.792969 12.285156 12.871094 12.257812 12.933594 12.210938 C 13.050781 12.125 13.09375 11.988281 13.109375 11.894531 C 13 11.867188 12.898438 11.792969 12.832031 11.695312 C 12.78125 11.613281 12.757812 11.492188 12.832031 11.421875 C 12.882812 11.371094 12.96875 11.363281 13.039062 11.398438 C 13.089844 11.425781 13.132812 11.476562 13.164062 11.546875 C 13.199219 11.628906 13.210938 11.722656 13.203125 11.832031 C 13.210938 11.832031 13.222656 11.832031 13.230469 11.832031 C 13.363281 11.832031 13.492188 11.765625 13.566406 11.660156 C 13.578125 11.640625 13.605469 11.636719 13.625 11.648438 C 13.644531 11.660156 13.648438 11.6875 13.632812 11.707031 C 13.542969 11.835938 13.390625 11.914062 13.230469 11.914062 C 13.21875 11.914062 13.203125 11.914062 13.191406 11.910156 C 13.164062 12.070312 13.089844 12.199219 12.984375 12.277344 C 12.910156 12.332031 12.820312 12.363281 12.722656 12.371094 C 12.742188 12.59375 12.699219 12.835938 12.589844 13.078125 C 12.585938 13.09375 12.570312 13.101562 12.554688 13.101562 " fill-opacity="1" fill-rule="nonzero"/><path fill="#000000" d="M 22.167969 12.851562 C 22.160156 12.851562 22.15625 12.851562 22.148438 12.855469 C 22.132812 12.863281 22.117188 12.878906 22.105469 12.894531 C 22.039062 12.976562 21.988281 13.070312 21.953125 13.171875 C 22.011719 13.15625 22.0625 13.136719 22.113281 13.105469 C 22.167969 13.074219 22.238281 13.023438 22.246094 12.949219 C 22.25 12.921875 22.230469 12.882812 22.203125 12.863281 C 22.195312 12.859375 22.179688 12.851562 22.167969 12.851562 Z M 22.019531 14.089844 C 22.007812 14.089844 21.996094 14.082031 21.988281 14.070312 C 21.828125 13.835938 21.78125 13.542969 21.839844 13.269531 C 21.570312 13.289062 21.285156 13.164062 21.136719 12.9375 C 21.125 12.917969 21.128906 12.890625 21.148438 12.878906 C 21.167969 12.867188 21.191406 12.871094 21.207031 12.890625 C 21.34375 13.101562 21.609375 13.214844 21.859375 13.1875 C 21.898438 13.0625 21.957031 12.945312 22.039062 12.84375 C 22.058594 12.820312 22.082031 12.796875 22.117188 12.78125 C 22.160156 12.761719 22.210938 12.769531 22.25 12.796875 C 22.304688 12.835938 22.332031 12.902344 22.328125 12.960938 C 22.316406 13.066406 22.226562 13.136719 22.15625 13.175781 C 22.085938 13.21875 22.007812 13.246094 21.929688 13.261719 C 21.867188 13.519531 21.90625 13.804688 22.054688 14.023438 C 22.066406 14.042969 22.0625 14.070312 22.042969 14.082031 C 22.039062 14.085938 22.027344 14.089844 22.019531 14.089844 " fill-opacity="1" fill-rule="nonzero"/><path fill="#000000" d="M 17.84375 14.355469 C 17.8125 14.355469 17.785156 14.351562 17.753906 14.339844 C 17.664062 14.308594 17.59375 14.21875 17.574219 14.105469 C 17.554688 14.007812 17.574219 13.910156 17.597656 13.824219 C 17.652344 13.621094 17.742188 13.429688 17.859375 13.257812 C 17.875 13.238281 17.898438 13.234375 17.917969 13.246094 C 17.9375 13.257812 17.941406 13.285156 17.929688 13.300781 C 17.816406 13.46875 17.730469 13.652344 17.675781 13.847656 C 17.65625 13.921875 17.636719 14.007812 17.652344 14.09375 C 17.667969 14.171875 17.71875 14.242188 17.78125 14.261719 C 17.863281 14.292969 17.953125 14.253906 18.035156 14.214844 C 18.457031 14.003906 18.820312 13.664062 19.058594 13.257812 C 19.066406 13.238281 19.09375 13.230469 19.113281 13.242188 C 19.132812 13.253906 19.140625 13.277344 19.128906 13.296875 C 18.882812 13.71875 18.507812 14.070312 18.070312 14.289062 C 18 14.324219 17.921875 14.355469 17.84375 14.355469 " fill-opacity="1" fill-rule="nonzero"/><path fill="#000000" d="M 20.023438 16.527344 C 20.011719 16.527344 20.003906 16.523438 19.996094 16.515625 C 19.53125 16.089844 19.5 15.410156 19.523438 15.039062 C 19.554688 14.507812 19.691406 13.992188 19.824219 13.507812 C 19.832031 13.488281 19.855469 13.472656 19.875 13.480469 C 19.898438 13.488281 19.910156 13.507812 19.90625 13.53125 C 19.769531 14.007812 19.636719 14.519531 19.605469 15.046875 C 19.582031 15.398438 19.613281 16.054688 20.050781 16.457031 C 20.066406 16.472656 20.070312 16.496094 20.054688 16.511719 C 20.046875 16.523438 20.035156 16.527344 20.023438 16.527344 " fill-opacity="1" fill-rule="nonzero"/><path fill="#000000" d="M 16.363281 15.328125 C 16.363281 15.328125 16.359375 15.328125 16.355469 15.328125 C 16.335938 15.324219 16.320312 15.300781 16.324219 15.28125 L 16.617188 13.800781 C 16.621094 13.777344 16.640625 13.761719 16.664062 13.765625 C 16.6875 13.769531 16.699219 13.792969 16.695312 13.816406 L 16.40625 15.296875 C 16.402344 15.316406 16.382812 15.328125 16.363281 15.328125 " fill-opacity="1" fill-rule="nonzero"/><path fill="#000000" d="M 18.359375 15.210938 C 18.226562 15.210938 18.046875 15.207031 17.800781 15.199219 C 17.371094 15.183594 16.9375 15.160156 16.933594 15.160156 C 16.921875 15.15625 16.914062 15.152344 16.90625 15.144531 C 16.898438 15.136719 16.894531 15.125 16.894531 15.113281 C 16.960938 14.542969 17.066406 13.96875 17.210938 13.410156 C 17.214844 13.390625 17.238281 13.375 17.261719 13.382812 C 17.28125 13.386719 17.296875 13.410156 17.289062 13.429688 C 17.152344 13.972656 17.046875 14.527344 16.980469 15.078125 C 17.585938 15.113281 18.523438 15.148438 18.65625 15.113281 C 18.839844 14.472656 19.039062 13.933594 19.300781 13.375 C 19.3125 13.355469 19.335938 13.347656 19.355469 13.355469 C 19.378906 13.367188 19.386719 13.390625 19.375 13.410156 C 19.113281 13.96875 18.914062 14.503906 18.730469 15.152344 C 18.71875 15.183594 18.707031 15.210938 18.359375 15.210938 " fill-opacity="1" fill-rule="nonzero"/><path fill="#ffffff" d="M 18.054688 16.390625 C 18.046875 16.390625 18.035156 16.386719 18.027344 16.378906 C 18.011719 16.363281 18.011719 16.335938 18.027344 16.320312 L 19.265625 15.042969 C 19.28125 15.027344 19.304688 15.027344 19.320312 15.042969 C 19.339844 15.058594 19.339844 15.082031 19.324219 15.097656 L 18.085938 16.375 C 18.078125 16.382812 18.066406 16.390625 18.054688 16.390625 " fill-opacity="1" fill-rule="nonzero"/><path fill="#ffffff" d="M 18.507812 16.746094 C 18.5 16.746094 18.488281 16.742188 18.480469 16.738281 C 18.464844 16.722656 18.464844 16.695312 18.480469 16.679688 L 19.304688 15.796875 C 19.320312 15.78125 19.347656 15.777344 19.363281 15.792969 C 19.378906 15.808594 19.382812 15.835938 19.367188 15.851562 L 18.539062 16.734375 C 18.53125 16.742188 18.519531 16.746094 18.507812 16.746094 " fill-opacity="1" fill-rule="nonzero"/><path fill="#ffffff" d="M 19.160156 16.9375 C 19.148438 16.9375 19.140625 16.933594 19.132812 16.929688 C 19.117188 16.914062 19.113281 16.886719 19.128906 16.871094 L 19.558594 16.433594 C 19.574219 16.414062 19.597656 16.414062 19.617188 16.429688 C 19.632812 16.445312 19.632812 16.472656 19.617188 16.488281 L 19.191406 16.925781 C 19.179688 16.933594 19.171875 16.9375 19.160156 16.9375 " fill-opacity="1" fill-rule="nonzero"/><path fill="#ffffff" d="M 16.558594 18.128906 C 16.546875 18.128906 16.535156 18.121094 16.527344 18.113281 C 16.511719 18.09375 16.515625 18.070312 16.53125 18.054688 L 16.820312 17.832031 C 16.835938 17.816406 16.863281 17.820312 16.875 17.839844 C 16.890625 17.855469 16.886719 17.882812 16.871094 17.894531 L 16.582031 18.121094 C 16.574219 18.125 16.566406 18.128906 16.558594 18.128906 " fill-opacity="1" fill-rule="nonzero"/><path fill="#ffffff" d="M 16.59375 19.792969 C 16.585938 19.792969 16.574219 19.789062 16.566406 19.78125 C 16.550781 19.761719 16.550781 19.738281 16.566406 19.722656 C 16.71875 19.578125 16.953125 19.332031 17.179688 19.09375 C 17.410156 18.855469 17.644531 18.605469 17.796875 18.460938 C 17.8125 18.445312 17.839844 18.445312 17.855469 18.464844 C 17.871094 18.480469 17.871094 18.503906 17.851562 18.519531 C 17.703125 18.664062 17.46875 18.910156 17.238281 19.148438 C 17.011719 19.390625 16.777344 19.636719 16.625 19.78125 C 16.617188 19.789062 16.605469 19.792969 16.59375 19.792969 " fill-opacity="1" fill-rule="nonzero"/><path fill="#ffffff" d="M 17.148438 20.203125 C 17.140625 20.203125 17.128906 20.199219 17.121094 20.191406 C 17.105469 20.175781 17.105469 20.148438 17.121094 20.132812 C 17.230469 20.027344 17.476562 19.734375 17.71875 19.457031 C 17.960938 19.175781 18.210938 18.882812 18.320312 18.773438 C 18.335938 18.757812 18.363281 18.757812 18.378906 18.773438 C 18.394531 18.789062 18.394531 18.8125 18.378906 18.832031 C 18.269531 18.9375 18.023438 19.226562 17.78125 19.507812 C 17.539062 19.789062 17.289062 20.082031 17.179688 20.191406 C 17.171875 20.199219 17.160156 20.203125 17.148438 20.203125 " fill-opacity="1" fill-rule="nonzero"/><path fill="#ffffff" d="M 17.949219 20.253906 C 17.9375 20.253906 17.929688 20.25 17.921875 20.246094 C 17.902344 20.230469 17.902344 20.203125 17.917969 20.1875 C 17.980469 20.113281 18.199219 19.867188 18.414062 19.628906 C 18.628906 19.390625 18.851562 19.144531 18.914062 19.070312 C 18.925781 19.054688 18.953125 19.050781 18.972656 19.066406 C 18.988281 19.082031 18.988281 19.109375 18.976562 19.125 C 18.910156 19.195312 18.691406 19.445312 18.476562 19.683594 C 18.261719 19.921875 18.042969 20.167969 17.980469 20.242188 C 17.96875 20.25 17.960938 20.253906 17.949219 20.253906 " fill-opacity="1" fill-rule="nonzero"/><path fill="#ffffff" d="M 18.734375 20.253906 C 18.726562 20.253906 18.71875 20.253906 18.710938 20.246094 C 18.691406 20.234375 18.691406 20.207031 18.703125 20.1875 C 18.757812 20.121094 18.96875 19.886719 19.195312 19.640625 C 19.410156 19.40625 19.632812 19.164062 19.683594 19.097656 C 19.699219 19.078125 19.722656 19.074219 19.742188 19.089844 C 19.761719 19.101562 19.765625 19.128906 19.75 19.144531 C 19.695312 19.214844 19.484375 19.449219 19.257812 19.695312 C 19.042969 19.929688 18.820312 20.171875 18.769531 20.238281 C 18.761719 20.25 18.75 20.253906 18.734375 20.253906 " fill-opacity="1" fill-rule="nonzero"/><path fill="#ffffff" d="M 19.558594 20.269531 C 19.550781 20.269531 19.539062 20.265625 19.535156 20.257812 C 19.515625 20.246094 19.511719 20.21875 19.527344 20.203125 C 19.550781 20.167969 19.621094 20.082031 19.710938 19.976562 C 19.855469 19.804688 20.03125 19.589844 20.136719 19.457031 C 20.148438 19.4375 20.175781 19.4375 20.191406 19.449219 C 20.210938 19.464844 20.214844 19.488281 20.199219 19.507812 C 20.097656 19.640625 19.917969 19.855469 19.777344 20.027344 C 19.691406 20.128906 19.617188 20.21875 19.589844 20.25 C 19.582031 20.261719 19.570312 20.269531 19.558594 20.269531 " fill-opacity="1" fill-rule="nonzero"/><path fill="#f6dfa8" d="M 14.757812 15.9375 C 14.527344 15.667969 14.320312 15.382812 14.136719 15.082031 C 14.074219 14.976562 14.007812 14.855469 14.039062 14.734375 C 14.0625 14.632812 14.152344 14.554688 14.234375 14.488281 C 14.34375 14.398438 14.472656 14.304688 14.613281 14.332031 C 14.707031 14.351562 14.78125 14.421875 14.851562 14.492188 C 15.0625 14.710938 15.277344 14.933594 15.492188 15.152344 C 15.4375 15.140625 15.378906 15.132812 15.324219 15.148438 C 15.269531 15.164062 15.21875 15.207031 15.21875 15.265625 C 15.21875 15.335938 15.292969 15.386719 15.359375 15.417969 C 15.5625 15.523438 15.773438 15.648438 15.886719 15.847656 C 15.554688 15.902344 15.222656 15.941406 14.886719 15.960938 C 14.824219 15.964844 14.753906 15.96875 14.757812 15.9375 " fill-opacity="1" fill-rule="nonzero"/><path fill="#ffffff" d="M 17.410156 16.230469 C 17.402344 16.230469 17.390625 16.226562 17.382812 16.222656 C 17.367188 16.207031 17.367188 16.179688 17.382812 16.164062 C 17.613281 15.90625 17.859375 15.65625 18.117188 15.421875 C 18.132812 15.40625 18.15625 15.40625 18.171875 15.421875 C 18.1875 15.4375 18.1875 15.464844 18.171875 15.480469 C 17.917969 15.714844 17.671875 15.960938 17.441406 16.21875 C 17.433594 16.226562 17.421875 16.230469 17.410156 16.230469 " fill-opacity="1" fill-rule="nonzero"/><path fill="#ffffff" d="M 19.074219 14.644531 C 19.066406 14.644531 19.054688 14.640625 19.046875 14.632812 C 19.03125 14.617188 19.03125 14.589844 19.046875 14.574219 C 19.167969 14.449219 19.296875 14.335938 19.4375 14.234375 C 19.457031 14.21875 19.484375 14.222656 19.496094 14.242188 C 19.507812 14.261719 19.503906 14.285156 19.488281 14.300781 C 19.351562 14.398438 19.222656 14.511719 19.105469 14.632812 C 19.097656 14.640625 19.085938 14.644531 19.074219 14.644531 " fill-opacity="1" fill-rule="nonzero"/><path fill="#ffffff" d="M 19.316406 13.929688 C 19.304688 13.929688 19.292969 13.925781 19.285156 13.921875 C 19.269531 13.902344 19.269531 13.878906 19.285156 13.863281 C 19.367188 13.78125 19.453125 13.707031 19.546875 13.644531 C 19.566406 13.632812 19.589844 13.636719 19.605469 13.65625 C 19.617188 13.671875 19.613281 13.699219 19.59375 13.710938 C 19.503906 13.773438 19.421875 13.84375 19.34375 13.917969 C 19.335938 13.925781 19.324219 13.929688 19.316406 13.929688 " fill-opacity="1" fill-rule="nonzero"/><path fill="#ffffff" d="M 12.398438 16.996094 C 12.738281 17.097656 13.078125 17.203125 13.417969 17.308594 C 13.675781 17.386719 13.953125 17.464844 14.207031 17.378906 C 14.554688 17.265625 14.734375 16.894531 14.839844 16.5625 C 14.945312 16.601562 15.0625 16.617188 15.175781 16.605469 C 15.105469 16.65625 15.128906 16.78125 15.199219 16.828125 C 15.273438 16.878906 15.371094 16.871094 15.453125 16.839844 C 15.445312 16.886719 15.464844 16.9375 15.503906 16.96875 C 15.527344 16.988281 15.558594 17.003906 15.589844 17.019531 C 15.675781 17.066406 15.742188 17.148438 15.769531 17.246094 C 15.554688 17.648438 15.222656 17.988281 14.804688 18.207031 C 14.652344 18.007812 14.433594 17.863281 14.195312 17.800781 C 14.234375 18 14.269531 18.203125 14.300781 18.402344 C 13.972656 18.40625 13.640625 18.339844 13.335938 18.214844 C 13.300781 18.203125 13.269531 18.1875 13.242188 18.164062 C 13.214844 18.140625 13.191406 18.105469 13.171875 18.074219 C 12.941406 17.714844 12.691406 17.367188 12.398438 16.996094 " fill-opacity="1" fill-rule="nonzero"/><path fill="#ffffff" d="M 16.878906 15.949219 C 16.867188 15.949219 16.855469 15.945312 16.847656 15.9375 C 16.832031 15.921875 16.832031 15.894531 16.847656 15.878906 C 17.027344 15.710938 17.210938 15.542969 17.394531 15.382812 C 17.414062 15.367188 17.4375 15.371094 17.453125 15.386719 C 17.46875 15.40625 17.46875 15.429688 17.449219 15.445312 C 17.265625 15.605469 17.082031 15.769531 16.90625 15.9375 C 16.898438 15.945312 16.886719 15.949219 16.878906 15.949219 " fill-opacity="1" fill-rule="nonzero"/><path fill="#ffffff" d="M 16.707031 15.566406 C 16.695312 15.566406 16.6875 15.5625 16.679688 15.554688 C 16.664062 15.539062 16.660156 15.511719 16.675781 15.496094 C 16.742188 15.425781 16.816406 15.367188 16.894531 15.3125 C 16.914062 15.296875 16.9375 15.304688 16.953125 15.320312 C 16.964844 15.339844 16.960938 15.363281 16.941406 15.378906 C 16.867188 15.429688 16.800781 15.488281 16.738281 15.550781 C 16.730469 15.5625 16.71875 15.566406 16.707031 15.566406 " fill-opacity="1" fill-rule="nonzero"/><path fill="#ffffff" d="M 16.59375 14.992188 C 16.585938 14.992188 16.578125 14.992188 16.570312 14.984375 C 16.550781 14.96875 16.550781 14.941406 16.566406 14.925781 L 16.738281 14.730469 C 16.753906 14.710938 16.777344 14.710938 16.796875 14.726562 C 16.8125 14.742188 16.8125 14.765625 16.800781 14.78125 L 16.625 14.980469 C 16.617188 14.988281 16.605469 14.992188 16.59375 14.992188 " fill-opacity="1" fill-rule="nonzero"/><path fill="#f6dfa8" d="M 15.6875 17.082031 C 15.792969 17.222656 15.785156 17.21875 15.929688 17.316406 C 16.074219 17.410156 16.253906 17.464844 16.425781 17.429688 C 16.4375 17.429688 16.449219 17.425781 16.460938 17.417969 C 16.46875 17.410156 16.472656 17.402344 16.480469 17.394531 C 16.492188 17.371094 16.507812 17.351562 16.519531 17.328125 C 16.527344 17.320312 16.53125 17.308594 16.53125 17.300781 C 16.535156 17.285156 16.519531 17.269531 16.507812 17.261719 C 16.429688 17.183594 16.351562 17.109375 16.269531 17.03125 C 16.25 17.011719 16.238281 17.039062 16.210938 17.027344 C 16.175781 17.015625 16.160156 17.035156 16.125 17.039062 C 15.957031 17.054688 15.878906 17.109375 15.6875 17.082031 " fill-opacity="1" fill-rule="nonzero"/><path fill="#ffffff" d="M 16.699219 14.390625 C 16.691406 14.390625 16.683594 14.386719 16.675781 14.382812 C 16.65625 14.367188 16.65625 14.339844 16.667969 14.324219 C 16.738281 14.234375 16.8125 14.144531 16.890625 14.0625 C 16.90625 14.046875 16.933594 14.046875 16.949219 14.0625 C 16.964844 14.078125 16.96875 14.101562 16.953125 14.121094 C 16.875 14.199219 16.800781 14.285156 16.734375 14.375 C 16.726562 14.382812 16.714844 14.390625 16.699219 14.390625 " fill-opacity="1" fill-rule="nonzero"/><path fill="#f6dfa8" d="M 16.671875 13.867188 C 16.675781 13.835938 16.675781 13.800781 16.695312 13.773438 C 16.707031 13.753906 16.730469 13.738281 16.753906 13.722656 C 16.914062 13.613281 17.078125 13.507812 17.25 13.414062 C 17.113281 13.96875 17.019531 14.535156 16.96875 15.101562 C 17.539062 15.109375 18.109375 15.136719 18.664062 15.160156 C 18.878906 14.546875 19.109375 13.9375 19.363281 13.335938 C 19.5 13.359375 19.71875 13.410156 19.855469 13.472656 C 19.859375 13.832031 19.695312 14.171875 19.632812 14.523438 C 19.574219 14.878906 19.523438 15.238281 19.582031 15.59375 C 19.636719 15.949219 19.8125 16.296875 20.070312 16.507812 C 20.046875 16.605469 20.023438 16.699219 20 16.796875 C 20.0625 16.785156 20.132812 16.816406 20.167969 16.867188 C 20.109375 16.949219 20.054688 17.027344 20 17.109375 C 19.96875 17.15625 19.933594 17.203125 19.890625 17.234375 C 19.84375 17.265625 19.785156 17.285156 19.703125 17.257812 C 19.277344 17.25 18.859375 17.128906 18.453125 17 C 18.0625 16.878906 17.671875 16.746094 17.316406 16.546875 C 16.960938 16.347656 16.636719 16.074219 16.4375 15.71875 C 16.175781 15.4375 16.542969 14.847656 16.671875 13.867188 " fill-opacity="1" fill-rule="nonzero"/><path fill="#000000" d="M 18.4375 12.550781 C 18.183594 12.550781 17.742188 12.464844 17.464844 12.15625 C 16.90625 11.527344 17.027344 10.761719 17.042969 10.675781 L 17.230469 9.648438 C 17.234375 9.625 17.257812 9.609375 17.28125 9.613281 C 17.300781 9.617188 17.316406 9.640625 17.3125 9.660156 L 17.125 10.691406 C 17.109375 10.769531 16.996094 11.503906 17.527344 12.101562 C 17.855469 12.464844 18.441406 12.496094 18.574219 12.453125 C 18.597656 12.445312 18.621094 12.460938 18.628906 12.480469 C 18.632812 12.503906 18.621094 12.523438 18.601562 12.53125 C 18.566406 12.542969 18.511719 12.550781 18.4375 12.550781 " fill-opacity="1" fill-rule="nonzero"/><path fill="#000000" d="M 17.890625 13.304688 C 17.890625 13.304688 17.886719 13.304688 17.882812 13.304688 C 17.863281 13.300781 17.847656 13.277344 17.851562 13.253906 C 17.910156 12.9375 17.894531 12.726562 17.839844 12.402344 C 17.835938 12.382812 17.851562 12.359375 17.875 12.355469 C 17.898438 12.351562 17.917969 12.367188 17.921875 12.390625 C 17.976562 12.714844 17.992188 12.941406 17.933594 13.269531 C 17.929688 13.289062 17.910156 13.304688 17.890625 13.304688 " fill-opacity="1" fill-rule="nonzero"/><path fill="#000000" d="M 19.898438 11.183594 C 19.882812 11.183594 19.867188 11.175781 19.859375 11.164062 C 19.851562 11.140625 19.859375 11.117188 19.878906 11.109375 C 19.925781 11.085938 19.957031 11.042969 19.960938 10.996094 C 19.964844 10.949219 19.9375 10.902344 19.898438 10.882812 C 19.878906 10.875 19.867188 10.851562 19.875 10.832031 C 19.886719 10.808594 19.910156 10.800781 19.929688 10.808594 C 20.003906 10.839844 20.050781 10.921875 20.042969 11.003906 C 20.035156 11.078125 19.984375 11.148438 19.914062 11.179688 C 19.910156 11.183594 19.902344 11.183594 19.898438 11.183594 " fill-opacity="1" fill-rule="nonzero"/><path fill="#000000" d="M 20.488281 16.941406 C 20.316406 16.941406 20.144531 16.914062 19.96875 16.839844 C 19.953125 16.832031 19.941406 16.8125 19.945312 16.792969 C 20.082031 16.261719 20.054688 15.683594 19.875 15.164062 C 19.867188 15.144531 19.878906 15.121094 19.902344 15.113281 C 19.921875 15.105469 19.945312 15.117188 19.953125 15.136719 C 20.132812 15.660156 20.164062 16.238281 20.035156 16.777344 C 20.5 16.960938 20.953125 16.808594 21.355469 16.667969 C 21.441406 15.921875 21.34375 15.238281 21.082031 14.691406 C 20.769531 14.042969 20.199219 13.566406 19.566406 13.425781 C 19.527344 13.417969 19.488281 13.410156 19.453125 13.402344 C 19.316406 13.375 19.175781 13.347656 19.050781 13.273438 C 19.042969 13.269531 19.039062 13.261719 19.035156 13.25 C 18.945312 12.996094 18.925781 12.714844 18.90625 12.445312 C 18.90625 12.441406 18.90625 12.4375 18.90625 12.433594 C 18.902344 12.414062 18.894531 12.363281 18.941406 12.347656 C 19.144531 12.273438 19.382812 11.988281 19.515625 11.75 C 19.523438 11.730469 19.550781 11.722656 19.570312 11.734375 C 19.589844 11.742188 19.597656 11.769531 19.585938 11.789062 C 19.457031 12.027344 19.214844 12.324219 18.984375 12.417969 C 18.984375 12.417969 18.984375 12.417969 18.988281 12.421875 C 18.988281 12.425781 18.988281 12.433594 18.988281 12.4375 C 19.007812 12.699219 19.023438 12.96875 19.105469 13.210938 C 19.214844 13.273438 19.335938 13.296875 19.46875 13.320312 C 19.507812 13.328125 19.546875 13.335938 19.582031 13.34375 C 20.242188 13.492188 20.832031 13.984375 21.15625 14.65625 C 21.429688 15.222656 21.523438 15.929688 21.433594 16.703125 C 21.433594 16.71875 21.421875 16.730469 21.40625 16.734375 C 21.136719 16.832031 20.820312 16.941406 20.488281 16.941406 " fill-opacity="1" fill-rule="nonzero"/><path fill="#000000" d="M 19.601562 18.824219 C 19.515625 18.824219 19.429688 18.820312 19.339844 18.808594 C 18.875 18.746094 18.449219 18.535156 18.058594 18.320312 C 17.398438 17.953125 16.765625 17.523438 16.183594 17.046875 C 16.167969 17.03125 16.164062 17.007812 16.179688 16.988281 C 16.191406 16.972656 16.21875 16.96875 16.234375 16.984375 C 16.816406 17.457031 17.441406 17.882812 18.097656 18.25 C 18.480469 18.460938 18.898438 18.664062 19.351562 18.726562 C 19.835938 18.792969 20.296875 18.667969 20.589844 18.386719 C 20.722656 18.261719 20.832031 18.101562 20.933594 17.875 C 21.101562 17.523438 21.195312 17.148438 21.222656 16.757812 C 21.222656 16.734375 21.242188 16.71875 21.265625 16.71875 C 21.289062 16.722656 21.304688 16.742188 21.304688 16.761719 C 21.277344 17.164062 21.179688 17.546875 21.007812 17.910156 C 20.902344 18.144531 20.785156 18.316406 20.648438 18.445312 C 20.390625 18.691406 20.011719 18.824219 19.601562 18.824219 " fill-opacity="1" fill-rule="nonzero"/><path fill="#000000" d="M 19.796875 17.304688 C 19.773438 17.304688 19.753906 17.300781 19.734375 17.296875 C 19.222656 17.246094 18.757812 17.101562 18.265625 16.953125 C 18.199219 16.933594 18.132812 16.914062 18.066406 16.894531 C 17.382812 16.710938 16.824219 16.34375 16.492188 15.867188 C 16.347656 15.652344 16.160156 15.460938 15.945312 15.320312 C 15.878906 15.273438 15.796875 15.226562 15.703125 15.210938 C 15.632812 15.199219 15.558594 15.207031 15.484375 15.210938 L 15.308594 15.230469 C 15.296875 15.230469 15.28125 15.234375 15.273438 15.238281 C 15.265625 15.246094 15.265625 15.265625 15.269531 15.277344 C 15.28125 15.300781 15.304688 15.316406 15.328125 15.332031 C 15.386719 15.371094 15.449219 15.40625 15.511719 15.441406 C 15.5625 15.46875 15.617188 15.5 15.667969 15.53125 C 15.816406 15.625 15.902344 15.71875 15.9375 15.824219 C 15.941406 15.835938 15.9375 15.851562 15.929688 15.859375 C 15.925781 15.871094 15.914062 15.878906 15.902344 15.878906 L 14.910156 15.957031 C 14.804688 15.964844 14.6875 15.980469 14.632812 16.058594 C 14.621094 16.074219 14.617188 16.082031 14.617188 16.089844 C 14.621094 16.101562 14.640625 16.117188 14.644531 16.121094 C 14.730469 16.1875 14.828125 16.230469 14.933594 16.25 C 14.9375 16.25 14.945312 16.25 14.949219 16.25 C 14.972656 16.257812 14.984375 16.277344 14.980469 16.296875 C 14.976562 16.320312 14.957031 16.335938 14.933594 16.332031 C 14.929688 16.332031 14.925781 16.332031 14.921875 16.328125 C 14.898438 16.328125 14.878906 16.339844 14.871094 16.351562 C 14.847656 16.371094 14.832031 16.40625 14.835938 16.433594 C 14.84375 16.5 14.910156 16.546875 14.96875 16.558594 C 15.039062 16.578125 15.121094 16.5625 15.1875 16.542969 C 15.210938 16.539062 15.230469 16.550781 15.238281 16.570312 C 15.246094 16.59375 15.234375 16.613281 15.210938 16.621094 C 15.175781 16.632812 15.140625 16.6875 15.132812 16.738281 C 15.128906 16.753906 15.128906 16.78125 15.148438 16.796875 C 15.203125 16.832031 15.347656 16.828125 15.441406 16.800781 C 15.453125 16.796875 15.46875 16.800781 15.480469 16.808594 C 15.492188 16.820312 15.496094 16.835938 15.492188 16.851562 C 15.484375 16.882812 15.460938 16.90625 15.4375 16.925781 C 15.421875 16.941406 15.402344 16.960938 15.40625 16.96875 C 15.4375 17.109375 15.78125 17.046875 16.007812 17.007812 C 16.082031 16.992188 16.148438 16.980469 16.207031 16.972656 C 16.226562 16.972656 16.25 16.988281 16.25 17.011719 C 16.253906 17.03125 16.238281 17.054688 16.214844 17.054688 C 16.160156 17.0625 16.09375 17.074219 16.019531 17.085938 C 15.734375 17.136719 15.378906 17.203125 15.328125 16.988281 C 15.316406 16.953125 15.332031 16.925781 15.351562 16.902344 C 15.261719 16.910156 15.164062 16.90625 15.101562 16.863281 C 15.0625 16.835938 15.042969 16.785156 15.050781 16.726562 C 15.054688 16.703125 15.0625 16.671875 15.078125 16.648438 C 15.035156 16.652344 14.992188 16.648438 14.949219 16.640625 C 14.863281 16.617188 14.769531 16.550781 14.753906 16.445312 C 14.75 16.394531 14.769531 16.339844 14.804688 16.300781 C 14.730469 16.273438 14.65625 16.234375 14.59375 16.183594 C 14.570312 16.167969 14.542969 16.140625 14.539062 16.101562 C 14.535156 16.074219 14.542969 16.042969 14.566406 16.011719 C 14.640625 15.90625 14.78125 15.886719 14.90625 15.875 L 15.835938 15.800781 C 15.800781 15.734375 15.730469 15.664062 15.621094 15.597656 C 15.574219 15.570312 15.523438 15.539062 15.472656 15.511719 C 15.410156 15.476562 15.34375 15.441406 15.28125 15.398438 C 15.25 15.378906 15.21875 15.355469 15.199219 15.316406 C 15.171875 15.265625 15.183594 15.203125 15.222656 15.175781 C 15.25 15.152344 15.28125 15.152344 15.300781 15.148438 L 15.476562 15.132812 C 15.554688 15.125 15.636719 15.117188 15.71875 15.128906 C 15.824219 15.148438 15.917969 15.203125 15.992188 15.25 C 16.214844 15.398438 16.414062 15.597656 16.558594 15.824219 C 16.878906 16.28125 17.425781 16.636719 18.089844 16.816406 C 18.15625 16.835938 18.222656 16.855469 18.289062 16.875 C 18.777344 17.023438 19.242188 17.164062 19.746094 17.214844 C 19.75 17.214844 19.753906 17.214844 19.753906 17.214844 C 19.792969 17.230469 19.832031 17.222656 19.871094 17.203125 C 19.96875 17.152344 20.066406 17.011719 20.109375 16.859375 C 20.113281 16.839844 20.136719 16.824219 20.160156 16.832031 C 20.179688 16.839844 20.195312 16.859375 20.1875 16.882812 C 20.144531 17.027344 20.042969 17.207031 19.910156 17.273438 C 19.871094 17.296875 19.835938 17.304688 19.796875 17.304688 " fill-opacity="1" fill-rule="nonzero"/><path fill="#000000" d="M 15.824219 14.835938 C 15.820312 14.835938 15.8125 14.835938 15.808594 14.832031 C 15.785156 14.820312 15.78125 14.796875 15.789062 14.777344 C 16.015625 14.351562 16.289062 14.003906 16.609375 13.746094 C 16.976562 13.445312 17.394531 13.265625 17.820312 13.222656 C 17.84375 13.21875 17.863281 13.238281 17.863281 13.257812 C 17.867188 13.28125 17.851562 13.300781 17.828125 13.304688 C 17.417969 13.34375 17.015625 13.519531 16.660156 13.808594 C 16.351562 14.0625 16.082031 14.402344 15.863281 14.816406 C 15.855469 14.828125 15.839844 14.835938 15.824219 14.835938 " fill-opacity="1" fill-rule="nonzero"/><path fill="#000000" d="M 22.167969 12.851562 C 22.160156 12.851562 22.15625 12.851562 22.148438 12.855469 C 22.132812 12.863281 22.117188 12.878906 22.105469 12.894531 C 22.039062 12.976562 21.988281 13.070312 21.953125 13.171875 C 22.011719 13.15625 22.0625 13.136719 22.113281 13.105469 C 22.167969 13.074219 22.238281 13.023438 22.246094 12.949219 C 22.25 12.921875 22.230469 12.882812 22.203125 12.863281 C 22.195312 12.859375 22.179688 12.851562 22.167969 12.851562 Z M 22.019531 14.089844 C 22.007812 14.089844 21.996094 14.082031 21.988281 14.070312 C 21.828125 13.835938 21.78125 13.542969 21.839844 13.269531 C 21.570312 13.289062 21.285156 13.164062 21.136719 12.9375 C 21.125 12.917969 21.128906 12.890625 21.148438 12.878906 C 21.167969 12.867188 21.191406 12.871094 21.207031 12.890625 C 21.34375 13.101562 21.609375 13.214844 21.859375 13.1875 C 21.898438 13.0625 21.957031 12.945312 22.039062 12.84375 C 22.058594 12.820312 22.082031 12.796875 22.117188 12.78125 C 22.160156 12.761719 22.210938 12.769531 22.25 12.796875 C 22.304688 12.835938 22.332031 12.902344 22.328125 12.960938 C 22.316406 13.066406 22.226562 13.136719 22.15625 13.175781 C 22.085938 13.21875 22.007812 13.246094 21.929688 13.261719 C 21.867188 13.519531 21.90625 13.804688 22.054688 14.023438 C 22.066406 14.042969 22.0625 14.070312 22.042969 14.082031 C 22.039062 14.085938 22.027344 14.089844 22.019531 14.089844 " fill-opacity="1" fill-rule="nonzero"/><path fill="#000000" d="M 17.84375 14.355469 C 17.8125 14.355469 17.785156 14.351562 17.753906 14.339844 C 17.664062 14.308594 17.59375 14.21875 17.574219 14.105469 C 17.554688 14.007812 17.574219 13.910156 17.597656 13.824219 C 17.652344 13.621094 17.742188 13.429688 17.859375 13.257812 C 17.875 13.238281 17.898438 13.234375 17.917969 13.246094 C 17.9375 13.257812 17.941406 13.285156 17.929688 13.300781 C 17.816406 13.46875 17.730469 13.652344 17.675781 13.847656 C 17.65625 13.921875 17.636719 14.007812 17.652344 14.09375 C 17.667969 14.171875 17.71875 14.242188 17.78125 14.261719 C 17.863281 14.292969 17.953125 14.253906 18.035156 14.214844 C 18.457031 14.003906 18.820312 13.664062 19.058594 13.257812 C 19.066406 13.238281 19.09375 13.230469 19.113281 13.242188 C 19.132812 13.253906 19.140625 13.277344 19.128906 13.296875 C 18.882812 13.71875 18.507812 14.070312 18.070312 14.289062 C 18 14.324219 17.921875 14.355469 17.84375 14.355469 " fill-opacity="1" fill-rule="nonzero"/><path fill="#000000" d="M 20.023438 16.527344 C 20.011719 16.527344 20.003906 16.523438 19.996094 16.515625 C 19.53125 16.089844 19.5 15.410156 19.523438 15.039062 C 19.554688 14.507812 19.691406 13.992188 19.824219 13.507812 C 19.832031 13.488281 19.855469 13.472656 19.875 13.480469 C 19.898438 13.488281 19.910156 13.507812 19.90625 13.53125 C 19.769531 14.007812 19.636719 14.519531 19.605469 15.046875 C 19.582031 15.398438 19.613281 16.054688 20.050781 16.457031 C 20.066406 16.472656 20.070312 16.496094 20.054688 16.511719 C 20.046875 16.523438 20.035156 16.527344 20.023438 16.527344 " fill-opacity="1" fill-rule="nonzero"/><path fill="#000000" d="M 16.363281 15.328125 C 16.363281 15.328125 16.359375 15.328125 16.355469 15.328125 C 16.335938 15.324219 16.320312 15.300781 16.324219 15.28125 L 16.617188 13.800781 C 16.621094 13.777344 16.640625 13.761719 16.664062 13.765625 C 16.6875 13.769531 16.699219 13.792969 16.695312 13.816406 L 16.40625 15.296875 C 16.402344 15.316406 16.382812 15.328125 16.363281 15.328125 " fill-opacity="1" fill-rule="nonzero"/><path fill="#000000" d="M 18.359375 15.210938 C 18.226562 15.210938 18.046875 15.207031 17.800781 15.199219 C 17.371094 15.183594 16.9375 15.160156 16.933594 15.160156 C 16.921875 15.15625 16.914062 15.152344 16.90625 15.144531 C 16.898438 15.136719 16.894531 15.125 16.894531 15.113281 C 16.960938 14.542969 17.066406 13.96875 17.210938 13.410156 C 17.214844 13.390625 17.238281 13.375 17.261719 13.382812 C 17.28125 13.386719 17.296875 13.410156 17.289062 13.429688 C 17.152344 13.972656 17.046875 14.527344 16.980469 15.078125 C 17.585938 15.113281 18.523438 15.148438 18.65625 15.113281 C 18.839844 14.472656 19.039062 13.933594 19.300781 13.375 C 19.3125 13.355469 19.335938 13.347656 19.355469 13.355469 C 19.378906 13.367188 19.386719 13.390625 19.375 13.410156 C 19.113281 13.96875 18.914062 14.503906 18.730469 15.152344 C 18.71875 15.183594 18.707031 15.210938 18.359375 15.210938 " fill-opacity="1" fill-rule="nonzero"/><path fill="#ffffff" d="M 18.054688 16.390625 C 18.046875 16.390625 18.035156 16.386719 18.027344 16.378906 C 18.011719 16.363281 18.011719 16.335938 18.027344 16.320312 L 19.265625 15.042969 C 19.28125 15.027344 19.304688 15.027344 19.320312 15.042969 C 19.339844 15.058594 19.339844 15.082031 19.324219 15.097656 L 18.085938 16.375 C 18.078125 16.382812 18.066406 16.390625 18.054688 16.390625 " fill-opacity="1" fill-rule="nonzero"/><path fill="#ffffff" d="M 18.507812 16.746094 C 18.5 16.746094 18.488281 16.742188 18.480469 16.738281 C 18.464844 16.722656 18.464844 16.695312 18.480469 16.679688 L 19.304688 15.796875 C 19.320312 15.78125 19.347656 15.777344 19.363281 15.792969 C 19.378906 15.808594 19.382812 15.835938 19.367188 15.851562 L 18.539062 16.734375 C 18.53125 16.742188 18.519531 16.746094 18.507812 16.746094 " fill-opacity="1" fill-rule="nonzero"/><path fill="#ffffff" d="M 19.160156 16.9375 C 19.148438 16.9375 19.140625 16.933594 19.132812 16.929688 C 19.117188 16.914062 19.113281 16.886719 19.128906 16.871094 L 19.558594 16.433594 C 19.574219 16.414062 19.597656 16.414062 19.617188 16.429688 C 19.632812 16.445312 19.632812 16.472656 19.617188 16.488281 L 19.191406 16.925781 C 19.179688 16.933594 19.171875 16.9375 19.160156 16.9375 " fill-opacity="1" fill-rule="nonzero"/><path fill="#ffffff" d="M 16.558594 18.128906 C 16.546875 18.128906 16.535156 18.121094 16.527344 18.113281 C 16.511719 18.09375 16.515625 18.070312 16.53125 18.054688 L 16.820312 17.832031 C 16.835938 17.816406 16.863281 17.820312 16.875 17.839844 C 16.890625 17.855469 16.886719 17.882812 16.871094 17.894531 L 16.582031 18.121094 C 16.574219 18.125 16.566406 18.128906 16.558594 18.128906 " fill-opacity="1" fill-rule="nonzero"/><path fill="#ffffff" d="M 16.65625 18.800781 C 16.644531 18.800781 16.632812 18.796875 16.625 18.789062 C 16.609375 18.773438 16.609375 18.746094 16.628906 18.730469 L 17.308594 18.089844 C 17.328125 18.074219 17.351562 18.074219 17.367188 18.089844 C 17.382812 18.109375 17.382812 18.132812 17.367188 18.148438 L 16.683594 18.789062 C 16.675781 18.796875 16.664062 18.800781 16.65625 18.800781 " fill-opacity="1" fill-rule="nonzero"/><path fill="#ffffff" d="M 17.410156 16.230469 C 17.402344 16.230469 17.390625 16.226562 17.382812 16.222656 C 17.367188 16.207031 17.367188 16.179688 17.382812 16.164062 C 17.613281 15.90625 17.859375 15.65625 18.117188 15.421875 C 18.132812 15.40625 18.15625 15.40625 18.171875 15.421875 C 18.1875 15.4375 18.1875 15.464844 18.171875 15.480469 C 17.917969 15.714844 17.671875 15.960938 17.441406 16.21875 C 17.433594 16.226562 17.421875 16.230469 17.410156 16.230469 " fill-opacity="1" fill-rule="nonzero"/><path fill="#ffffff" d="M 19.074219 14.644531 C 19.066406 14.644531 19.054688 14.640625 19.046875 14.632812 C 19.03125 14.617188 19.03125 14.589844 19.046875 14.574219 C 19.167969 14.449219 19.296875 14.335938 19.4375 14.234375 C 19.457031 14.21875 19.484375 14.222656 19.496094 14.242188 C 19.507812 14.261719 19.503906 14.285156 19.488281 14.300781 C 19.351562 14.398438 19.222656 14.511719 19.105469 14.632812 C 19.097656 14.640625 19.085938 14.644531 19.074219 14.644531 " fill-opacity="1" fill-rule="nonzero"/><path fill="#ffffff" d="M 19.316406 13.929688 C 19.304688 13.929688 19.292969 13.925781 19.285156 13.921875 C 19.269531 13.902344 19.269531 13.878906 19.285156 13.863281 C 19.367188 13.78125 19.453125 13.707031 19.546875 13.644531 C 19.566406 13.632812 19.589844 13.636719 19.605469 13.65625 C 19.617188 13.671875 19.613281 13.699219 19.59375 13.710938 C 19.503906 13.773438 19.421875 13.84375 19.34375 13.917969 C 19.335938 13.925781 19.324219 13.929688 19.316406 13.929688 " fill-opacity="1" fill-rule="nonzero"/><path fill="#ffffff" d="M 16.878906 15.949219 C 16.867188 15.949219 16.855469 15.945312 16.847656 15.9375 C 16.832031 15.921875 16.832031 15.894531 16.847656 15.878906 C 17.027344 15.710938 17.210938 15.542969 17.394531 15.382812 C 17.414062 15.367188 17.4375 15.371094 17.453125 15.386719 C 17.46875 15.40625 17.46875 15.429688 17.449219 15.445312 C 17.265625 15.605469 17.082031 15.769531 16.90625 15.9375 C 16.898438 15.945312 16.886719 15.949219 16.878906 15.949219 " fill-opacity="1" fill-rule="nonzero"/><path fill="#ffffff" d="M 16.707031 15.566406 C 16.695312 15.566406 16.6875 15.5625 16.679688 15.554688 C 16.664062 15.539062 16.660156 15.511719 16.675781 15.496094 C 16.742188 15.425781 16.816406 15.367188 16.894531 15.3125 C 16.914062 15.296875 16.9375 15.304688 16.953125 15.320312 C 16.964844 15.339844 16.960938 15.363281 16.941406 15.378906 C 16.867188 15.429688 16.800781 15.488281 16.738281 15.550781 C 16.730469 15.5625 16.71875 15.566406 16.707031 15.566406 " fill-opacity="1" fill-rule="nonzero"/><path fill="#ffffff" d="M 16.59375 14.992188 C 16.585938 14.992188 16.578125 14.992188 16.570312 14.984375 C 16.550781 14.96875 16.550781 14.941406 16.566406 14.925781 L 16.738281 14.730469 C 16.753906 14.710938 16.777344 14.710938 16.796875 14.726562 C 16.8125 14.742188 16.8125 14.765625 16.800781 14.78125 L 16.625 14.980469 C 16.617188 14.988281 16.605469 14.992188 16.59375 14.992188 " fill-opacity="1" fill-rule="nonzero"/><path fill="#ffffff" d="M 16.699219 14.390625 C 16.691406 14.390625 16.683594 14.386719 16.675781 14.382812 C 16.65625 14.367188 16.65625 14.339844 16.667969 14.324219 C 16.738281 14.234375 16.8125 14.144531 16.890625 14.0625 C 16.90625 14.046875 16.933594 14.046875 16.949219 14.0625 C 16.964844 14.078125 16.96875 14.101562 16.953125 14.121094 C 16.875 14.199219 16.800781 14.285156 16.734375 14.375 C 16.726562 14.382812 16.714844 14.390625 16.699219 14.390625 " fill-opacity="1" fill-rule="nonzero"/><path fill="#000000" d="M 17.601562 10.574219 C 17.601562 10.523438 17.644531 10.480469 17.695312 10.480469 C 17.746094 10.480469 17.785156 10.523438 17.785156 10.574219 C 17.785156 10.625 17.746094 10.667969 17.695312 10.667969 C 17.644531 10.667969 17.601562 10.625 17.601562 10.574219 " fill-opacity="1" fill-rule="nonzero"/><path fill="#000000" d="M 18.828125 10.730469 C 18.828125 10.679688 18.871094 10.640625 18.921875 10.640625 C 18.972656 10.640625 19.015625 10.679688 19.015625 10.730469 C 19.015625 10.78125 18.972656 10.824219 18.921875 10.824219 C 18.871094 10.824219 18.828125 10.78125 18.828125 10.730469 " fill-opacity="1" fill-rule="nonzero"/><path fill="#000000" d="M 18.367188 12.011719 C 18.308594 12.011719 18.25 12 18.195312 11.980469 C 18.171875 11.972656 18.160156 11.949219 18.167969 11.929688 C 18.175781 11.910156 18.199219 11.898438 18.222656 11.90625 C 18.398438 11.96875 18.617188 11.902344 18.730469 11.753906 C 18.742188 11.734375 18.769531 11.730469 18.785156 11.746094 C 18.804688 11.757812 18.808594 11.785156 18.792969 11.804688 C 18.695312 11.933594 18.53125 12.011719 18.367188 12.011719 " fill-opacity="1" fill-rule="nonzero"/><path fill="#000000" d="M 20.304688 8.695312 C 20.011719 8.402344 19.597656 8.097656 19 8.320312 C 18.367188 7.734375 17.238281 8.320312 17.027344 8.839844 C 16.867188 9.234375 16.75 9.90625 17.117188 10.507812 C 17.273438 10.050781 17.285156 9.90625 17.285156 9.90625 C 17.285156 9.90625 18.132812 9.882812 18.734375 9.28125 C 19.070312 10.210938 19.339844 10.625 19.789062 10.753906 C 20.121094 10.519531 20.285156 10.78125 20.261719 10.953125 C 20.238281 11.125 20.121094 11.347656 19.949219 11.347656 C 19.765625 11.347656 19.746094 11.265625 19.746094 11.265625 L 19.4375 11.859375 C 19.4375 11.859375 20.234375 11.890625 20.570312 11.214844 C 20.753906 10.851562 21.1875 9.574219 20.304688 8.695312 " fill-opacity="1" fill-rule="nonzero"/><path fill="#000000" d="M 14.742188 15.949219 C 14.730469 15.949219 14.71875 15.945312 14.710938 15.933594 C 14.417969 15.59375 14.167969 15.214844 13.96875 14.8125 C 13.957031 14.789062 13.964844 14.765625 13.984375 14.757812 C 14.007812 14.746094 14.03125 14.753906 14.042969 14.773438 C 14.238281 15.171875 14.484375 15.546875 14.773438 15.882812 C 14.789062 15.898438 14.785156 15.925781 14.769531 15.941406 C 14.761719 15.945312 14.75 15.949219 14.742188 15.949219 " fill-opacity="1" fill-rule="nonzero"/><path fill="#ffffff" d="M 13.480469 14.523438 C 13.550781 14.601562 13.628906 14.679688 13.722656 14.726562 C 13.816406 14.773438 13.9375 14.785156 14.027344 14.726562 C 14.105469 14.675781 14.140625 14.582031 14.199219 14.507812 C 14.285156 14.398438 14.429688 14.328125 14.570312 14.328125 C 14.617188 14.128906 14.574219 13.910156 14.453125 13.738281 C 14.292969 13.871094 14.128906 14 13.96875 14.128906 C 13.875 14.203125 13.785156 14.277344 13.691406 14.355469 C 13.617188 14.410156 13.546875 14.46875 13.480469 14.523438 " fill-opacity="1" fill-rule="nonzero"/><path fill="#000000" d="M 15.5 15.175781 C 15.488281 15.175781 15.476562 15.167969 15.46875 15.160156 C 15.234375 14.886719 14.953125 14.625 14.613281 14.359375 C 14.351562 14.347656 14.128906 14.570312 14.046875 14.800781 C 14.039062 14.820312 14.015625 14.832031 13.996094 14.824219 C 13.976562 14.816406 13.964844 14.792969 13.972656 14.773438 C 14.066406 14.511719 14.324219 14.257812 14.632812 14.277344 C 14.640625 14.277344 14.648438 14.28125 14.65625 14.285156 C 15.003906 14.558594 15.289062 14.824219 15.53125 15.105469 C 15.546875 15.125 15.542969 15.148438 15.527344 15.164062 C 15.519531 15.171875 15.507812 15.175781 15.5 15.175781 " fill-opacity="1" fill-rule="nonzero"/><path fill="#000000" d="M 13.8125 14.765625 C 13.660156 14.765625 13.480469 14.628906 13.421875 14.523438 C 13.414062 14.503906 13.417969 14.484375 13.433594 14.46875 C 14.414062 13.707031 14.429688 13.703125 14.4375 13.699219 C 14.453125 13.695312 14.472656 13.699219 14.480469 13.714844 C 14.578125 13.832031 14.613281 14.027344 14.601562 14.160156 C 14.597656 14.179688 14.578125 14.199219 14.554688 14.195312 C 14.53125 14.191406 14.515625 14.171875 14.519531 14.152344 C 14.53125 14.035156 14.496094 13.886719 14.4375 13.796875 C 14.316406 13.886719 13.847656 14.25 13.511719 14.511719 C 13.582031 14.605469 13.730469 14.695312 13.832031 14.683594 C 13.855469 14.679688 13.875 14.699219 13.875 14.71875 C 13.878906 14.742188 13.863281 14.761719 13.839844 14.765625 C 13.832031 14.765625 13.824219 14.765625 13.8125 14.765625 " fill-opacity="1" fill-rule="nonzero"/><path fill="#000000" d="M 13.382812 14.335938 C 13.371094 14.335938 13.359375 14.328125 13.351562 14.316406 L 13.269531 14.203125 C 13.253906 14.183594 13.257812 14.15625 13.277344 14.144531 C 13.296875 14.132812 13.320312 14.136719 13.335938 14.15625 L 13.417969 14.269531 C 13.429688 14.289062 13.425781 14.3125 13.40625 14.328125 C 13.398438 14.332031 13.390625 14.335938 13.382812 14.335938 " fill-opacity="1" fill-rule="nonzero"/><path fill="#000000" d="M 13.601562 14.164062 C 13.589844 14.164062 13.578125 14.160156 13.570312 14.148438 L 13.488281 14.03125 C 13.472656 14.015625 13.476562 13.988281 13.496094 13.976562 C 13.515625 13.964844 13.539062 13.96875 13.554688 13.984375 L 13.636719 14.101562 C 13.648438 14.121094 13.644531 14.144531 13.625 14.15625 C 13.617188 14.164062 13.609375 14.164062 13.601562 14.164062 " fill-opacity="1" fill-rule="nonzero"/><path fill="#000000" d="M 13.816406 13.992188 C 13.804688 13.992188 13.792969 13.988281 13.785156 13.976562 L 13.703125 13.863281 C 13.6875 13.84375 13.691406 13.816406 13.710938 13.804688 C 13.730469 13.792969 13.753906 13.796875 13.769531 13.8125 L 13.851562 13.929688 C 13.863281 13.949219 13.859375 13.972656 13.839844 13.988281 C 13.832031 13.992188 13.824219 13.992188 13.816406 13.992188 " fill-opacity="1" fill-rule="nonzero"/><path fill="#000000" d="M 14.03125 13.835938 C 14.019531 13.835938 14.007812 13.832031 14 13.820312 L 13.917969 13.703125 C 13.902344 13.6875 13.910156 13.660156 13.925781 13.648438 C 13.945312 13.632812 13.972656 13.640625 13.984375 13.65625 L 14.066406 13.773438 C 14.078125 13.792969 14.074219 13.816406 14.054688 13.828125 C 14.050781 13.835938 14.039062 13.835938 14.03125 13.835938 " fill-opacity="1" fill-rule="nonzero"/><path fill="#000000" d="M 14.261719 13.664062 C 14.25 13.664062 14.238281 13.660156 14.230469 13.648438 L 14.148438 13.535156 C 14.132812 13.515625 14.136719 13.488281 14.15625 13.476562 C 14.175781 13.464844 14.199219 13.46875 14.214844 13.484375 L 14.296875 13.601562 C 14.308594 13.621094 14.304688 13.644531 14.285156 13.660156 C 14.277344 13.664062 14.269531 13.664062 14.261719 13.664062 " fill-opacity="1" fill-rule="nonzero"/><path fill="#000000" d="M 16.222656 17.46875 C 16.167969 17.46875 16.113281 17.460938 16.058594 17.441406 C 15.960938 17.40625 15.882812 17.332031 15.808594 17.261719 C 15.765625 17.21875 15.722656 17.179688 15.671875 17.144531 C 15.652344 17.132812 15.648438 17.109375 15.664062 17.089844 C 15.675781 17.070312 15.699219 17.066406 15.71875 17.078125 C 15.773438 17.117188 15.820312 17.160156 15.867188 17.203125 C 15.9375 17.273438 16.003906 17.335938 16.089844 17.367188 C 16.199219 17.40625 16.328125 17.382812 16.457031 17.355469 C 16.480469 17.347656 16.5 17.363281 16.507812 17.382812 C 16.511719 17.40625 16.5 17.429688 16.476562 17.433594 C 16.394531 17.453125 16.308594 17.46875 16.222656 17.46875 " fill-opacity="1" fill-rule="nonzero"/><path fill="#000000" d="M 19.011719 19.890625 C 19 19.890625 18.988281 19.886719 18.980469 19.875 C 18.773438 19.585938 18.410156 19.402344 17.875 19.308594 L 17.824219 19.296875 C 17.523438 19.246094 17.179688 19.1875 17.011719 18.917969 C 16.914062 18.765625 16.902344 18.585938 16.894531 18.410156 C 16.890625 18.332031 16.882812 18.25 16.871094 18.171875 C 16.832031 17.945312 16.601562 17.570312 16.4375 17.421875 C 16.421875 17.410156 16.421875 17.382812 16.4375 17.367188 C 16.453125 17.347656 16.476562 17.347656 16.496094 17.363281 C 16.667969 17.519531 16.910156 17.910156 16.953125 18.15625 C 16.964844 18.238281 16.96875 18.324219 16.976562 18.40625 C 16.984375 18.578125 16.996094 18.742188 17.082031 18.875 C 17.230469 19.113281 17.554688 19.167969 17.839844 19.21875 L 17.890625 19.226562 C 18.445312 19.324219 18.824219 19.523438 19.046875 19.828125 C 19.058594 19.84375 19.054688 19.871094 19.035156 19.882812 C 19.03125 19.890625 19.019531 19.890625 19.011719 19.890625 " fill-opacity="1" fill-rule="nonzero"/><path fill="#000000" d="M 17.867188 10.164062 C 17.863281 10.164062 17.863281 10.164062 17.863281 10.164062 C 17.75 10.152344 17.636719 10.148438 17.523438 10.15625 C 17.5 10.160156 17.480469 10.140625 17.480469 10.121094 C 17.480469 10.097656 17.496094 10.078125 17.519531 10.078125 C 17.636719 10.066406 17.753906 10.070312 17.871094 10.082031 C 17.894531 10.085938 17.910156 10.105469 17.90625 10.128906 C 17.90625 10.148438 17.886719 10.164062 17.867188 10.164062 " fill-opacity="1" fill-rule="nonzero"/><path fill="#000000" d="M 19.28125 10.386719 C 19.277344 10.386719 19.277344 10.386719 19.273438 10.386719 L 18.914062 10.320312 C 18.890625 10.316406 18.875 10.296875 18.882812 10.273438 C 18.886719 10.25 18.90625 10.238281 18.929688 10.242188 L 19.289062 10.304688 C 19.308594 10.308594 19.324219 10.332031 19.320312 10.351562 C 19.316406 10.371094 19.300781 10.386719 19.28125 10.386719 " fill-opacity="1" fill-rule="nonzero"/><path fill="#ffffff" d="M 10.140625 13.203125 C 9.890625 13.136719 9.617188 13.214844 9.394531 13.347656 C 9.171875 13.480469 8.988281 13.664062 8.792969 13.835938 C 8.601562 14.007812 8.390625 14.171875 8.140625 14.25 C 8.035156 14.28125 7.925781 14.296875 7.8125 14.3125 C 7.59375 14.34375 7.371094 14.375 7.148438 14.40625 C 7.136719 14.691406 7.207031 14.976562 7.351562 15.222656 C 7.402344 15.308594 7.472656 15.398438 7.570312 15.414062 C 7.679688 15.433594 7.789062 15.347656 7.800781 15.242188 C 7.820312 15.328125 7.914062 15.382812 8 15.378906 C 8.089844 15.378906 8.171875 15.335938 8.25 15.261719 C 8.316406 15.410156 8.484375 15.480469 8.636719 15.53125 C 8.792969 15.582031 8.960938 15.636719 9.046875 15.773438 C 9.105469 15.871094 9.113281 15.988281 9.109375 16.101562 C 9.097656 16.464844 9.007812 16.820312 8.964844 17.183594 C 8.925781 17.542969 8.941406 17.929688 9.144531 18.25 C 9.195312 18.128906 9.246094 18.007812 9.296875 17.886719 C 9.402344 18.371094 9.425781 18.875 9.367188 19.367188 C 9.359375 19.425781 9.351562 19.484375 9.316406 19.53125 C 9.234375 19.636719 9.0625 19.605469 8.941406 19.664062 C 8.859375 19.707031 8.800781 19.792969 8.796875 19.886719 C 8.792969 19.980469 8.847656 20.074219 8.929688 20.121094 C 9.046875 20.191406 9.199219 20.152344 9.339844 20.144531 C 9.394531 20.140625 9.453125 20.144531 9.507812 20.128906 C 9.679688 20.089844 9.785156 19.921875 9.863281 19.761719 C 9.976562 19.535156 10.078125 19.296875 10.160156 19.023438 C 10.199219 19.082031 10.265625 19.117188 10.328125 19.144531 C 10.539062 19.25 10.757812 19.351562 10.988281 19.410156 C 11.21875 19.46875 11.464844 19.484375 11.695312 19.410156 C 11.851562 19.523438 12.023438 19.613281 12.210938 19.667969 C 12.023438 19.671875 11.839844 19.679688 11.65625 19.683594 C 11.566406 19.6875 11.472656 19.6875 11.386719 19.714844 C 11.300781 19.742188 11.21875 19.800781 11.183594 19.882812 C 11.144531 19.964844 11.164062 20.074219 11.234375 20.132812 C 11.753906 20.214844 12.285156 20.222656 12.808594 20.164062 C 12.90625 20.15625 13.007812 20.144531 13.097656 20.105469 C 13.191406 20.066406 13.273438 20 13.320312 19.886719 C 13.617188 19.984375 13.953125 19.957031 14.226562 19.808594 C 14.503906 19.660156 14.710938 19.394531 14.789062 19.09375 C 14.816406 18.980469 14.828125 18.859375 14.832031 18.746094 C 14.835938 18.667969 14.835938 18.59375 14.824219 18.519531 C 14.789062 18.3125 14.660156 18.128906 14.511719 17.976562 C 14.378906 17.84375 14.222656 17.726562 14.035156 17.691406 C 14.109375 17.949219 14.140625 18.226562 14.121094 18.496094 C 14.113281 18.613281 14.09375 18.734375 14.046875 18.839844 C 13.925781 19.125 13.632812 19.296875 13.351562 19.363281 C 13.402344 18.769531 13.210938 18.171875 12.878906 17.675781 C 12.546875 17.179688 12.082031 16.78125 11.574219 16.464844 C 11.320312 16.300781 11.046875 16.15625 10.808594 15.964844 C 10.570312 15.777344 10.363281 15.53125 10.285156 15.238281 C 10.199219 14.9375 10.257812 14.617188 10.339844 14.292969 C 10.339844 14.085938 10.328125 13.875 10.292969 13.664062 C 10.265625 13.507812 10.21875 13.34375 10.140625 13.203125 " fill-opacity="1" fill-rule="nonzero"/><path fill="#b4d2ba" d="M 11.15625 16.175781 C 11.070312 16.425781 11.054688 16.695312 11.105469 16.953125 C 11.117188 17.011719 11.132812 17.070312 11.164062 17.121094 C 11.210938 17.195312 11.289062 17.246094 11.371094 17.289062 C 11.457031 17.335938 11.550781 17.375 11.648438 17.378906 C 11.710938 17.378906 11.769531 17.367188 11.828125 17.371094 C 11.964844 17.371094 12.097656 17.4375 12.179688 17.539062 C 12.265625 17.640625 12.300781 17.773438 12.367188 17.890625 C 12.433594 18.003906 12.558594 18.105469 12.6875 18.078125 C 12.753906 18.0625 12.8125 18.015625 12.851562 17.957031 C 12.871094 17.925781 12.886719 17.894531 12.890625 17.855469 C 12.898438 17.804688 12.878906 17.75 12.859375 17.703125 C 12.742188 17.4375 12.566406 17.199219 12.351562 17.007812 C 12.253906 16.921875 12.148438 16.847656 12.042969 16.773438 C 11.753906 16.5625 11.460938 16.355469 11.15625 16.175781 " fill-opacity="1" fill-rule="nonzero"/><path fill="#f6dfa8" d="M 14.015625 17.65625 C 14.101562 17.957031 14.136719 18.273438 14.109375 18.589844 C 14.199219 18.640625 14.292969 18.691406 14.394531 18.691406 C 14.4375 18.691406 14.480469 18.679688 14.523438 18.667969 C 14.605469 18.644531 14.683594 18.613281 14.757812 18.570312 C 14.769531 18.566406 14.777344 18.5625 14.78125 18.550781 C 14.789062 18.542969 14.789062 18.53125 14.785156 18.519531 C 14.765625 18.363281 14.714844 18.210938 14.636719 18.074219 C 14.601562 18.011719 14.558594 17.953125 14.503906 17.902344 C 14.449219 17.855469 14.386719 17.824219 14.324219 17.789062 C 14.210938 17.730469 14.097656 17.671875 14.015625 17.65625 " fill-opacity="1" fill-rule="nonzero"/><path fill="#000000" d="M 9.128906 18.332031 C 9.113281 18.332031 9.101562 18.324219 9.09375 18.3125 C 8.785156 17.824219 8.898438 17.238281 8.996094 16.71875 C 9.066406 16.367188 9.128906 16.03125 9.03125 15.808594 C 8.910156 15.691406 8.757812 15.621094 8.597656 15.546875 C 8.476562 15.492188 8.351562 15.4375 8.242188 15.359375 C 8.183594 15.425781 8.085938 15.457031 7.984375 15.441406 C 7.898438 15.425781 7.824219 15.382812 7.785156 15.316406 C 7.785156 15.316406 7.78125 15.320312 7.78125 15.320312 C 7.769531 15.347656 7.753906 15.382812 7.71875 15.414062 C 7.714844 15.417969 7.707031 15.421875 7.703125 15.425781 C 7.523438 15.484375 7.378906 15.433594 7.308594 15.289062 C 7.191406 15 7.074219 14.703125 7.132812 14.40625 C 7.136719 14.394531 7.144531 14.382812 7.15625 14.378906 C 7.34375 14.296875 7.546875 14.277344 7.742188 14.257812 C 7.96875 14.238281 8.203125 14.214844 8.414062 14.09375 C 8.554688 13.996094 8.695312 13.871094 8.832031 13.746094 C 9.261719 13.363281 9.707031 12.96875 10.289062 13.234375 C 10.78125 13.480469 10.945312 14.082031 10.886719 14.535156 C 10.851562 14.703125 10.789062 14.859375 10.707031 14.96875 C 10.601562 15.109375 10.46875 15.167969 10.320312 15.140625 C 9.835938 15.09375 9.882812 14.628906 9.921875 14.21875 C 9.933594 14.105469 9.945312 14 9.945312 13.902344 C 9.945312 13.828125 9.878906 13.742188 9.820312 13.667969 C 9.800781 13.644531 9.785156 13.621094 9.769531 13.597656 C 9.757812 13.582031 9.761719 13.554688 9.777344 13.542969 C 9.796875 13.527344 9.824219 13.535156 9.835938 13.550781 C 9.851562 13.574219 9.867188 13.59375 9.886719 13.617188 C 9.953125 13.703125 10.027344 13.796875 10.027344 13.902344 C 10.027344 14.003906 10.015625 14.113281 10.003906 14.226562 C 9.964844 14.636719 9.925781 15.019531 10.335938 15.058594 C 10.609375 15.113281 10.761719 14.746094 10.804688 14.519531 C 10.859375 14.097656 10.710938 13.535156 10.253906 13.308594 C 9.722656 13.0625 9.316406 13.425781 8.886719 13.808594 C 8.75 13.933594 8.605469 14.0625 8.460938 14.164062 C 8.230469 14.292969 7.984375 14.316406 7.75 14.339844 C 7.558594 14.359375 7.378906 14.375 7.207031 14.445312 C 7.164062 14.710938 7.269531 14.976562 7.382812 15.257812 C 7.433594 15.359375 7.53125 15.390625 7.667969 15.351562 C 7.6875 15.328125 7.699219 15.308594 7.710938 15.285156 C 7.722656 15.253906 7.738281 15.226562 7.765625 15.203125 C 7.777344 15.191406 7.792969 15.191406 7.804688 15.195312 C 7.820312 15.199219 7.828125 15.210938 7.832031 15.226562 C 7.851562 15.308594 7.933594 15.351562 8 15.359375 C 8.0625 15.371094 8.152344 15.355469 8.199219 15.28125 C 8.203125 15.269531 8.214844 15.261719 8.226562 15.261719 C 8.238281 15.257812 8.25 15.261719 8.257812 15.269531 C 8.371094 15.355469 8.503906 15.414062 8.632812 15.472656 C 8.792969 15.546875 8.964844 15.625 9.097656 15.757812 C 9.097656 15.761719 9.101562 15.765625 9.105469 15.769531 C 9.21875 16.011719 9.152344 16.347656 9.078125 16.734375 C 8.980469 17.238281 8.871094 17.808594 9.164062 18.269531 C 9.175781 18.285156 9.167969 18.3125 9.148438 18.324219 C 9.144531 18.328125 9.136719 18.332031 9.128906 18.332031 " fill-opacity="1" fill-rule="nonzero"/><path fill="#000000" d="M 9.183594 14.078125 C 9.144531 14.0625 9.09375 14.078125 9.070312 14.113281 C 9.046875 14.148438 9.054688 14.199219 9.089844 14.222656 C 9.113281 14.238281 9.140625 14.238281 9.167969 14.230469 C 9.203125 14.222656 9.234375 14.195312 9.238281 14.160156 C 9.246094 14.125 9.21875 14.085938 9.183594 14.078125 " fill-opacity="1" fill-rule="nonzero"/><path fill="#000000" d="M 7.222656 14.640625 C 7.285156 14.65625 7.351562 14.632812 7.398438 14.589844 C 7.445312 14.550781 7.480469 14.492188 7.503906 14.433594 C 7.515625 14.40625 7.523438 14.367188 7.5 14.347656 C 7.488281 14.339844 7.472656 14.339844 7.460938 14.339844 C 7.40625 14.339844 7.351562 14.339844 7.300781 14.355469 C 7.25 14.375 7.203125 14.410156 7.183594 14.457031 C 7.164062 14.507812 7.183594 14.574219 7.222656 14.640625 " fill-opacity="1" fill-rule="nonzero"/><path fill="#000000" d="M 9.140625 15.824219 C 9.578125 15.800781 10.015625 15.683594 10.410156 15.488281 C 10.429688 15.554688 10.453125 15.621094 10.476562 15.6875 C 10.300781 15.808594 10.097656 15.886719 9.894531 15.960938 C 9.640625 16.058594 9.375 16.160156 9.097656 16.152344 C 9.105469 16.046875 9.097656 15.941406 9.082031 15.839844 C 9.09375 15.835938 9.109375 15.828125 9.140625 15.824219 " fill-opacity="1" fill-rule="nonzero"/><path fill="#000000" d="M 9.769531 13.152344 C 9.683594 13.160156 9.613281 13.359375 9.640625 13.441406 C 9.664062 13.523438 9.757812 13.632812 9.808594 13.703125 C 9.90625 13.851562 9.972656 13.992188 9.96875 14.167969 C 9.964844 14.34375 9.941406 14.519531 9.953125 14.695312 C 9.960938 14.824219 9.992188 14.964844 10.097656 15.046875 C 10.222656 15.144531 10.410156 15.117188 10.535156 15.023438 C 10.660156 14.925781 10.78125 14.796875 10.816406 14.644531 C 10.914062 14.222656 10.726562 13.730469 10.421875 13.417969 C 10.335938 13.328125 10.234375 13.253906 10.117188 13.21875 C 10 13.179688 9.789062 13.136719 9.769531 13.152344 " fill-opacity="1" fill-rule="nonzero"/><path fill="#ebebeb" d="M 10.632812 12.015625 C 10.609375 11.902344 10.679688 11.785156 10.796875 11.761719 C 10.914062 11.734375 11.027344 11.808594 11.054688 11.921875 C 11.078125 12.039062 11.007812 12.152344 10.890625 12.179688 C 10.773438 12.203125 10.660156 12.132812 10.632812 12.015625 " fill-opacity="1" fill-rule="nonzero"/><path fill="#000000" d="M 12.179688 20.230469 C 11.851562 20.230469 11.535156 20.210938 11.230469 20.175781 C 11.222656 20.171875 11.214844 20.171875 11.210938 20.164062 C 11.117188 20.085938 11.097656 19.933594 11.167969 19.832031 C 11.21875 19.765625 11.300781 19.730469 11.359375 19.707031 C 11.585938 19.628906 11.820312 19.625 12.046875 19.628906 C 11.789062 19.546875 11.550781 19.398438 11.378906 19.191406 C 11.257812 19.050781 11.183594 18.90625 11.152344 18.753906 C 11.082031 18.402344 11.289062 18.019531 11.625 17.882812 C 11.644531 17.875 11.667969 17.886719 11.679688 17.90625 C 11.6875 17.925781 11.675781 17.949219 11.65625 17.960938 C 11.359375 18.078125 11.171875 18.429688 11.234375 18.738281 C 11.261719 18.875 11.332031 19.011719 11.441406 19.140625 C 11.695312 19.441406 12.09375 19.617188 12.488281 19.605469 C 12.511719 19.605469 12.527344 19.621094 12.53125 19.644531 C 12.53125 19.664062 12.519531 19.683594 12.496094 19.6875 C 12.359375 19.710938 12.214844 19.710938 12.0625 19.710938 C 11.839844 19.707031 11.605469 19.707031 11.386719 19.785156 C 11.3125 19.8125 11.265625 19.84375 11.234375 19.882812 C 11.191406 19.945312 11.199219 20.039062 11.253906 20.09375 C 11.78125 20.160156 12.355469 20.164062 12.957031 20.113281 C 13 20.113281 13.050781 20.109375 13.089844 20.089844 C 13.175781 20.054688 13.230469 19.964844 13.285156 19.867188 C 13.292969 19.851562 13.3125 19.84375 13.328125 19.847656 C 13.804688 19.960938 14.21875 19.863281 14.488281 19.566406 C 14.777344 19.25 14.875 18.757812 14.730469 18.335938 C 14.617188 18.011719 14.382812 17.796875 14.070312 17.71875 C 14.160156 18.019531 14.257812 18.503906 14.09375 18.851562 C 13.929688 19.191406 13.703125 19.316406 13.347656 19.429688 C 13.332031 19.433594 13.320312 19.429688 13.308594 19.421875 C 13.296875 19.414062 13.292969 19.402344 13.292969 19.386719 C 13.335938 18.773438 13.175781 18.234375 12.75 17.582031 C 12.386719 17.023438 12.011719 16.734375 11.40625 16.371094 C 11.359375 16.339844 11.3125 16.3125 11.261719 16.285156 C 10.84375 16.035156 10.410156 15.78125 10.265625 15.324219 C 10.257812 15.304688 10.269531 15.28125 10.289062 15.273438 C 10.3125 15.265625 10.335938 15.277344 10.34375 15.300781 C 10.480469 15.726562 10.898438 15.972656 11.304688 16.214844 C 11.351562 16.242188 11.402344 16.273438 11.449219 16.300781 C 12.066406 16.671875 12.445312 16.964844 12.820312 17.539062 C 13.238281 18.1875 13.410156 18.726562 13.378906 19.332031 C 13.6875 19.230469 13.875 19.113281 14.019531 18.816406 C 14.183594 18.46875 14.058594 17.953125 13.96875 17.679688 C 13.964844 17.664062 13.96875 17.652344 13.976562 17.640625 C 13.988281 17.628906 14.003906 17.625 14.015625 17.625 C 14.390625 17.691406 14.679688 17.9375 14.804688 18.308594 C 14.960938 18.757812 14.859375 19.285156 14.550781 19.621094 C 14.261719 19.933594 13.835938 20.042969 13.339844 19.933594 C 13.285156 20.03125 13.222656 20.121094 13.121094 20.164062 C 13.070312 20.1875 13.011719 20.191406 12.964844 20.195312 C 12.695312 20.21875 12.433594 20.230469 12.179688 20.230469 " fill-opacity="1" fill-rule="nonzero"/><path fill="#000000" d="M 9.222656 20.230469 C 9.164062 20.230469 9.105469 20.226562 9.046875 20.210938 C 8.882812 20.171875 8.726562 20.023438 8.753906 19.851562 C 8.785156 19.679688 8.972656 19.59375 9.144531 19.582031 L 9.15625 19.578125 C 9.191406 19.578125 9.222656 19.574219 9.242188 19.558594 C 9.269531 19.542969 9.28125 19.507812 9.292969 19.476562 C 9.453125 18.949219 9.363281 18.386719 9.265625 17.898438 C 9.261719 17.875 9.273438 17.855469 9.296875 17.851562 C 9.320312 17.84375 9.339844 17.859375 9.34375 17.882812 C 9.453125 18.417969 9.53125 18.980469 9.371094 19.5 C 9.355469 19.546875 9.335938 19.597656 9.292969 19.625 C 9.25 19.65625 9.203125 19.660156 9.160156 19.660156 L 9.152344 19.660156 C 9.011719 19.671875 8.859375 19.738281 8.835938 19.863281 C 8.816406 19.984375 8.9375 20.101562 9.066406 20.132812 C 9.164062 20.15625 9.265625 20.148438 9.367188 20.140625 C 9.40625 20.140625 9.445312 20.136719 9.480469 20.136719 C 9.675781 20.035156 9.796875 19.832031 9.875 19.664062 C 10.019531 19.371094 10.113281 19.058594 10.164062 18.738281 C 10.167969 18.714844 10.191406 18.699219 10.210938 18.703125 C 10.234375 18.707031 10.25 18.730469 10.246094 18.75 C 10.195312 19.078125 10.09375 19.398438 9.949219 19.699219 C 9.863281 19.878906 9.734375 20.105469 9.511719 20.210938 C 9.503906 20.214844 9.5 20.21875 9.492188 20.21875 C 9.453125 20.21875 9.414062 20.21875 9.371094 20.222656 C 9.320312 20.226562 9.273438 20.230469 9.222656 20.230469 " fill-opacity="1" fill-rule="nonzero"/><path fill="#000000" d="M 11.359375 19.488281 C 11 19.484375 10.644531 19.386719 10.332031 19.203125 C 10.3125 19.191406 10.308594 19.167969 10.320312 19.148438 C 10.332031 19.128906 10.355469 19.121094 10.375 19.132812 C 10.671875 19.308594 11.015625 19.402344 11.359375 19.40625 C 11.382812 19.40625 11.402344 19.425781 11.402344 19.445312 C 11.402344 19.46875 11.382812 19.488281 11.359375 19.488281 " fill-opacity="1" fill-rule="nonzero"/><path fill="#000000" d="M 12.636719 18.121094 C 12.578125 18.121094 12.523438 18.105469 12.476562 18.078125 C 12.363281 18.007812 12.304688 17.886719 12.25 17.761719 C 12.203125 17.65625 12.152344 17.535156 12.058594 17.472656 C 11.960938 17.40625 11.839844 17.40625 11.707031 17.402344 C 11.597656 17.402344 11.484375 17.402344 11.378906 17.359375 C 11.210938 17.289062 11.082031 17.113281 11.042969 16.898438 C 11.011719 16.710938 11.042969 16.511719 11.074219 16.339844 C 11.078125 16.316406 11.097656 16.300781 11.121094 16.304688 C 11.144531 16.308594 11.160156 16.328125 11.15625 16.351562 C 11.125 16.527344 11.09375 16.710938 11.125 16.886719 C 11.152344 17.03125 11.238281 17.214844 11.410156 17.28125 C 11.5 17.320312 11.601562 17.320312 11.710938 17.320312 C 11.84375 17.324219 11.988281 17.324219 12.105469 17.40625 C 12.21875 17.484375 12.273438 17.613281 12.324219 17.726562 C 12.375 17.84375 12.429688 17.953125 12.523438 18.011719 C 12.574219 18.042969 12.644531 18.050781 12.699219 18.03125 C 12.726562 18.019531 12.765625 18 12.78125 17.957031 C 12.789062 17.9375 12.8125 17.925781 12.835938 17.933594 C 12.855469 17.941406 12.867188 17.964844 12.859375 17.988281 C 12.835938 18.042969 12.789062 18.085938 12.726562 18.109375 C 12.699219 18.117188 12.667969 18.121094 12.636719 18.121094 " fill-opacity="1" fill-rule="nonzero"/><path fill="#000000" d="M 14.421875 18.726562 C 14.375 18.726562 14.324219 18.722656 14.273438 18.707031 C 14.253906 18.699219 14.238281 18.679688 14.246094 18.65625 C 14.253906 18.636719 14.273438 18.621094 14.296875 18.628906 C 14.414062 18.664062 14.542969 18.648438 14.648438 18.585938 C 14.667969 18.578125 14.695312 18.582031 14.707031 18.601562 C 14.714844 18.621094 14.710938 18.648438 14.691406 18.65625 C 14.609375 18.703125 14.515625 18.726562 14.421875 18.726562 " fill-opacity="1" fill-rule="nonzero"/><g clip-path="url(#9f7d3fa8f9)"><path fill="#000000" d="M 18.863281 8.414062 C 18.667969 8.382812 18.511719 8.230469 18.4375 8.046875 C 18.363281 7.867188 18.363281 7.664062 18.386719 7.46875 C 18.410156 7.292969 18.453125 7.113281 18.558594 6.96875 C 18.691406 6.785156 18.90625 6.679688 19.125 6.617188 C 19.542969 6.496094 20.054688 6.546875 20.320312 6.886719 C 20.429688 7.03125 20.488281 7.207031 20.519531 7.382812 C 20.5625 7.589844 20.574219 7.808594 20.507812 8.007812 C 20.410156 8.300781 20.152344 8.523438 19.859375 8.621094 C 19.566406 8.714844 19.328125 8.488281 18.863281 8.414062 " fill-opacity="1" fill-rule="nonzero"/></g><path fill="#000000" d="M 20.710938 20.441406 C 20.695312 20.441406 20.679688 20.429688 20.671875 20.414062 C 20.457031 19.910156 20.355469 19.355469 20.382812 18.808594 C 20.382812 18.785156 20.402344 18.769531 20.425781 18.769531 C 20.449219 18.769531 20.464844 18.789062 20.464844 18.8125 C 20.441406 19.347656 20.539062 19.890625 20.746094 20.382812 C 20.757812 20.402344 20.746094 20.425781 20.726562 20.4375 C 20.71875 20.4375 20.714844 20.441406 20.710938 20.441406 " fill-opacity="1" fill-rule="nonzero"/><path fill="#000000" d="M 16.253906 20.390625 C 16.253906 20.390625 16.25 20.390625 16.246094 20.390625 C 16.226562 20.386719 16.210938 20.363281 16.214844 20.34375 C 16.300781 19.890625 16.390625 19.425781 16.410156 18.960938 C 16.433594 18.445312 16.367188 17.984375 16.214844 17.601562 C 16.207031 17.578125 16.21875 17.554688 16.238281 17.546875 C 16.257812 17.539062 16.285156 17.550781 16.292969 17.570312 C 16.449219 17.964844 16.515625 18.4375 16.492188 18.964844 C 16.472656 19.433594 16.382812 19.90625 16.296875 20.359375 C 16.292969 20.378906 16.273438 20.390625 16.253906 20.390625 " fill-opacity="1" fill-rule="nonzero"/><path fill="#000000" d="M 14.015625 17.480469 C 13.867188 17.480469 13.722656 17.433594 13.601562 17.398438 L 12.667969 17.109375 C 12.644531 17.101562 12.632812 17.078125 12.640625 17.054688 C 12.648438 17.035156 12.667969 17.023438 12.691406 17.03125 L 13.625 17.320312 C 13.785156 17.367188 13.964844 17.425781 14.132812 17.386719 C 14.296875 17.347656 14.417969 17.230469 14.492188 17.140625 C 14.585938 17.019531 14.652344 16.875 14.714844 16.738281 C 14.726562 16.71875 14.75 16.710938 14.769531 16.71875 C 14.792969 16.730469 14.800781 16.753906 14.789062 16.773438 C 14.722656 16.914062 14.65625 17.0625 14.554688 17.1875 C 14.476562 17.292969 14.339844 17.421875 14.152344 17.464844 C 14.105469 17.476562 14.0625 17.480469 14.015625 17.480469 " fill-opacity="1" fill-rule="nonzero"/><path fill="#000000" d="M 15.007812 18.148438 C 14.996094 18.148438 14.984375 18.144531 14.976562 18.132812 C 14.960938 18.113281 14.96875 18.089844 14.984375 18.074219 C 15.238281 17.894531 15.460938 17.65625 15.621094 17.390625 C 15.632812 17.371094 15.660156 17.367188 15.679688 17.378906 C 15.699219 17.390625 15.703125 17.414062 15.691406 17.433594 C 15.523438 17.707031 15.296875 17.953125 15.03125 18.140625 C 15.027344 18.144531 15.015625 18.148438 15.007812 18.148438 " fill-opacity="1" fill-rule="nonzero"/><path fill="#000000" d="M 14.117188 18.433594 C 14.117188 18.433594 14.113281 18.433594 14.113281 18.433594 C 13.851562 18.414062 13.644531 18.394531 13.402344 18.269531 C 13.378906 18.261719 13.371094 18.234375 13.382812 18.214844 C 13.394531 18.195312 13.417969 18.1875 13.4375 18.199219 C 13.667969 18.316406 13.867188 18.332031 14.121094 18.351562 C 14.144531 18.355469 14.160156 18.375 14.160156 18.394531 C 14.15625 18.417969 14.136719 18.433594 14.117188 18.433594 " fill-opacity="1" fill-rule="nonzero"/><path fill="#000000" d="M 7.386719 17.429688 C 7.367188 17.429688 7.347656 17.4375 7.332031 17.445312 C 7.300781 17.464844 7.28125 17.492188 7.273438 17.527344 C 7.257812 17.585938 7.277344 17.667969 7.316406 17.742188 C 7.355469 17.816406 7.414062 17.875 7.46875 17.933594 C 7.550781 18.015625 7.636719 18.097656 7.730469 18.164062 C 7.722656 18.019531 7.695312 17.871094 7.644531 17.730469 C 7.585938 17.566406 7.503906 17.457031 7.417969 17.433594 C 7.40625 17.433594 7.398438 17.429688 7.386719 17.429688 Z M 7.671875 18.824219 C 7.667969 18.824219 7.660156 18.824219 7.65625 18.820312 C 7.636719 18.8125 7.625 18.789062 7.632812 18.769531 C 7.699219 18.617188 7.734375 18.445312 7.734375 18.261719 C 7.613281 18.191406 7.507812 18.089844 7.410156 17.988281 C 7.351562 17.929688 7.289062 17.863281 7.246094 17.78125 C 7.195312 17.6875 7.175781 17.589844 7.191406 17.507812 C 7.207031 17.453125 7.242188 17.40625 7.289062 17.375 C 7.332031 17.347656 7.386719 17.34375 7.4375 17.355469 C 7.59375 17.398438 7.683594 17.589844 7.722656 17.703125 C 7.78125 17.871094 7.8125 18.046875 7.816406 18.214844 C 7.867188 18.246094 7.921875 18.269531 7.980469 18.28125 C 8.144531 18.316406 8.300781 18.257812 8.449219 18.195312 C 8.46875 18.1875 8.492188 18.195312 8.5 18.21875 C 8.511719 18.238281 8.5 18.261719 8.480469 18.269531 C 8.320312 18.339844 8.148438 18.402344 7.964844 18.359375 C 7.910156 18.351562 7.863281 18.332031 7.816406 18.308594 C 7.808594 18.484375 7.773438 18.652344 7.710938 18.800781 C 7.703125 18.816406 7.6875 18.824219 7.671875 18.824219 " fill-opacity="1" fill-rule="nonzero"/></svg>