<svg xmlns="http://www.w3.org/2000/svg" xmlns:xlink="http://www.w3.org/1999/xlink" width="200" zoomAndPan="magnify" viewBox="0 0 150 149.999998" height="200" preserveAspectRatio="xMidYMid meet" version="1.0"><defs><clipPath id="a7e0361508"><path d="M 21 134 L 142.5 134 L 142.5 140.691406 L 21 140.691406 Z M 21 134 " clip-rule="nonzero"/></clipPath></defs><path fill="#db995b" d="M 32.335938 108.839844 C 32.335938 108.839844 28.867188 108.621094 27.457031 107.316406 C 26.046875 106.015625 24.3125 103.300781 23.878906 103.300781 C 23.445312 103.300781 20.300781 105.257812 20.191406 107.101562 C 20.082031 108.945312 21.925781 116.652344 22.792969 116.546875 C 23.660156 116.4375 26.371094 114.589844 27.128906 114.808594 C 27.890625 115.023438 33.203125 117.628906 33.203125 117.628906 L 32.335938 108.839844 " fill-opacity="1" fill-rule="nonzero"/><path fill="#293444" d="M 62.261719 12.117188 C 49.179688 13.710938 44.914062 25.578125 45.996094 30.574219 C 47.082031 35.566406 50.984375 42.949219 48.167969 45.117188 C 45.347656 47.289062 42.3125 47.070312 42.746094 50.113281 C 43.179688 53.152344 44.261719 53.585938 41.226562 56.191406 C 35.957031 60.714844 45.128906 71.605469 58.144531 72.472656 C 76.234375 73.679688 98.214844 62.691406 101.300781 59.882812 C 113.445312 48.808594 92.625 35.566406 85.683594 22.539062 C 78.734375 9.492188 62.261719 12.117188 62.261719 12.117188 " fill-opacity="1" fill-rule="nonzero"/><path fill="#8fd4ff" d="M 31.164062 105.707031 C 31.488281 106.683594 49.054688 111.242188 53.609375 107.988281 C 58.164062 104.730469 64.996094 78.351562 70.199219 70.863281 C 75.402344 63.375 94.921875 57.511719 102.402344 59.464844 C 109.882812 61.421875 118.667969 81.933594 121.59375 100.496094 C 124.523438 119.058594 122.894531 134.6875 122.894531 134.6875 L 66.296875 135.664062 L 63.695312 122.640625 C 63.695312 122.640625 55.234375 123.941406 45.800781 122.640625 C 36.371094 121.335938 32.464844 118.40625 32.464844 118.40625 L 31.164062 105.707031 " fill-opacity="1" fill-rule="nonzero"/><path fill="#d0b4b3" d="M 89.023438 128.5 C 89.113281 128.601562 89.832031 129.335938 91.179688 129.066406 C 92.625 128.773438 95.371094 125.589844 94.214844 122.695312 C 93.058594 119.800781 90.457031 120.378906 90.457031 120.378906 C 90.457031 120.378906 90.457031 120.378906 91.757812 120.671875 C 93.058594 120.960938 94.648438 124.289062 92.480469 126.460938 C 90.3125 128.628906 87.710938 127.183594 87.710938 127.183594 C 87.710938 127.183594 88.144531 128.917969 86.84375 128.773438 C 85.539062 128.628906 82.503906 127.617188 81.925781 125.734375 C 81.347656 123.855469 83.082031 121.972656 83.082031 121.972656 C 83.082031 121.972656 81.347656 123.273438 80.769531 122.839844 C 80.191406 122.40625 80.480469 120.089844 81.058594 117.921875 C 81.164062 117.519531 81.296875 117.167969 81.441406 116.863281 C 81.128906 116.601562 79.417969 115.160156 77.382812 113.421875 C 78.765625 115.230469 80.480469 116.472656 80.046875 117.628906 C 79.773438 118.359375 77.878906 123.421875 79.035156 124.289062 C 80.191406 125.15625 81.203125 123.710938 81.203125 123.710938 C 81.203125 123.710938 80.480469 125.15625 81.78125 127.472656 C 83.082031 129.789062 88.433594 131.234375 89.445312 130.65625 C 90.40625 130.105469 89.148438 128.640625 89.023438 128.5 " fill-opacity="1" fill-rule="nonzero"/><path fill="#db995b" d="M 54.890625 24.277344 C 51.855469 27.382812 52 37.011719 58.070312 45.117188 C 64.144531 53.222656 72.382812 56.550781 77.589844 55.683594 C 80.472656 55.203125 81.925781 53.65625 81.925781 53.65625 C 81.925781 53.65625 84.902344 60.582031 85.25 62.050781 C 86.695312 68.132812 97.105469 59.15625 97.105469 59.15625 C 97.105469 59.15625 89.734375 40.34375 81.492188 30.210938 C 73.25 20.078125 61.105469 17.90625 54.890625 24.277344 " fill-opacity="1" fill-rule="nonzero"/><path fill="#293444" d="M 51.421875 25.578125 C 56.191406 23.554688 58.359375 32.09375 64.867188 33.972656 C 71.371094 35.855469 72.382812 31.367188 78.746094 31.804688 C 85.105469 32.238281 89.15625 40.488281 89.15625 40.488281 C 89.15625 40.488281 85.394531 23.988281 75.566406 19.933594 C 65.734375 15.882812 58.503906 19.789062 57.925781 19.789062 C 57.347656 19.789062 51.421875 25.578125 51.421875 25.578125 " fill-opacity="1" fill-rule="nonzero"/><path fill="#293444" d="M 62.550781 43.382812 C 62.550781 44.101562 61.9375 44.683594 61.179688 44.683594 C 60.421875 44.683594 59.804688 44.101562 59.804688 43.382812 C 59.804688 42.660156 60.421875 42.078125 61.179688 42.078125 C 61.9375 42.078125 62.550781 42.660156 62.550781 43.382812 " fill-opacity="1" fill-rule="nonzero"/><path fill="#293444" d="M 73.828125 38.460938 C 73.828125 39.179688 73.214844 39.761719 72.457031 39.761719 C 71.699219 39.761719 71.082031 39.179688 71.082031 38.460938 C 71.082031 37.742188 71.699219 37.15625 72.457031 37.15625 C 73.214844 37.15625 73.828125 37.742188 73.828125 38.460938 " fill-opacity="1" fill-rule="nonzero"/><path fill="#293444" d="M 57.78125 42.804688 C 58.65625 41.929688 61.25 40.34375 61.972656 39.761719 C 62.695312 39.183594 61.972656 38.171875 60.527344 38.460938 C 59.082031 38.75 57.636719 40.921875 57.347656 41.789062 C 57.058594 42.65625 57.203125 43.382812 57.78125 42.804688 " fill-opacity="1" fill-rule="nonzero"/><path fill="#293444" d="M 73.023438 34.253906 C 71.855469 34.644531 69.277344 36.265625 68.4375 36.652344 C 67.597656 37.042969 67.015625 35.945312 67.917969 34.777344 C 68.820312 33.609375 71.40625 33.285156 72.3125 33.410156 C 73.21875 33.539062 73.800781 33.992188 73.023438 34.253906 " fill-opacity="1" fill-rule="nonzero"/><path fill="#c07a5b" d="M 65.15625 40.488281 C 65.863281 41.617188 68.046875 46.710938 68.914062 47.578125 C 69.78125 48.449219 71.660156 47.144531 72.238281 47.144531 C 72.816406 47.144531 70.503906 49.316406 68.914062 48.738281 C 67.324219 48.15625 64.433594 39.328125 65.15625 40.488281 " fill-opacity="1" fill-rule="nonzero"/><path fill="#cf4e5c" d="M 69.3125 50.871094 C 70.601562 50.65625 73.972656 48.808594 75.601562 47.289062 C 77.226562 45.769531 76.683594 50.761719 74.734375 52.066406 C 72.78125 53.367188 68.660156 50.980469 69.3125 50.871094 " fill-opacity="1" fill-rule="nonzero"/><path fill="#f8e4e5" d="M 71.589844 50.871094 C 72.378906 50.871094 74.515625 49.242188 75.167969 48.484375 C 75.816406 47.722656 75.382812 51.089844 73.867188 51.414062 C 72.347656 51.738281 71.15625 50.871094 71.589844 50.871094 " fill-opacity="1" fill-rule="nonzero"/><path fill="#293444" d="M 103.902344 59.882812 C 103.902344 59.882812 101.949219 60.53125 99.566406 69.652344 C 97.179688 78.769531 98.046875 86.800781 98.046875 86.800781 C 98.046875 86.800781 94.792969 85.5 93.277344 82.894531 C 91.757812 80.289062 94.359375 68.566406 95.878906 64.222656 C 97.394531 59.882812 98.699219 58.363281 98.699219 58.363281 C 98.699219 58.363281 103.035156 58.796875 103.902344 59.882812 " fill-opacity="1" fill-rule="nonzero"/><path fill="#293444" d="M 81.347656 62.703125 C 81.347656 62.703125 80.046875 64.441406 79.828125 71.386719 C 79.613281 78.335938 80.914062 86.585938 80.914062 86.585938 L 75.492188 87.453125 C 75.492188 87.453125 74.40625 81.59375 74.625 75.296875 C 74.839844 69 75.710938 65.742188 75.710938 65.742188 C 75.710938 65.742188 80.914062 62.921875 81.347656 62.703125 " fill-opacity="1" fill-rule="nonzero"/><path fill="#293444" d="M 76.144531 85.714844 C 76.792969 85.714844 95.011719 82.894531 95.011719 82.894531 C 95.011719 82.894531 89.589844 86.585938 87.421875 87.671875 C 85.25 88.757812 82.433594 89.191406 82.433594 89.191406 C 82.433594 89.191406 90.238281 103.300781 96.960938 109.816406 C 103.683594 116.328125 111.710938 116.980469 115.179688 116.980469 C 118.648438 116.980469 122.988281 114.808594 122.988281 114.808594 L 123.203125 119.585938 L 118.433594 120.886719 L 115.394531 135.867188 L 63.78125 137.167969 C 63.78125 137.167969 65.949219 114.808594 67.902344 106.558594 C 69.855469 98.308594 72.671875 92.011719 72.671875 92.011719 L 76.144531 85.714844 " fill-opacity="1" fill-rule="nonzero"/><path fill="#79afd4" d="M 108.023438 84.847656 C 108.023438 84.847656 107.804688 87.671875 103.683594 88.105469 C 99.566406 88.539062 92.914062 83.472656 93.636719 84.050781 C 94.359375 84.628906 98.046875 89.40625 103.46875 89.625 C 108.890625 89.839844 108.023438 84.847656 108.023438 84.847656 " fill-opacity="1" fill-rule="nonzero"/><path fill="#f8e4e5" d="M 102.457031 123.855469 C 101.589844 124.433594 99.855469 125.445312 99.855469 125.445312 C 99.855469 125.445312 102.601562 122.839844 101.300781 118.5 C 100 114.15625 97.683594 112.421875 97.683594 114.15625 C 97.683594 115.894531 97.105469 118.066406 97.105469 118.066406 C 97.105469 118.066406 95.226562 113.144531 91.902344 111.839844 C 88.578125 110.539062 87.421875 112.273438 88.144531 113 C 88.867188 113.722656 89.011719 115.460938 89.011719 115.460938 C 89.011719 115.460938 85.972656 115.023438 84.09375 115.316406 C 82.214844 115.605469 81.492188 116.90625 81.492188 116.90625 C 81.492188 116.90625 69.78125 107.066406 69.492188 106.339844 C 69.203125 105.617188 72.671875 107.933594 72.671875 106.484375 C 72.671875 105.429688 72.058594 103.21875 71.722656 102.269531 C 72.144531 102.808594 73.097656 103.523438 73.539062 103.300781 C 74.117188 103.011719 76.144531 99.394531 74.40625 96.5 C 73.023438 94.1875 72.28125 93.539062 72.042969 93.371094 C 72.445312 93.601562 74.082031 94.453125 74.839844 93.316406 C 75.710938 92.011719 68.191406 86.222656 68.191406 86.222656 C 68.191406 86.222656 69.566406 83.515625 69.925781 83.039062 C 70.792969 81.882812 72.238281 80.867188 73.828125 79.277344 C 75.421875 77.683594 67.757812 75.945312 61.25 81.011719 C 61.25 81.011719 60.421875 80.882812 59.152344 80.734375 C 58.109375 79.953125 56.8125 78.777344 55.613281 77.105469 C 53.011719 73.488281 50.117188 71.894531 50.695312 73.34375 C 51.273438 74.789062 52.144531 76.09375 52.144531 76.09375 C 52.144531 76.09375 50.261719 74.066406 47.082031 74.210938 C 43.902344 74.355469 41.734375 76.238281 42.746094 76.09375 C 43.757812 75.945312 46.9375 76.816406 46.9375 76.816406 C 46.9375 76.816406 45.203125 76.960938 44.046875 77.828125 C 42.890625 78.695312 42.890625 79.566406 43.902344 79.277344 C 44.914062 78.984375 47.191406 81.078125 47.523438 81.167969 C 46.917969 81.433594 46.3125 81.773438 45.71875 82.175781 C 44.511719 80.960938 42 78.859375 38.839844 78.550781 C 34.359375 78.117188 32.914062 79.277344 34.214844 80.144531 C 35.488281 80.992188 39.527344 86.828125 39.566406 88.4375 C 39.015625 89.183594 38.527344 89.910156 38.117188 90.566406 C 35.949219 94.039062 35.515625 100.695312 36.816406 98.816406 C 38.117188 96.933594 38.984375 96.210938 38.984375 96.210938 C 38.984375 96.210938 38.695312 98.816406 39.710938 102.144531 C 40.722656 105.472656 42.023438 101.710938 42.023438 101.710938 C 42.023438 101.710938 42.3125 104.023438 44.480469 107.355469 C 46.648438 110.683594 45.636719 113.433594 47.371094 118.789062 C 49.105469 124.144531 55.757812 125.300781 56.914062 127.90625 C 58.070312 130.511719 59.371094 133.261719 57.636719 132.828125 C 55.902344 132.394531 54.890625 132.828125 54.457031 133.695312 C 54.023438 134.566406 54.3125 135.289062 54.3125 135.289062 L 89.734375 135.578125 C 89.734375 135.578125 97.394531 132.972656 101.011719 128.484375 C 104.625 124 103.324219 123.273438 102.457031 123.855469 " fill-opacity="1" fill-rule="nonzero"/><path fill="#293444" d="M 43.613281 93.316406 C 43.738281 91.667969 51.636719 92.878906 51.203125 94.835938 C 50.769531 96.789062 43.394531 96.136719 43.613281 93.316406 " fill-opacity="1" fill-rule="nonzero"/><path fill="#293444" d="M 42.3125 88.539062 C 41.898438 87.304688 44.480469 85.714844 45.5625 86.800781 C 46.648438 87.886719 46.648438 89.191406 45.78125 88.320312 C 44.914062 87.453125 43.9375 87.453125 43.289062 88.105469 C 42.636719 88.757812 42.527344 89.191406 42.3125 88.539062 " fill-opacity="1" fill-rule="nonzero"/><path fill="#293444" d="M 50.984375 88.757812 C 50.28125 88.046875 52.503906 86.152344 54.238281 87.019531 C 55.972656 87.886719 55.757812 89.734375 55.105469 89.734375 C 54.457031 89.734375 54.566406 87.777344 53.15625 87.777344 C 51.746094 87.777344 51.3125 89.082031 50.984375 88.757812 " fill-opacity="1" fill-rule="nonzero"/><path fill="#d0b4b3" d="M 46.757812 99.394531 C 47.191406 100.804688 49.683594 101.457031 50.878906 100.804688 C 52.070312 100.152344 52.179688 99.71875 52.503906 99.066406 C 52.828125 98.417969 53.480469 100.804688 50.984375 101.671875 C 48.492188 102.542969 45.996094 100.371094 45.996094 99.503906 C 45.996094 98.632812 46.757812 99.394531 46.757812 99.394531 " fill-opacity="1" fill-rule="nonzero"/><path fill="#ffffff" d="M 50.226562 108.511719 C 50.019531 109.972656 50.011719 112.855469 50.550781 113.832031 C 51.09375 114.808594 49.144531 113.070312 49.144531 110.902344 C 49.144531 108.730469 50.335938 107.753906 50.226562 108.511719 " fill-opacity="1" fill-rule="nonzero"/><path fill="#ffffff" d="M 53.589844 112.421875 C 53.589844 114.703125 54.347656 116.980469 54.78125 117.957031 C 55.214844 118.933594 53.046875 116.980469 52.828125 114.589844 C 52.613281 112.203125 53.589844 111.984375 53.589844 112.421875 " fill-opacity="1" fill-rule="nonzero"/><path fill="#ffffff" d="M 56.734375 109.164062 C 57.285156 110.269531 57.816406 111.984375 57.601562 113.179688 C 57.382812 114.375 58.792969 112.3125 58.25 110.464844 C 57.710938 108.621094 56.515625 108.730469 56.734375 109.164062 " fill-opacity="1" fill-rule="nonzero"/><path fill="#ffffff" d="M 57.816406 118.390625 C 58.160156 119.761719 58.683594 122.515625 59.117188 123.273438 C 59.550781 124.035156 57.816406 122.839844 57.382812 120.996094 C 56.949219 119.152344 57.710938 117.957031 57.816406 118.390625 " fill-opacity="1" fill-rule="nonzero"/><path fill="#ffffff" d="M 58.144531 86.800781 C 58.144531 84.195312 54.457031 81.15625 53.371094 82.894531 C 52.289062 84.628906 58.144531 87.886719 58.144531 86.800781 " fill-opacity="1" fill-rule="nonzero"/><path fill="#ffffff" d="M 44.046875 84.628906 C 43.117188 84.074219 48.601562 81.59375 48.601562 83.328125 C 48.601562 85.066406 45.128906 85.28125 44.046875 84.628906 " fill-opacity="1" fill-rule="nonzero"/><path fill="#af9f98" d="M 76.578125 72.039062 L 69.527344 73.449219 C 69.527344 73.449219 56.40625 69.652344 51.09375 69.324219 C 45.78125 69 42.636719 71.171875 43.503906 71.28125 C 44.371094 71.386719 68.984375 75.1875 68.984375 75.1875 L 77.011719 73.667969 L 76.578125 72.039062 " fill-opacity="1" fill-rule="nonzero"/><path fill="#af9f98" d="M 77.011719 77.464844 C 77.011719 77.464844 69.3125 75.1875 68.984375 75.1875 C 68.660156 75.1875 46.539062 77.464844 46.539062 77.464844 C 46.539062 77.464844 49.578125 79.203125 51.960938 79.203125 C 54.347656 79.203125 68.769531 76.164062 68.769531 76.164062 C 68.769531 76.164062 76.578125 79.746094 76.902344 79.636719 C 77.226562 79.527344 77.011719 77.464844 77.011719 77.464844 " fill-opacity="1" fill-rule="nonzero"/><path fill="#db995b" d="M 91.179688 79.710938 C 91.179688 79.710938 90.023438 76.527344 86.121094 73.777344 C 82.214844 71.027344 77.300781 70.734375 74.550781 70.734375 C 71.804688 70.734375 71.226562 73.050781 71.804688 73.050781 C 72.382812 73.050781 76.578125 73.34375 76 73.777344 C 75.421875 74.210938 75.273438 81.738281 77.734375 82.171875 C 80.191406 82.605469 84.816406 82.605469 85.25 83.183594 C 85.683594 83.761719 87.421875 87.671875 87.421875 87.671875 L 93.636719 84.050781 L 91.179688 79.710938 " fill-opacity="1" fill-rule="nonzero"/><path fill="#293444" d="M 25.714844 95.769531 C 27.242188 102.339844 24.742188 108.535156 20.132812 109.605469 C 15.523438 110.679688 10.550781 106.222656 9.027344 99.652344 C 7.503906 93.082031 10 86.886719 14.609375 85.816406 C 19.21875 84.746094 24.191406 89.199219 25.714844 95.769531 " fill-opacity="1" fill-rule="nonzero"/><path fill="#8fd4ff" d="M 24.300781 96.144531 C 25.371094 101.15625 23.863281 105.726562 20.933594 106.355469 C 18.007812 106.980469 14.765625 103.425781 13.695312 98.410156 C 12.625 93.398438 14.132812 88.828125 17.0625 88.199219 C 19.988281 87.574219 23.230469 91.132812 24.300781 96.144531 " fill-opacity="1" fill-rule="nonzero"/><path fill="#293444" d="M 19.105469 108.621094 C 19.105469 108.621094 22.902344 128.050781 23.445312 129.679688 C 23.984375 131.308594 29.082031 129.460938 28.972656 128.484375 C 28.867188 127.507812 21.816406 108.078125 21.816406 108.078125 L 19.105469 108.621094 " fill-opacity="1" fill-rule="nonzero"/><path fill="#db995b" d="M 16.613281 109.054688 C 14.769531 109.597656 16.394531 110.792969 17.15625 111.335938 C 17.914062 111.878906 17.589844 111.984375 17.589844 113.070312 C 17.589844 114.15625 18.023438 114.375 18.671875 115.132812 C 19.324219 115.894531 18.671875 116.546875 19.648438 116.761719 C 20.625 116.980469 23.117188 116.328125 23.445312 115.460938 C 23.769531 114.589844 22.144531 114.589844 22.144531 114.589844 C 22.144531 114.589844 23.226562 113.722656 22.792969 112.527344 C 22.359375 111.335938 20.949219 111.226562 20.949219 111.226562 C 20.949219 111.226562 21.601562 110.464844 21.382812 109.488281 C 21.167969 108.511719 16.613281 109.054688 16.613281 109.054688 " fill-opacity="1" fill-rule="nonzero"/><g clip-path="url(#a7e0361508)"><path fill="#af9f98" d="M 142.296875 140.644531 L 21.269531 140.644531 C 21.152344 140.644531 21.058594 140.550781 21.058594 140.433594 L 21.058594 134.566406 L 142.503906 134.566406 L 142.503906 140.433594 C 142.503906 140.550781 142.410156 140.644531 142.296875 140.644531 " fill-opacity="1" fill-rule="nonzero"/></g></svg>